M48
; DRILL file {KiCad 8.0.4} date 2025-02-19T18:48:19+1300
; FORMAT={-:-/ absolute / inch / decimal}
; #@! TF.CreationDate,2025-02-19T18:48:19+13:00
; #@! TF.GenerationSoftware,Kicad,Pcbnew,8.0.4
; #@! TF.FileFunction,NonPlated,1,2,NPTH
FMAT,2
INCH
; #@! TA.AperFunction,NonPlated,NPTH,ComponentDrill
T1C0.0197
; #@! TA.AperFunction,NonPlated,NPTH,ComponentDrill
T2C0.0315
; #@! TA.AperFunction,NonPlated,NPTH,ComponentDrill
T3C0.0354
; #@! TA.AperFunction,NonPlated,NPTH,ComponentDrill
T4C0.0669
; #@! TA.AperFunction,NonPlated,NPTH,ComponentDrill
T5C0.0689
; #@! TA.AperFunction,NonPlated,NPTH,ComponentDrill
T6C0.0906
; #@! TA.AperFunction,NonPlated,NPTH,ComponentDrill
T7C0.1181
; #@! TA.AperFunction,NonPlated,NPTH,ComponentDrill
T8C0.1570
%
G90
G05
T1
X2.5944Y-4.593
X2.6256Y-4.593
X2.6567Y-4.593
X2.6879Y-4.593
X2.7191Y-4.593
X2.7502Y-4.593
X2.7814Y-4.593
X3.3444Y-4.593
X3.3756Y-4.593
X3.4067Y-4.593
X3.4379Y-4.593
X3.4691Y-4.593
X3.5002Y-4.593
X3.5314Y-4.593
X4.0944Y-2.1003
X4.1256Y-2.1003
X4.1567Y-2.1003
X4.1879Y-2.1003
X4.2191Y-2.1003
X4.2502Y-2.1003
X4.2814Y-2.1003
X5.5944Y-2.1003
X5.6256Y-2.1003
X5.6567Y-2.1003
X5.6879Y-2.1003
X5.7191Y-2.1003
X5.7502Y-2.1003
X5.7814Y-2.1003
X9.7194Y-2.1003
X9.7506Y-2.1003
X9.7817Y-2.1003
X9.8129Y-2.1003
X9.8441Y-2.1003
X9.8752Y-2.1003
X9.9064Y-2.1003
X11.2194Y-2.1003
X11.2506Y-2.1003
X11.2817Y-2.1003
X11.3129Y-2.1003
X11.3441Y-2.1003
X11.3752Y-2.1003
X11.4064Y-2.1003
X11.9694Y-4.593
X12.0006Y-4.593
X12.0317Y-4.593
X12.0629Y-4.593
X12.0941Y-4.593
X12.1252Y-4.593
X12.1564Y-4.593
X12.7194Y-4.593
X12.7506Y-4.593
X12.7817Y-4.593
X12.8129Y-4.593
X12.8441Y-4.593
X12.8752Y-4.593
X12.9064Y-4.593
T2
X7.2438Y-4.2471
X7.5194Y-4.2471
X7.9814Y-4.2471
X8.257Y-4.2471
T3
X7.1288Y-2.3705
X7.2469Y-2.3705
X8.2538Y-2.3705
X8.3719Y-2.3705
T4
X2.4714Y-2.6904
X2.4714Y-3.4404
X2.4714Y-4.1904
X2.9044Y-2.6904
X2.9044Y-3.4404
X2.9044Y-4.1904
X3.2214Y-2.6904
X3.2214Y-3.4404
X3.2214Y-4.1904
X3.6544Y-2.6904
X3.6544Y-3.4404
X3.6544Y-4.1904
X3.9714Y-2.5029
X3.9714Y-3.2529
X3.9714Y-4.0029
X4.4044Y-2.5029
X4.4044Y-3.2529
X4.4044Y-4.0029
X4.7214Y-2.4092
X4.7214Y-3.1592
X4.7214Y-3.9092
X5.0964Y-4.8467
X5.1544Y-2.4092
X5.1544Y-3.1592
X5.1544Y-3.9092
X5.4714Y-2.5029
X5.4714Y-3.2529
X5.4714Y-4.0029
X5.5294Y-4.8467
X5.9044Y-2.5029
X5.9044Y-3.2529
X5.9044Y-4.0029
X5.9205Y-4.8876
X6.2214Y-2.5967
X6.2214Y-3.3467
X6.2214Y-4.0967
X6.3442Y-4.9771
X6.6544Y-2.5967
X6.6544Y-3.3467
X6.6544Y-4.0967
X6.9046Y-5.2123
X7.0799Y-4.8163
X8.4208Y-4.8163
X8.5962Y-5.2123
X8.8464Y-2.5967
X8.8464Y-3.3467
X8.8464Y-4.0967
X9.1566Y-4.9771
X9.2794Y-2.5967
X9.2794Y-3.3467
X9.2794Y-4.0967
X9.5803Y-4.8876
X9.5964Y-2.5029
X9.5964Y-3.2529
X9.5964Y-4.0029
X9.9714Y-4.8467
X10.0294Y-2.5029
X10.0294Y-3.2529
X10.0294Y-4.0029
X10.3464Y-2.4092
X10.3464Y-3.1592
X10.3464Y-3.9092
X10.4044Y-4.8467
X10.7794Y-2.4092
X10.7794Y-3.1592
X10.7794Y-3.9092
X11.0964Y-2.5029
X11.0964Y-3.2529
X11.0964Y-4.0029
X11.5294Y-2.5029
X11.5294Y-3.2529
X11.5294Y-4.0029
X11.8464Y-2.6904
X11.8464Y-3.4404
X11.8464Y-4.1904
X12.2794Y-2.6904
X12.2794Y-3.4404
X12.2794Y-4.1904
X12.5964Y-2.6904
X12.5964Y-3.4404
X12.5964Y-4.1904
X13.0294Y-2.6904
X13.0294Y-3.4404
X13.0294Y-4.1904
T5
X2.4879Y-2.6904
X2.4879Y-3.4404
X2.4879Y-4.1904
X2.8879Y-2.6904
X2.8879Y-3.4404
X2.8879Y-4.1904
X3.2379Y-2.6904
X3.2379Y-3.4404
X3.2379Y-4.1904
X3.6379Y-2.6904
X3.6379Y-3.4404
X3.6379Y-4.1904
X3.9879Y-2.5029
X3.9879Y-3.2529
X3.9879Y-4.0029
X4.3879Y-2.5029
X4.3879Y-3.2529
X4.3879Y-4.0029
X4.7379Y-2.4092
X4.7379Y-3.1592
X4.7379Y-3.9092
X5.1129Y-4.8467
X5.1379Y-2.4092
X5.1379Y-3.1592
X5.1379Y-3.9092
X5.4879Y-2.5029
X5.4879Y-3.2529
X5.4879Y-4.0029
X5.5129Y-4.8467
X5.8879Y-2.5029
X5.8879Y-3.2529
X5.8879Y-4.0029
X5.9367Y-4.891
X6.2379Y-2.5967
X6.2379Y-3.3467
X6.2379Y-4.0967
X6.328Y-4.9737
X6.6379Y-2.5967
X6.6379Y-3.3467
X6.6379Y-4.0967
X6.9113Y-5.1972
X7.0732Y-4.8314
X8.4275Y-4.8314
X8.5895Y-5.1972
X8.8629Y-2.5967
X8.8629Y-3.3467
X8.8629Y-4.0967
X9.1727Y-4.9737
X9.2629Y-2.5967
X9.2629Y-3.3467
X9.2629Y-4.0967
X9.5641Y-4.891
X9.6129Y-2.5029
X9.6129Y-3.2529
X9.6129Y-4.0029
X9.9879Y-4.8467
X10.0129Y-2.5029
X10.0129Y-3.2529
X10.0129Y-4.0029
X10.3629Y-2.4092
X10.3629Y-3.1592
X10.3629Y-3.9092
X10.3879Y-4.8467
X10.7629Y-2.4092
X10.7629Y-3.1592
X10.7629Y-3.9092
X11.1129Y-2.5029
X11.1129Y-3.2529
X11.1129Y-4.0029
X11.5129Y-2.5029
X11.5129Y-3.2529
X11.5129Y-4.0029
X11.8629Y-2.6904
X11.8629Y-3.4404
X11.8629Y-4.1904
X12.2629Y-2.6904
X12.2629Y-3.4404
X12.2629Y-4.1904
X12.6129Y-2.6904
X12.6129Y-3.4404
X12.6129Y-4.1904
X13.0129Y-2.6904
X13.0129Y-3.4404
X13.0129Y-4.1904
T6
X6.9139Y-4.2058
X7.4821Y-4.4574
X8.0187Y-4.4574
X8.5869Y-4.2058
T7
X2.5879Y-2.8904
X2.5879Y-3.6404
X2.5879Y-4.3904
X2.6879Y-2.4562
X2.6879Y-3.2062
X2.6879Y-3.9562
X2.8379Y-2.7904
X2.8379Y-3.5404
X2.8379Y-4.2904
X2.8847Y-2.5428
X2.8847Y-3.2928
X2.8847Y-4.0428
X3.3379Y-2.8904
X3.3379Y-3.6404
X3.3379Y-4.3904
X3.4379Y-2.4562
X3.4379Y-3.2062
X3.4379Y-3.9562
X3.5879Y-2.7904
X3.5879Y-3.5404
X3.5879Y-4.2904
X3.6347Y-2.5428
X3.6347Y-3.2928
X3.6347Y-4.0428
X4.0879Y-2.7029
X4.0879Y-3.4529
X4.0879Y-4.2029
X4.1879Y-2.2687
X4.1879Y-3.0187
X4.1879Y-3.7687
X4.3379Y-2.6029
X4.3379Y-3.3529
X4.3379Y-4.1029
X4.3847Y-2.3553
X4.3847Y-3.1053
X4.3847Y-3.8553
X4.8379Y-2.6092
X4.8379Y-3.3592
X4.8379Y-4.1092
X4.9379Y-2.1749
X4.9379Y-2.9249
X4.9379Y-3.6749
X5.0879Y-2.5092
X5.0879Y-3.2592
X5.0879Y-4.0092
X5.1347Y-2.2615
X5.1347Y-3.0115
X5.1347Y-3.7615
X5.2129Y-5.0467
X5.3129Y-4.6124
X5.4629Y-4.9467
X5.5097Y-4.699
X5.5879Y-2.7029
X5.5879Y-3.4529
X5.5879Y-4.2029
X5.6879Y-2.2687
X5.6879Y-3.0187
X5.6879Y-3.7687
X5.8379Y-2.6029
X5.8379Y-3.3529
X5.8379Y-4.1029
X5.8847Y-2.3553
X5.8847Y-3.1053
X5.8847Y-3.8553
X5.9931Y-5.1073
X6.1808Y-4.7032
X6.2584Y-5.0612
X6.3379Y-2.7967
X6.3379Y-3.5467
X6.3379Y-4.2967
X6.3555Y-4.8286
X6.4379Y-2.3624
X6.4379Y-3.1124
X6.4379Y-3.8624
X6.5879Y-2.6967
X6.5879Y-3.4467
X6.5879Y-4.1967
X6.6347Y-2.449
X6.6347Y-3.199
X6.6347Y-3.949
X6.7781Y-4.9194
X6.937Y-4.7745
X7.1347Y-5.1867
X7.1444Y-4.9176
X8.2851Y-5.0038
X8.4778Y-5.1919
X8.7227Y-4.9194
X8.7232Y-5.1345
X8.9629Y-2.7967
X8.9629Y-3.5467
X8.9629Y-4.2967
X9.0629Y-2.3624
X9.0629Y-3.1124
X9.0629Y-3.8624
X9.2129Y-2.6967
X9.2129Y-3.4467
X9.2129Y-4.1967
X9.2597Y-2.449
X9.2597Y-3.199
X9.2597Y-3.949
X9.312Y-5.1487
X9.32Y-4.7032
X9.5305Y-4.7472
X9.5359Y-4.9992
X9.7129Y-2.7029
X9.7129Y-3.4529
X9.7129Y-4.2029
X9.8129Y-2.2687
X9.8129Y-3.0187
X9.8129Y-3.7687
X9.9629Y-2.6029
X9.9629Y-3.3529
X9.9629Y-4.1029
X10.0097Y-2.3553
X10.0097Y-3.1053
X10.0097Y-3.8553
X10.0879Y-5.0467
X10.1879Y-4.6124
X10.3379Y-4.9467
X10.3847Y-4.699
X10.4629Y-2.6092
X10.4629Y-3.3592
X10.4629Y-4.1092
X10.5629Y-2.1749
X10.5629Y-2.9249
X10.5629Y-3.6749
X10.7129Y-2.5092
X10.7129Y-3.2592
X10.7129Y-4.0092
X10.7597Y-2.2615
X10.7597Y-3.0115
X10.7597Y-3.7615
X11.2129Y-2.7029
X11.2129Y-3.4529
X11.2129Y-4.2029
X11.3129Y-2.2687
X11.3129Y-3.0187
X11.3129Y-3.7687
X11.4629Y-2.6029
X11.4629Y-3.3529
X11.4629Y-4.1029
X11.5097Y-2.3553
X11.5097Y-3.1053
X11.5097Y-3.8553
X11.9629Y-2.8904
X11.9629Y-3.6404
X11.9629Y-4.3904
X12.0629Y-2.4562
X12.0629Y-3.2062
X12.0629Y-3.9562
X12.2129Y-2.7904
X12.2129Y-3.5404
X12.2129Y-4.2904
X12.2597Y-2.5428
X12.2597Y-3.2928
X12.2597Y-4.0428
X12.7129Y-2.8904
X12.7129Y-3.6404
X12.7129Y-4.3904
X12.8129Y-2.4562
X12.8129Y-3.2062
X12.8129Y-3.9562
X12.9629Y-2.7904
X12.9629Y-3.5404
X12.9629Y-4.2904
X13.0097Y-2.5428
X13.0097Y-3.2928
X13.0097Y-4.0428
T8
X2.6879Y-2.6904
X2.6879Y-3.4404
X2.6879Y-4.1904
X3.4379Y-2.6904
X3.4379Y-3.4404
X3.4379Y-4.1904
X4.1879Y-2.5029
X4.1879Y-3.2529
X4.1879Y-4.0029
X4.9379Y-2.4092
X4.9379Y-3.1592
X4.9379Y-3.9092
X5.3129Y-4.8467
X5.6879Y-2.5029
X5.6879Y-3.2529
X5.6879Y-4.0029
X6.1324Y-4.9323
X6.4379Y-2.5967
X6.4379Y-3.3467
X6.4379Y-4.0967
X6.9923Y-5.0143
X8.5085Y-5.0143
X9.0629Y-2.5967
X9.0629Y-3.3467
X9.0629Y-4.0967
X9.3684Y-4.9323
X9.8129Y-2.5029
X9.8129Y-3.2529
X9.8129Y-4.0029
X10.1879Y-4.8467
X10.5629Y-2.4092
X10.5629Y-3.1592
X10.5629Y-3.9092
X11.3129Y-2.5029
X11.3129Y-3.2529
X11.3129Y-4.0029
X12.0629Y-2.6904
X12.0629Y-3.4404
X12.0629Y-4.1904
X12.8129Y-2.6904
X12.8129Y-3.4404
X12.8129Y-4.1904
M30
