%TF.GenerationSoftware,KiCad,Pcbnew,8.0.4*%
%TF.CreationDate,2025-02-19T18:48:20+13:00*%
%TF.ProjectId,Corne V4 Pro Micro Edition,436f726e-6520-4563-9420-50726f204d69,4.0.0*%
%TF.SameCoordinates,Original*%
%TF.FileFunction,Drillmap*%
%TF.FilePolarity,Positive*%
%FSLAX45Y45*%
G04 Gerber Fmt 4.5, Leading zero omitted, Abs format (unit mm)*
G04 Created by KiCad (PCBNEW 8.0.4) date 2025-02-19 18:48:20*
%MOMM*%
%LPD*%
G01*
G04 APERTURE LIST*
%ADD10C,0.100000*%
%ADD11C,0.150000*%
%ADD12C,0.200000*%
%ADD13C,0.109220*%
%ADD14C,0.130000*%
G04 APERTURE END LIST*
D10*
X7739734Y-10091125D02*
X7739734Y-10696126D01*
X5824733Y-4516750D02*
X5824733Y-4816750D01*
X8969734Y-11846129D02*
X11260717Y-11846125D01*
X25828683Y-5190259D02*
X25827588Y-5200462D01*
X25827249Y-5211140D01*
X25827234Y-5216750D01*
X28972234Y-5354875D02*
X28972234Y-4916750D01*
X25837064Y-5164439D02*
X25832908Y-5173836D01*
X25830001Y-5183512D01*
X25828683Y-5190259D01*
X31552234Y-5981124D02*
X31552234Y-6586125D01*
X25827234Y-5354875D02*
X25827234Y-5216750D01*
X11460717Y-14665985D02*
X27811250Y-14665985D01*
X31552234Y-6786125D02*
X31552234Y-7386125D01*
X21360182Y-14463196D02*
X21369955Y-14460067D01*
X21379856Y-14456054D01*
X21384992Y-14453796D01*
X31632234Y-10896126D02*
X31632234Y-11496125D01*
X29737234Y-5831125D02*
X33447234Y-5831124D01*
X13444733Y-5116750D02*
X13455185Y-5116847D01*
X13466047Y-5117526D01*
X13476058Y-5119089D01*
X13483791Y-5121110D01*
X19259734Y-11804868D02*
X19259734Y-11348000D01*
X20869734Y-6411688D02*
X21359734Y-6411688D01*
X32782234Y-11646125D02*
X32782234Y-11846129D01*
X29689546Y-5364705D02*
X29680148Y-5360549D01*
X29670472Y-5357642D01*
X29663726Y-5356324D01*
X8969734Y-11646125D02*
X8969734Y-11846129D01*
X31552234Y-6786125D02*
G75*
G02*
X31632234Y-6786125I40000J0D01*
G01*
X27911250Y-11946125D02*
X27911250Y-14565985D01*
X31632234Y-8186125D02*
X31632234Y-9291125D01*
X27758726Y-5118199D02*
X27748522Y-5117104D01*
X27737844Y-5116765D01*
X27732234Y-5116750D01*
X5924733Y-15165985D02*
G75*
G02*
X5824735Y-15065985I-4J99995D01*
G01*
X7819734Y-6786125D02*
X7819734Y-7386125D01*
X7819734Y-10091125D02*
X7819734Y-10696126D01*
X31632234Y-9291125D02*
G75*
G02*
X31552234Y-9291125I-40000J0D01*
G01*
X7739734Y-8186125D02*
X7739734Y-9291125D01*
X22117234Y-5593000D02*
X22106782Y-5593097D01*
X22095920Y-5593776D01*
X22085910Y-5595339D01*
X22078176Y-5597360D01*
X22117234Y-5593000D02*
X23922234Y-5593000D01*
X5829094Y-5892066D02*
X5832796Y-5882408D01*
X5837683Y-5873298D01*
X5843770Y-5864693D01*
X5845132Y-5863029D01*
X24222234Y-7428937D02*
G75*
G02*
X23722234Y-7428937I-250000J0D01*
G01*
X23722234Y-7428937D02*
G75*
G02*
X24222234Y-7428937I250000J0D01*
G01*
X7819734Y-8186125D02*
X7819734Y-9291125D01*
X15439903Y-5402564D02*
X15444059Y-5411961D01*
X15446966Y-5421637D01*
X15448285Y-5428384D01*
X29732874Y-5415817D02*
X29729171Y-5406159D01*
X29724284Y-5397049D01*
X29718198Y-5388444D01*
X29716836Y-5386780D01*
X14209734Y-5354875D02*
X13544733Y-5354875D01*
X15349733Y-5354875D02*
X15360185Y-5354972D01*
X15371047Y-5355651D01*
X15381058Y-5357214D01*
X15388791Y-5359235D01*
X7739734Y-6786125D02*
G75*
G02*
X7819734Y-6786125I40000J0D01*
G01*
X11587422Y-5126580D02*
X11596820Y-5122424D01*
X11606495Y-5119517D01*
X11613242Y-5118199D01*
X33447234Y-4416750D02*
X5924733Y-4416750D01*
X20144139Y-5851523D02*
X20136604Y-5858588D01*
X20129490Y-5866998D01*
X20123774Y-5875687D01*
X20122064Y-5878813D01*
X27832234Y-5216750D02*
X27832234Y-5354875D01*
X27832234Y-5216750D02*
X27832137Y-5206298D01*
X27831458Y-5195436D01*
X27829895Y-5185426D01*
X27827874Y-5177692D01*
X27911250Y-14565985D02*
G75*
G02*
X27811250Y-14665980I-100010J15D01*
G01*
X23922234Y-5593000D02*
X23922234Y-5454875D01*
X25162234Y-4916750D02*
X28497234Y-4916750D01*
X7739734Y-6786125D02*
X7739734Y-7386125D01*
X25859139Y-5137149D02*
X25851603Y-5144213D01*
X25844490Y-5152623D01*
X25838774Y-5161312D01*
X25837064Y-5164439D01*
X11260717Y-11846125D02*
G75*
G02*
X11360715Y-11946125I3J-99995D01*
G01*
X33545785Y-11572616D02*
X33546880Y-11562413D01*
X33547219Y-11551735D01*
X33547234Y-11546125D01*
X7819734Y-6586125D02*
G75*
G02*
X7739734Y-6586125I-40000J0D01*
G01*
X18038788Y-14465985D02*
X18028513Y-14465981D01*
X18018488Y-14464722D01*
X18011786Y-14463196D01*
X15448285Y-5428384D02*
X15449380Y-5438587D01*
X15449718Y-5449265D01*
X15449733Y-5454875D01*
X5845132Y-5863029D02*
X5852197Y-5855494D01*
X5860607Y-5848380D01*
X5869295Y-5842664D01*
X5872422Y-5840954D01*
X15417829Y-5375274D02*
X15425364Y-5382338D01*
X15432477Y-5390748D01*
X15438194Y-5399437D01*
X15439903Y-5402564D01*
X33547234Y-4816750D02*
G75*
G02*
X33447234Y-4916754I-100004J0D01*
G01*
X19198792Y-5835485D02*
X19208450Y-5839188D01*
X19217559Y-5844075D01*
X19226165Y-5850161D01*
X19227829Y-5851523D01*
X33547234Y-11946125D02*
X33547234Y-15065985D01*
X20112234Y-11804868D02*
X20112234Y-11348000D01*
X9639094Y-5415817D02*
X9642796Y-5406159D01*
X9647683Y-5397049D01*
X9653770Y-5388444D01*
X9655132Y-5386780D01*
X7739734Y-5981124D02*
X7739734Y-6586125D01*
X29737234Y-5454875D02*
X29737234Y-5831125D01*
X20869734Y-7166312D02*
G75*
G02*
X20809738Y-7106312I16J60012D01*
G01*
X30127734Y-7786125D02*
G75*
G02*
X29627734Y-7786125I-250000J0D01*
G01*
X29627734Y-7786125D02*
G75*
G02*
X30127734Y-7786125I250000J0D01*
G01*
X33542873Y-5892066D02*
X33539171Y-5882408D01*
X33534284Y-5873298D01*
X33528198Y-5864693D01*
X33526835Y-5863029D01*
D11*
X21971968Y-9712500D02*
G75*
G02*
X22021970Y-9762500I2J-50000D01*
G01*
D10*
X11539733Y-5216750D02*
X11539830Y-5206298D01*
X11540509Y-5195436D01*
X11542072Y-5185426D01*
X11544094Y-5177692D01*
X26809440Y-13315395D02*
X23073986Y-13706030D01*
X10874733Y-5354875D02*
X10874733Y-4916750D01*
X10399734Y-5354875D02*
X10399734Y-4916750D01*
X7819734Y-5981124D02*
X7819734Y-6586125D01*
X5824733Y-4516750D02*
G75*
G02*
X5924733Y-4416754I99997J0D01*
G01*
X20112234Y-11348000D02*
X20112234Y-10678000D01*
X11613242Y-5118199D02*
X11623445Y-5117104D01*
X11634123Y-5116765D01*
X11639733Y-5116750D01*
X7819734Y-10696126D02*
G75*
G02*
X7739734Y-10696126I-40000J0D01*
G01*
X15649734Y-7428937D02*
G75*
G02*
X15149734Y-7428937I-250000J0D01*
G01*
X15149734Y-7428937D02*
G75*
G02*
X15649734Y-7428937I250000J0D01*
G01*
X5924733Y-11646125D02*
X6589734Y-11646125D01*
X31552234Y-10896126D02*
G75*
G02*
X31632234Y-10896126I40000J0D01*
G01*
X27811250Y-11646125D02*
X26885864Y-13265551D01*
X7819734Y-9291125D02*
G75*
G02*
X7739734Y-9291125I-40000J0D01*
G01*
X20112234Y-11804868D02*
X20112481Y-11815362D01*
X20113878Y-11825667D01*
X33447234Y-11846125D02*
G75*
G02*
X33547235Y-11946125I6J-99995D01*
G01*
X12562527Y-13315395D02*
X16297982Y-13706030D01*
X18919234Y-5831125D02*
X17995234Y-5831125D01*
X25888176Y-5121110D02*
X25878518Y-5124813D01*
X25869408Y-5129700D01*
X25860803Y-5135786D01*
X25859139Y-5137149D01*
X5924733Y-4916750D02*
G75*
G02*
X5824730Y-4816750I-4J100000D01*
G01*
X18012234Y-7166312D02*
G75*
G02*
X17952238Y-7106312I16J60012D01*
G01*
X20112234Y-6848000D02*
X20112234Y-5931125D01*
X10399734Y-4916750D02*
X5924733Y-4916750D01*
X32307234Y-11646125D02*
X32307234Y-11846129D01*
X31552234Y-10091125D02*
G75*
G02*
X31632234Y-10091125I40000J0D01*
G01*
X21272869Y-14436789D02*
X21280164Y-14444122D01*
X21288321Y-14450473D01*
X21297370Y-14455878D01*
X21299289Y-14456848D01*
X31552234Y-8186125D02*
X31552234Y-9291125D01*
X9744234Y-9691125D02*
G75*
G02*
X9244234Y-9691125I-250000J0D01*
G01*
X9244234Y-9691125D02*
G75*
G02*
X9744234Y-9691125I250000J0D01*
G01*
X5834563Y-11598436D02*
X5830408Y-11589039D01*
X5827500Y-11579363D01*
X5826182Y-11572616D01*
X33447234Y-4416750D02*
G75*
G02*
X33547230Y-4516750I-4J-100000D01*
G01*
X7739734Y-10091125D02*
G75*
G02*
X7819734Y-10091125I40000J0D01*
G01*
X7739734Y-5981124D02*
G75*
G02*
X7819734Y-5981124I40000J0D01*
G01*
D11*
X18025000Y-9762500D02*
X18025000Y-10337500D01*
D10*
X31632234Y-6586125D02*
G75*
G02*
X31552234Y-6586125I-40000J0D01*
G01*
X25162234Y-5354875D02*
X25827234Y-5354875D01*
X22078176Y-5597360D02*
X22068518Y-5601063D01*
X22059408Y-5605950D01*
X22050803Y-5612036D01*
X22049139Y-5613398D01*
X21359734Y-7166312D02*
X20869734Y-7166312D01*
X20809734Y-6471688D02*
G75*
G02*
X20869734Y-6411694I59996J-2D01*
G01*
X5898242Y-5832573D02*
X5908445Y-5831478D01*
X5919123Y-5831139D01*
X5924734Y-5831124D01*
X13483791Y-5121110D02*
X13493450Y-5124813D01*
X13502559Y-5129700D01*
X13511164Y-5135786D01*
X13512829Y-5137149D01*
X20212234Y-5831125D02*
X20201782Y-5831222D01*
X20190920Y-5831901D01*
X20180910Y-5833464D01*
X20173176Y-5835485D01*
X7064734Y-11846129D02*
X8494734Y-11846129D01*
X21419734Y-7106312D02*
G75*
G02*
X21359734Y-7166314I-59994J-8D01*
G01*
X33547234Y-15065985D02*
G75*
G02*
X33447234Y-15165984I-100004J5D01*
G01*
X19259734Y-11348000D02*
X19259734Y-10678000D01*
X27784546Y-5126580D02*
X27775148Y-5122424D01*
X27765472Y-5119517D01*
X27758726Y-5118199D01*
X11360717Y-14565985D02*
X11360717Y-11946125D01*
X31632234Y-5981124D02*
X31632234Y-6586125D01*
X23923683Y-5428384D02*
X23922588Y-5438587D01*
X23922249Y-5449265D01*
X23922234Y-5454875D01*
X14684734Y-4916750D02*
X24687234Y-4916750D01*
X13544733Y-5354875D02*
X13544733Y-5216750D01*
X21253070Y-14402840D02*
X21257390Y-14412358D01*
X21262408Y-14422015D01*
X21267890Y-14430536D01*
X21272869Y-14436789D01*
X30877234Y-11646125D02*
X30877234Y-11846129D01*
D11*
X17350000Y-9762500D02*
G75*
G02*
X17400000Y-9712500I50000J0D01*
G01*
D10*
X24687234Y-5354875D02*
X24687234Y-4916750D01*
X13543285Y-5190259D02*
X13544380Y-5200462D01*
X13544718Y-5211140D01*
X13544733Y-5216750D01*
X21376734Y-5831125D02*
X22017234Y-5831125D01*
X21299289Y-14456848D02*
X21308800Y-14460878D01*
X21319369Y-14463978D01*
X21329628Y-14465688D01*
X21333179Y-14465985D01*
X29737234Y-5454875D02*
X29737137Y-5444423D01*
X29736458Y-5433561D01*
X29734895Y-5423551D01*
X29732874Y-5415817D01*
X5924734Y-11846129D02*
X6589734Y-11846129D01*
D11*
X17975000Y-10387500D02*
X17400000Y-10387500D01*
D10*
X31632234Y-10091125D02*
X31632234Y-10696126D01*
X7739734Y-10896126D02*
G75*
G02*
X7819734Y-10896126I40000J0D01*
G01*
X18562234Y-7106312D02*
G75*
G02*
X18502234Y-7166314I-59994J-8D01*
G01*
X25162234Y-5354875D02*
X25162234Y-4916750D01*
X27811836Y-5148655D02*
X27804771Y-5141119D01*
X27796361Y-5134006D01*
X27787672Y-5128290D01*
X27784546Y-5126580D01*
X28972234Y-5354875D02*
X29637234Y-5354875D01*
X9634734Y-5454875D02*
X9634734Y-5831125D01*
X9708242Y-5356324D02*
X9718445Y-5355229D01*
X9729123Y-5354890D01*
X9734734Y-5354875D01*
X26870893Y-13287885D02*
X26877364Y-13279481D01*
X26883094Y-13270357D01*
X26885864Y-13265551D01*
X33447234Y-11646125D02*
X33457686Y-11646028D01*
X33468548Y-11645349D01*
X33478558Y-11643786D01*
X33486292Y-11641765D01*
X28011250Y-11846125D02*
X30402234Y-11846129D01*
X19159734Y-5831125D02*
X19170185Y-5831222D01*
X19181047Y-5831901D01*
X19191058Y-5833464D01*
X19198792Y-5835485D01*
X17353285Y-5666508D02*
X17354380Y-5676712D01*
X17354718Y-5687390D01*
X17354734Y-5693000D01*
X33537404Y-11598436D02*
X33541560Y-11589039D01*
X33544467Y-11579363D01*
X33545785Y-11572616D01*
X18502234Y-6411688D02*
G75*
G02*
X18562232Y-6471688I-4J-60002D01*
G01*
X13534903Y-5164439D02*
X13539059Y-5173836D01*
X13541966Y-5183512D01*
X13543285Y-5190259D01*
X29663726Y-5356324D02*
X29653522Y-5355229D01*
X29642844Y-5354890D01*
X29637234Y-5354875D01*
X7739734Y-8186125D02*
G75*
G02*
X7819734Y-8186125I40000J0D01*
G01*
X8029734Y-7786125D02*
G75*
G02*
X7529734Y-7786125I-250000J0D01*
G01*
X7529734Y-7786125D02*
G75*
G02*
X8029734Y-7786125I250000J0D01*
G01*
X30402234Y-11646125D02*
X27811250Y-11646125D01*
X17952234Y-7106312D02*
X17952234Y-6471688D01*
X17322829Y-5613398D02*
X17330364Y-5620463D01*
X17337477Y-5628873D01*
X17343194Y-5637562D01*
X17344904Y-5640688D01*
X22027064Y-5640688D02*
X22022908Y-5650086D01*
X22020001Y-5659762D01*
X22018683Y-5666508D01*
X28972234Y-4916750D02*
X33447234Y-4916750D01*
X27911250Y-11946125D02*
G75*
G02*
X28011250Y-11846120I100010J-5D01*
G01*
X5824734Y-5931124D02*
X5824831Y-5920672D01*
X5825510Y-5909810D01*
X5827072Y-5899800D01*
X5829094Y-5892066D01*
X23954139Y-5375274D02*
X23946603Y-5382338D01*
X23939490Y-5390748D01*
X23933774Y-5399437D01*
X23932064Y-5402564D01*
X10399734Y-5354875D02*
X9734734Y-5354875D01*
X17354734Y-5831125D02*
X17354734Y-5693000D01*
D11*
X18025000Y-10337500D02*
G75*
G02*
X17975000Y-10387500I-50000J0D01*
G01*
D10*
X17344904Y-5640688D02*
X17349059Y-5650086D01*
X17351966Y-5659762D01*
X17353285Y-5666508D01*
X19259734Y-10203000D02*
X19259734Y-10678000D01*
X30127734Y-9691125D02*
G75*
G02*
X29627734Y-9691125I-250000J0D01*
G01*
X29627734Y-9691125D02*
G75*
G02*
X30127734Y-9691125I250000J0D01*
G01*
X20113878Y-11825667D02*
X20116772Y-11835655D01*
X20120795Y-11845351D01*
D11*
X21346968Y-9762500D02*
G75*
G02*
X21396968Y-9712498I50002J0D01*
G01*
D10*
X24022234Y-5354875D02*
X24687234Y-5354875D01*
X5824733Y-15065985D02*
X5824733Y-11946125D01*
X14209734Y-5354875D02*
X14209734Y-4916750D01*
X33547234Y-5931124D02*
X33547234Y-11546125D01*
X20809734Y-7106312D02*
X20809734Y-6471688D01*
D11*
X21346968Y-10337500D02*
X21346968Y-9762500D01*
X22021968Y-10337500D02*
G75*
G02*
X21971968Y-10387498I-49998J0D01*
G01*
D10*
X19227829Y-5851523D02*
X19235364Y-5858588D01*
X19242477Y-5866998D01*
X19248194Y-5875687D01*
X19249904Y-5878813D01*
X33526835Y-5863029D02*
X33519771Y-5855494D01*
X33511361Y-5848380D01*
X33502672Y-5842664D01*
X33499545Y-5840954D01*
X31552234Y-8186125D02*
G75*
G02*
X31632234Y-8186125I40000J0D01*
G01*
X22017234Y-5831125D02*
X22017234Y-5693000D01*
D11*
X17400000Y-9712500D02*
X17975000Y-9712500D01*
D10*
X33547234Y-4816750D02*
X33547234Y-4516750D01*
X19258285Y-5904633D02*
X19259380Y-5914837D01*
X19259718Y-5925515D01*
X19259734Y-5931125D01*
X7819734Y-7386125D02*
G75*
G02*
X7739734Y-7386125I-40000J0D01*
G01*
X18562234Y-6471688D02*
X18562234Y-7106312D01*
X11539733Y-5354875D02*
X10874733Y-5354875D01*
X30877234Y-11846129D02*
X32307234Y-11846129D01*
X22049139Y-5613398D02*
X22041604Y-5620463D01*
X22034490Y-5628873D01*
X22028774Y-5637562D01*
X22027064Y-5640688D01*
X17293792Y-5597360D02*
X17303450Y-5601063D01*
X17312559Y-5605950D01*
X17321165Y-5612036D01*
X17322829Y-5613398D01*
X19259734Y-6848000D02*
X19259734Y-5931125D01*
X23073986Y-13706030D02*
X21384992Y-14453796D01*
X16297982Y-13706030D02*
X17986976Y-14453796D01*
X11460717Y-14665985D02*
G75*
G02*
X11360715Y-14565985I3J100005D01*
G01*
X33473725Y-5832573D02*
X33463522Y-5831478D01*
X33452844Y-5831139D01*
X33447234Y-5831124D01*
X32782234Y-11846129D02*
X33447234Y-11846125D01*
X18099099Y-14436789D02*
X18091803Y-14444122D01*
X18083647Y-14450473D01*
X18074598Y-14455878D01*
X18072678Y-14456848D01*
X23932064Y-5402564D02*
X23927908Y-5411961D01*
X23925001Y-5421637D01*
X23923683Y-5428384D01*
X17952234Y-6471688D02*
G75*
G02*
X18012234Y-6411694I59996J-2D01*
G01*
X18012234Y-6411688D02*
X18502234Y-6411688D01*
X33547234Y-5931124D02*
X33547137Y-5920672D01*
X33546458Y-5909810D01*
X33544895Y-5899800D01*
X33542873Y-5892066D01*
X17254734Y-5593000D02*
X17265185Y-5593097D01*
X17276047Y-5593776D01*
X17286058Y-5595339D01*
X17293792Y-5597360D01*
X19259734Y-6848000D02*
X19259734Y-10203000D01*
X12523926Y-13305787D02*
X12515165Y-13300570D01*
X12507086Y-13294085D01*
X12501075Y-13287885D01*
X18072678Y-14456848D02*
X18063168Y-14460878D01*
X18052598Y-14463978D01*
X18042339Y-14465688D01*
X18038788Y-14465985D01*
X18502234Y-7166312D02*
X18012234Y-7166312D01*
X31842234Y-7786125D02*
G75*
G02*
X31342234Y-7786125I-250000J0D01*
G01*
X31342234Y-7786125D02*
G75*
G02*
X31842234Y-7786125I250000J0D01*
G01*
X20122064Y-5878813D02*
X20117908Y-5888211D01*
X20115001Y-5897887D01*
X20113683Y-5904633D01*
X26809440Y-13315395D02*
X26819563Y-13314212D01*
X26830343Y-13312217D01*
X26840348Y-13309174D01*
X26848042Y-13305787D01*
X21419734Y-6471688D02*
X21419734Y-7106312D01*
X7819734Y-11496125D02*
G75*
G02*
X7739734Y-11496125I-40000J0D01*
G01*
D11*
X21971968Y-10387500D02*
X21396968Y-10387500D01*
D10*
X17254734Y-5593000D02*
X15449733Y-5593000D01*
X12562527Y-13315395D02*
X12552405Y-13314212D01*
X12541625Y-13312217D01*
X12531620Y-13309174D01*
X12523926Y-13305787D01*
X14684734Y-5354875D02*
X14684734Y-4916750D01*
X19259734Y-11804868D02*
X19259487Y-11815362D01*
X19258089Y-11825667D01*
X7064734Y-11646125D02*
X7064734Y-11846129D01*
X15449733Y-5593000D02*
X15449733Y-5454875D01*
X20173176Y-5835485D02*
X20163518Y-5839188D01*
X20154408Y-5844075D01*
X20145803Y-5850161D01*
X20144139Y-5851523D01*
X26848042Y-13305787D02*
X26856802Y-13300570D01*
X26864881Y-13294085D01*
X26870893Y-13287885D01*
D11*
X17400000Y-10387500D02*
G75*
G02*
X17350000Y-10337500I0J50000D01*
G01*
D10*
X20113683Y-5904633D02*
X20112588Y-5914837D01*
X20112249Y-5925515D01*
X20112234Y-5931125D01*
D11*
X17975000Y-9712500D02*
G75*
G02*
X18025000Y-9762500I0J-50000D01*
G01*
D10*
X5924733Y-15165985D02*
X33447234Y-15165985D01*
X15388791Y-5359235D02*
X15398450Y-5362938D01*
X15407559Y-5367825D01*
X15416164Y-5373911D01*
X15417829Y-5375274D01*
D11*
X21396968Y-10387500D02*
G75*
G02*
X21346970Y-10337500I2J50000D01*
G01*
X21396968Y-9712500D02*
X21971968Y-9712500D01*
D10*
X19159734Y-5831125D02*
X18919234Y-5831125D01*
X9744234Y-7786125D02*
G75*
G02*
X9244234Y-7786125I-250000J0D01*
G01*
X9244234Y-7786125D02*
G75*
G02*
X9744234Y-7786125I250000J0D01*
G01*
X9634734Y-5454875D02*
X9634831Y-5444423D01*
X9635510Y-5433561D01*
X9637072Y-5423551D01*
X9639094Y-5415817D01*
X11539733Y-5216750D02*
X11539733Y-5354875D01*
X20112234Y-10203000D02*
X20112234Y-10678000D01*
X31842234Y-9691125D02*
G75*
G02*
X31342234Y-9691125I-250000J0D01*
G01*
X31342234Y-9691125D02*
G75*
G02*
X31842234Y-9691125I250000J0D01*
G01*
X31552234Y-5981124D02*
G75*
G02*
X31632234Y-5981124I40000J0D01*
G01*
X19258089Y-11825667D02*
X19255196Y-11835655D01*
X19251173Y-11845351D01*
X20452734Y-5831125D02*
X21376734Y-5831125D01*
X5924733Y-11646125D02*
X5914282Y-11646028D01*
X5903420Y-11645349D01*
X5893409Y-11643786D01*
X5885676Y-11641765D01*
X31632234Y-6786125D02*
X31632234Y-7386125D01*
X12501075Y-13287885D02*
X12494603Y-13279481D01*
X12488873Y-13270357D01*
X12486104Y-13265551D01*
X9655132Y-5386780D02*
X9662197Y-5379244D01*
X9670607Y-5372131D01*
X9679295Y-5366415D01*
X9682422Y-5364705D01*
X33515330Y-11625726D02*
X33522865Y-11618662D01*
X33529978Y-11610252D01*
X33535694Y-11601563D01*
X33537404Y-11598436D01*
X18011786Y-14463196D02*
X18002013Y-14460067D01*
X17992112Y-14456054D01*
X17986976Y-14453796D01*
X15349733Y-5354875D02*
X14684733Y-5354875D01*
X33486292Y-11641765D02*
X33495950Y-11638062D01*
X33505060Y-11633175D01*
X33513665Y-11627089D01*
X33515330Y-11625726D01*
X13512829Y-5137149D02*
X13520364Y-5144213D01*
X13527477Y-5152623D01*
X13533194Y-5161312D01*
X13534903Y-5164439D01*
X11560717Y-11646125D02*
X12486104Y-13265551D01*
X22018683Y-5666508D02*
X22017588Y-5676712D01*
X22017249Y-5687390D01*
X22017234Y-5693000D01*
X8969734Y-11646125D02*
X11560717Y-11646125D01*
X15649733Y-11358000D02*
G75*
G02*
X15149733Y-11358000I-250000J0D01*
G01*
X15149733Y-11358000D02*
G75*
G02*
X15649733Y-11358000I250000J0D01*
G01*
X27827874Y-5177692D02*
X27824171Y-5168034D01*
X27819284Y-5158924D01*
X27813198Y-5150319D01*
X27811836Y-5148655D01*
X8029734Y-9691125D02*
G75*
G02*
X7529734Y-9691125I-250000J0D01*
G01*
X7529734Y-9691125D02*
G75*
G02*
X8029734Y-9691125I250000J0D01*
G01*
X5885676Y-11641765D02*
X5876017Y-11638062D01*
X5866908Y-11633175D01*
X5858302Y-11627089D01*
X5856638Y-11625726D01*
X31552234Y-10091125D02*
X31552234Y-10696126D01*
X21359734Y-6411688D02*
G75*
G02*
X21419732Y-6471688I-4J-60002D01*
G01*
X7739734Y-10896126D02*
X7739734Y-11496125D01*
X31632234Y-11496125D02*
G75*
G02*
X31552234Y-11496125I-40000J0D01*
G01*
X31552234Y-10896126D02*
X31552234Y-11496125D01*
X17995234Y-5831125D02*
X17354734Y-5831125D01*
X5856638Y-11625726D02*
X5849103Y-11618662D01*
X5841990Y-11610252D01*
X5836273Y-11601563D01*
X5834563Y-11598436D01*
X31632234Y-7386125D02*
G75*
G02*
X31552234Y-7386125I-40000J0D01*
G01*
X5872422Y-5840954D02*
X5881820Y-5836798D01*
X5891495Y-5833891D01*
X5898242Y-5832573D01*
X24022234Y-5354875D02*
X24011782Y-5354972D01*
X24000920Y-5355651D01*
X23990910Y-5357214D01*
X23983176Y-5359235D01*
X13444733Y-5116750D02*
X11639733Y-5116750D01*
X29716836Y-5386780D02*
X29709771Y-5379244D01*
X29701361Y-5372131D01*
X29692672Y-5366415D01*
X29689546Y-5364705D01*
X31632234Y-10696126D02*
G75*
G02*
X31552234Y-10696126I-40000J0D01*
G01*
X9634734Y-5831125D02*
X5924734Y-5831124D01*
X30877234Y-11646125D02*
X32307234Y-11646125D01*
D11*
X17350000Y-10337500D02*
X17350000Y-9762500D01*
D10*
X11544094Y-5177692D02*
X11547796Y-5168034D01*
X11552683Y-5158924D01*
X11558769Y-5150319D01*
X11560132Y-5148655D01*
X30402234Y-11646125D02*
X30402234Y-11846129D01*
X25927234Y-5116750D02*
X27732234Y-5116750D01*
X27832234Y-5354875D02*
X28497234Y-5354875D01*
X11560132Y-5148655D02*
X11567197Y-5141119D01*
X11575607Y-5134006D01*
X11584295Y-5128290D01*
X11587422Y-5126580D01*
X18118898Y-14402840D02*
X18114578Y-14412358D01*
X18109560Y-14422015D01*
X18104078Y-14430536D01*
X18099099Y-14436789D01*
X14209734Y-4916750D02*
X10874733Y-4916750D01*
X25927234Y-5116750D02*
X25916782Y-5116847D01*
X25905920Y-5117526D01*
X25895910Y-5119089D01*
X25888176Y-5121110D01*
X28497234Y-5354875D02*
X28497234Y-4916750D01*
X5824734Y-5931124D02*
X5824733Y-11546125D01*
X6589734Y-11646125D02*
X6589734Y-11846129D01*
X5826182Y-11572616D02*
X5825087Y-11562413D01*
X5824749Y-11551735D01*
X5824733Y-11546125D01*
X5824733Y-11946125D02*
G75*
G02*
X5924734Y-11846123I99997J5D01*
G01*
X21253070Y-14402840D02*
X20120795Y-11845351D01*
X33499545Y-5840954D02*
X33490148Y-5836798D01*
X33480472Y-5833891D01*
X33473725Y-5832573D01*
X21333179Y-14465985D02*
X21343455Y-14465981D01*
X21353479Y-14464722D01*
X21360182Y-14463196D01*
X20112234Y-6848000D02*
X20112234Y-10203000D01*
X8494734Y-11646125D02*
X8494734Y-11846129D01*
X7064734Y-11646125D02*
X8494734Y-11646125D01*
X20212234Y-5831125D02*
X20452734Y-5831125D01*
X23983176Y-5359235D02*
X23973518Y-5362938D01*
X23964408Y-5367825D01*
X23955803Y-5373911D01*
X23954139Y-5375274D01*
X9682422Y-5364705D02*
X9691820Y-5360549D01*
X9701495Y-5357642D01*
X9708242Y-5356324D01*
X19249904Y-5878813D02*
X19254059Y-5888211D01*
X19256966Y-5897887D01*
X19258285Y-5904633D01*
D11*
X22021968Y-9762500D02*
X22021968Y-10337500D01*
D10*
X18118898Y-14402840D02*
X19251173Y-11845351D01*
X7819734Y-10896126D02*
X7819734Y-11496125D01*
X24222234Y-11358000D02*
G75*
G02*
X23722234Y-11358000I-250000J0D01*
G01*
X23722234Y-11358000D02*
G75*
G02*
X24222234Y-11358000I250000J0D01*
G01*
X32782234Y-11646125D02*
X33447234Y-11646125D01*
D12*
D10*
X7500000Y-9470000D02*
X7540000Y-9510000D01*
X7540000Y-9470000D02*
X7500000Y-9510000D01*
X8140000Y-9610000D02*
X8180000Y-9650000D01*
X8180000Y-9610000D02*
X8140000Y-9650000D01*
X8920000Y-7620000D02*
X8960000Y-7660000D01*
X8960000Y-7620000D02*
X8920000Y-7660000D01*
X9166250Y-7586125D02*
X9206250Y-7626125D01*
X9206250Y-7586125D02*
X9166250Y-7626125D01*
X11441734Y-7085575D02*
X11481734Y-7125575D01*
X11481734Y-7085575D02*
X11441734Y-7125575D01*
X13346734Y-7129575D02*
X13386734Y-7169575D01*
X13386734Y-7129575D02*
X13346734Y-7169575D01*
X15066250Y-7122450D02*
X15106250Y-7162450D01*
X15106250Y-7122450D02*
X15066250Y-7162450D01*
X17230000Y-9707647D02*
X17270000Y-9747647D01*
X17270000Y-9707647D02*
X17230000Y-9747647D01*
X17660000Y-7160000D02*
X17700000Y-7200000D01*
X17700000Y-7160000D02*
X17660000Y-7200000D01*
X17882500Y-7487500D02*
X17922500Y-7527500D01*
X17922500Y-7487500D02*
X17882500Y-7527500D01*
X17885000Y-7580000D02*
X17925000Y-7620000D01*
X17925000Y-7580000D02*
X17885000Y-7620000D01*
X18160000Y-6200000D02*
X18200000Y-6240000D01*
X18200000Y-6200000D02*
X18160000Y-6240000D01*
X18491234Y-9030000D02*
X18531234Y-9070000D01*
X18531234Y-9030000D02*
X18491234Y-9070000D01*
X18630000Y-6340000D02*
X18670000Y-6380000D01*
X18670000Y-6340000D02*
X18630000Y-6380000D01*
X18630000Y-8980000D02*
X18670000Y-9020000D01*
X18670000Y-8980000D02*
X18630000Y-9020000D01*
X18680000Y-9230000D02*
X18720000Y-9270000D01*
X18720000Y-9230000D02*
X18680000Y-9270000D01*
X18745234Y-8980000D02*
X18785234Y-9020000D01*
X18785234Y-8980000D02*
X18745234Y-9020000D01*
X18830000Y-9065000D02*
X18870000Y-9105000D01*
X18870000Y-9065000D02*
X18830000Y-9105000D01*
X20605000Y-7205000D02*
X20645000Y-7245000D01*
X20645000Y-7205000D02*
X20605000Y-7245000D01*
X20630000Y-7455000D02*
X20670000Y-7495000D01*
X20670000Y-7455000D02*
X20630000Y-7495000D01*
X20630000Y-7710000D02*
X20670000Y-7750000D01*
X20670000Y-7710000D02*
X20630000Y-7750000D01*
X20630000Y-7964000D02*
X20670000Y-8004000D01*
X20670000Y-7964000D02*
X20630000Y-8004000D01*
X20630000Y-8218000D02*
X20670000Y-8258000D01*
X20670000Y-8218000D02*
X20630000Y-8258000D01*
X20630000Y-8472000D02*
X20670000Y-8512000D01*
X20670000Y-8472000D02*
X20630000Y-8512000D01*
X20630000Y-8726000D02*
X20670000Y-8766000D01*
X20670000Y-8726000D02*
X20630000Y-8766000D01*
X21020000Y-6200000D02*
X21060000Y-6240000D01*
X21060000Y-6200000D02*
X21020000Y-6240000D01*
X21287234Y-8980000D02*
X21327234Y-9020000D01*
X21327234Y-8980000D02*
X21287234Y-9020000D01*
X21348734Y-9200000D02*
X21388734Y-9240000D01*
X21388734Y-9200000D02*
X21348734Y-9240000D01*
X21425000Y-8787450D02*
X21465000Y-8827450D01*
X21465000Y-8787450D02*
X21425000Y-8827450D01*
X21430000Y-8870000D02*
X21470000Y-8910000D01*
X21470000Y-8870000D02*
X21430000Y-8910000D01*
X21530000Y-6330000D02*
X21570000Y-6370000D01*
X21570000Y-6330000D02*
X21530000Y-6370000D01*
X21530000Y-7230000D02*
X21570000Y-7270000D01*
X21570000Y-7230000D02*
X21530000Y-7270000D01*
X22020000Y-8150000D02*
X22060000Y-8190000D01*
X22060000Y-8150000D02*
X22020000Y-8190000D01*
X22085500Y-8220000D02*
X22125500Y-8260000D01*
X22125500Y-8220000D02*
X22085500Y-8260000D01*
X22100000Y-7550000D02*
X22140000Y-7590000D01*
X22140000Y-7550000D02*
X22100000Y-7590000D01*
X22155000Y-7455000D02*
X22195000Y-7495000D01*
X22195000Y-7455000D02*
X22155000Y-7495000D01*
X22200000Y-7611500D02*
X22240000Y-7651500D01*
X22240000Y-7611500D02*
X22200000Y-7651500D01*
X25540000Y-7212450D02*
X25580000Y-7252450D01*
X25580000Y-7212450D02*
X25540000Y-7252450D01*
X27445000Y-7168450D02*
X27485000Y-7208450D01*
X27485000Y-7168450D02*
X27445000Y-7208450D01*
X29350000Y-7204450D02*
X29390000Y-7244450D01*
X29390000Y-7204450D02*
X29350000Y-7244450D01*
X31185000Y-7730000D02*
X31225000Y-7770000D01*
X31225000Y-7730000D02*
X31185000Y-7770000D01*
X31291000Y-7579000D02*
X31331000Y-7619000D01*
X31331000Y-7579000D02*
X31291000Y-7619000D01*
X18732500Y-9950000D02*
G75*
G02*
X18657500Y-9950000I-37500J0D01*
G01*
X18657500Y-9950000D02*
G75*
G02*
X18732500Y-9950000I37500J0D01*
G01*
X18732500Y-10150000D02*
G75*
G02*
X18657500Y-10150000I-37500J0D01*
G01*
X18657500Y-10150000D02*
G75*
G02*
X18732500Y-10150000I37500J0D01*
G01*
X20714468Y-9950000D02*
G75*
G02*
X20639468Y-9950000I-37500J0D01*
G01*
X20639468Y-9950000D02*
G75*
G02*
X20714468Y-9950000I37500J0D01*
G01*
X20714468Y-10150000D02*
G75*
G02*
X20639468Y-10150000I-37500J0D01*
G01*
X20639468Y-10150000D02*
G75*
G02*
X20714468Y-10150000I37500J0D01*
G01*
X6071734Y-6232625D02*
X6071734Y-6312625D01*
X6031734Y-6272625D02*
X6111734Y-6272625D01*
X6071734Y-6994625D02*
X6071734Y-7074625D01*
X6031734Y-7034625D02*
X6111734Y-7034625D01*
X6071734Y-8137625D02*
X6071734Y-8217625D01*
X6031734Y-8177625D02*
X6111734Y-8177625D01*
X6071734Y-8899625D02*
X6071734Y-8979625D01*
X6031734Y-8939625D02*
X6111734Y-8939625D01*
X6071734Y-10042625D02*
X6071734Y-10122625D01*
X6031734Y-10082625D02*
X6111734Y-10082625D01*
X6071734Y-10804625D02*
X6071734Y-10884625D01*
X6031734Y-10844625D02*
X6111734Y-10844625D01*
X7976734Y-6232625D02*
X7976734Y-6312625D01*
X7936734Y-6272625D02*
X8016734Y-6272625D01*
X7976734Y-6994625D02*
X7976734Y-7074625D01*
X7936734Y-7034625D02*
X8016734Y-7034625D01*
X7976734Y-8137625D02*
X7976734Y-8217625D01*
X7936734Y-8177625D02*
X8016734Y-8177625D01*
X7976734Y-8899625D02*
X7976734Y-8979625D01*
X7936734Y-8939625D02*
X8016734Y-8939625D01*
X7976734Y-10042625D02*
X7976734Y-10122625D01*
X7936734Y-10082625D02*
X8016734Y-10082625D01*
X7976734Y-10804625D02*
X7976734Y-10884625D01*
X7936734Y-10844625D02*
X8016734Y-10844625D01*
X9881734Y-5756375D02*
X9881734Y-5836375D01*
X9841734Y-5796375D02*
X9921734Y-5796375D01*
X9881734Y-6518375D02*
X9881734Y-6598375D01*
X9841734Y-6558375D02*
X9921734Y-6558375D01*
X9881734Y-7661375D02*
X9881734Y-7741375D01*
X9841734Y-7701375D02*
X9921734Y-7701375D01*
X9881734Y-8423375D02*
X9881734Y-8503375D01*
X9841734Y-8463375D02*
X9921734Y-8463375D01*
X9881734Y-9566375D02*
X9881734Y-9646375D01*
X9841734Y-9606375D02*
X9921734Y-9606375D01*
X9881734Y-10328375D02*
X9881734Y-10408375D01*
X9841734Y-10368375D02*
X9921734Y-10368375D01*
X11786734Y-5518250D02*
X11786734Y-5598250D01*
X11746734Y-5558250D02*
X11826734Y-5558250D01*
X11786734Y-6280250D02*
X11786734Y-6360250D01*
X11746734Y-6320250D02*
X11826734Y-6320250D01*
X11786734Y-7423250D02*
X11786734Y-7503250D01*
X11746734Y-7463250D02*
X11826734Y-7463250D01*
X11786734Y-8185250D02*
X11786734Y-8265250D01*
X11746734Y-8225250D02*
X11826734Y-8225250D01*
X11786734Y-9328250D02*
X11786734Y-9408250D01*
X11746734Y-9368250D02*
X11826734Y-9368250D01*
X11786734Y-10090250D02*
X11786734Y-10170250D01*
X11746734Y-10130250D02*
X11826734Y-10130250D01*
X13691734Y-5756375D02*
X13691734Y-5836375D01*
X13651734Y-5796375D02*
X13731734Y-5796375D01*
X13691734Y-6518375D02*
X13691734Y-6598375D01*
X13651734Y-6558375D02*
X13731734Y-6558375D01*
X13691734Y-7661375D02*
X13691734Y-7741375D01*
X13651734Y-7701375D02*
X13731734Y-7701375D01*
X13691734Y-8423375D02*
X13691734Y-8503375D01*
X13651734Y-8463375D02*
X13731734Y-8463375D01*
X13691734Y-9566375D02*
X13691734Y-9646375D01*
X13651734Y-9606375D02*
X13731734Y-9606375D01*
X13691734Y-10328375D02*
X13691734Y-10408375D01*
X13651734Y-10368375D02*
X13731734Y-10368375D01*
X14730000Y-11629000D02*
X14730000Y-11709000D01*
X14690000Y-11669000D02*
X14770000Y-11669000D01*
X14730000Y-12391000D02*
X14730000Y-12471000D01*
X14690000Y-12431000D02*
X14770000Y-12431000D01*
X15596734Y-5959000D02*
X15596734Y-6039000D01*
X15556734Y-5999000D02*
X15636734Y-5999000D01*
X15596734Y-6721000D02*
X15596734Y-6801000D01*
X15556734Y-6761000D02*
X15636734Y-6761000D01*
X15596734Y-7899500D02*
X15596734Y-7979500D01*
X15556734Y-7939500D02*
X15636734Y-7939500D01*
X15596734Y-8661500D02*
X15596734Y-8741500D01*
X15556734Y-8701500D02*
X15636734Y-8701500D01*
X15596734Y-9804500D02*
X15596734Y-9884500D01*
X15556734Y-9844500D02*
X15636734Y-9844500D01*
X15596734Y-10566500D02*
X15596734Y-10646500D01*
X15556734Y-10606500D02*
X15636734Y-10606500D01*
X16530000Y-11249000D02*
X16530000Y-11329000D01*
X16490000Y-11289000D02*
X16570000Y-11289000D01*
X16530000Y-12011000D02*
X16530000Y-12091000D01*
X16490000Y-12051000D02*
X16570000Y-12051000D01*
X16930000Y-11249000D02*
X16930000Y-11329000D01*
X16890000Y-11289000D02*
X16970000Y-11289000D01*
X16930000Y-12011000D02*
X16930000Y-12091000D01*
X16890000Y-12051000D02*
X16970000Y-12051000D01*
X22264234Y-5994500D02*
X22264234Y-6074500D01*
X22224234Y-6034500D02*
X22304234Y-6034500D01*
X22264234Y-6756500D02*
X22264234Y-6836500D01*
X22224234Y-6796500D02*
X22304234Y-6796500D01*
X22264234Y-7899500D02*
X22264234Y-7979500D01*
X22224234Y-7939500D02*
X22304234Y-7939500D01*
X22264234Y-8661500D02*
X22264234Y-8741500D01*
X22224234Y-8701500D02*
X22304234Y-8701500D01*
X22264234Y-9804500D02*
X22264234Y-9884500D01*
X22224234Y-9844500D02*
X22304234Y-9844500D01*
X22264234Y-10566500D02*
X22264234Y-10646500D01*
X22224234Y-10606500D02*
X22304234Y-10606500D01*
X22441968Y-11249000D02*
X22441968Y-11329000D01*
X22401968Y-11289000D02*
X22481968Y-11289000D01*
X22441968Y-12011000D02*
X22441968Y-12091000D01*
X22401968Y-12051000D02*
X22481968Y-12051000D01*
X22841968Y-11249000D02*
X22841968Y-11329000D01*
X22801968Y-11289000D02*
X22881968Y-11289000D01*
X22841968Y-12011000D02*
X22841968Y-12091000D01*
X22801968Y-12051000D02*
X22881968Y-12051000D01*
X24102234Y-7758125D02*
X24102234Y-7838125D01*
X24062234Y-7798125D02*
X24142234Y-7798125D01*
X24102234Y-8520125D02*
X24102234Y-8600125D01*
X24062234Y-8560125D02*
X24142234Y-8560125D01*
X24169234Y-5756375D02*
X24169234Y-5836375D01*
X24129234Y-5796375D02*
X24209234Y-5796375D01*
X24169234Y-6518375D02*
X24169234Y-6598375D01*
X24129234Y-6558375D02*
X24209234Y-6558375D01*
X24169234Y-9566375D02*
X24169234Y-9646375D01*
X24129234Y-9606375D02*
X24209234Y-9606375D01*
X24169234Y-10328375D02*
X24169234Y-10408375D01*
X24129234Y-10368375D02*
X24209234Y-10368375D01*
X25087234Y-11403125D02*
X25087234Y-11483125D01*
X25047234Y-11443125D02*
X25127234Y-11443125D01*
X25087234Y-12165125D02*
X25087234Y-12245125D01*
X25047234Y-12205125D02*
X25127234Y-12205125D01*
X26074234Y-5518250D02*
X26074234Y-5598250D01*
X26034234Y-5558250D02*
X26114234Y-5558250D01*
X26074234Y-6280250D02*
X26074234Y-6360250D01*
X26034234Y-6320250D02*
X26114234Y-6320250D01*
X26074234Y-7423250D02*
X26074234Y-7503250D01*
X26034234Y-7463250D02*
X26114234Y-7463250D01*
X26074234Y-8185250D02*
X26074234Y-8265250D01*
X26034234Y-8225250D02*
X26114234Y-8225250D01*
X26074234Y-9328250D02*
X26074234Y-9408250D01*
X26034234Y-9368250D02*
X26114234Y-9368250D01*
X26074234Y-10090250D02*
X26074234Y-10170250D01*
X26034234Y-10130250D02*
X26114234Y-10130250D01*
X27979234Y-5756375D02*
X27979234Y-5836375D01*
X27939234Y-5796375D02*
X28019234Y-5796375D01*
X27979234Y-6518375D02*
X27979234Y-6598375D01*
X27939234Y-6558375D02*
X28019234Y-6558375D01*
X27979234Y-7661375D02*
X27979234Y-7741375D01*
X27939234Y-7701375D02*
X28019234Y-7701375D01*
X27979234Y-8423375D02*
X27979234Y-8503375D01*
X27939234Y-8463375D02*
X28019234Y-8463375D01*
X27979234Y-9566375D02*
X27979234Y-9646375D01*
X27939234Y-9606375D02*
X28019234Y-9606375D01*
X27979234Y-10328375D02*
X27979234Y-10408375D01*
X27939234Y-10368375D02*
X28019234Y-10368375D01*
X29884234Y-6232625D02*
X29884234Y-6312625D01*
X29844234Y-6272625D02*
X29924234Y-6272625D01*
X29884234Y-6994625D02*
X29884234Y-7074625D01*
X29844234Y-7034625D02*
X29924234Y-7034625D01*
X29884234Y-8152625D02*
X29884234Y-8232625D01*
X29844234Y-8192625D02*
X29924234Y-8192625D01*
X29884234Y-8914625D02*
X29884234Y-8994625D01*
X29844234Y-8954625D02*
X29924234Y-8954625D01*
X29884234Y-10057625D02*
X29884234Y-10137625D01*
X29844234Y-10097625D02*
X29924234Y-10097625D01*
X29884234Y-10819625D02*
X29884234Y-10899625D01*
X29844234Y-10859625D02*
X29924234Y-10859625D01*
X31789234Y-6232625D02*
X31789234Y-6312625D01*
X31749234Y-6272625D02*
X31829234Y-6272625D01*
X31789234Y-6994625D02*
X31789234Y-7074625D01*
X31749234Y-7034625D02*
X31829234Y-7034625D01*
X31789234Y-8137625D02*
X31789234Y-8217625D01*
X31749234Y-8177625D02*
X31829234Y-8177625D01*
X31789234Y-8899625D02*
X31789234Y-8979625D01*
X31749234Y-8939625D02*
X31829234Y-8939625D01*
X31789234Y-10042625D02*
X31789234Y-10122625D01*
X31749234Y-10082625D02*
X31829234Y-10082625D01*
X31789234Y-10804625D02*
X31789234Y-10884625D01*
X31749234Y-10844625D02*
X31829234Y-10844625D01*
X18161054Y-10589445D02*
X18161054Y-10525805D01*
X18097414Y-10525805D01*
X18097414Y-10589445D01*
X18161054Y-10589445D01*
X18149234Y-10512625D02*
X18109234Y-10512625D01*
X18109234Y-10602625D02*
G75*
G02*
X18109234Y-10512625I0J45000D01*
G01*
X18109234Y-10602625D02*
X18149234Y-10602625D01*
X18149234Y-10602625D02*
G75*
G03*
X18149234Y-10512625I0J45000D01*
G01*
X18271054Y-11049445D02*
X18271054Y-10985805D01*
X18207414Y-10985805D01*
X18207414Y-11049445D01*
X18271054Y-11049445D01*
X18259234Y-10972625D02*
X18219234Y-10972625D01*
X18219234Y-11062625D02*
G75*
G02*
X18219234Y-10972625I0J45000D01*
G01*
X18219234Y-11062625D02*
X18259234Y-11062625D01*
X18259234Y-11062625D02*
G75*
G03*
X18259234Y-10972625I0J45000D01*
G01*
X18671054Y-11049445D02*
X18671054Y-10985805D01*
X18607414Y-10985805D01*
X18607414Y-11049445D01*
X18671054Y-11049445D01*
X18659234Y-10972625D02*
X18619234Y-10972625D01*
X18619234Y-11062625D02*
G75*
G02*
X18619234Y-10972625I0J45000D01*
G01*
X18619234Y-11062625D02*
X18659234Y-11062625D01*
X18659234Y-11062625D02*
G75*
G03*
X18659234Y-10972625I0J45000D01*
G01*
X18971054Y-11049445D02*
X18971054Y-10985805D01*
X18907414Y-10985805D01*
X18907414Y-11049445D01*
X18971054Y-11049445D01*
X18959234Y-10972625D02*
X18919234Y-10972625D01*
X18919234Y-11062625D02*
G75*
G02*
X18919234Y-10972625I0J45000D01*
G01*
X18919234Y-11062625D02*
X18959234Y-11062625D01*
X18959234Y-11062625D02*
G75*
G03*
X18959234Y-10972625I0J45000D01*
G01*
X20464554Y-10589445D02*
X20464554Y-10525805D01*
X20400914Y-10525805D01*
X20400914Y-10589445D01*
X20464554Y-10589445D01*
X20412734Y-10602625D02*
X20452734Y-10602625D01*
X20452734Y-10512625D02*
G75*
G02*
X20452734Y-10602625I0J-45000D01*
G01*
X20452734Y-10512625D02*
X20412734Y-10512625D01*
X20412734Y-10512625D02*
G75*
G03*
X20412734Y-10602625I0J-45000D01*
G01*
X20764554Y-10589445D02*
X20764554Y-10525805D01*
X20700914Y-10525805D01*
X20700914Y-10589445D01*
X20764554Y-10589445D01*
X20712734Y-10602625D02*
X20752734Y-10602625D01*
X20752734Y-10512625D02*
G75*
G02*
X20752734Y-10602625I0J-45000D01*
G01*
X20752734Y-10512625D02*
X20712734Y-10512625D01*
X20712734Y-10512625D02*
G75*
G03*
X20712734Y-10602625I0J-45000D01*
G01*
X21164554Y-10589445D02*
X21164554Y-10525805D01*
X21100914Y-10525805D01*
X21100914Y-10589445D01*
X21164554Y-10589445D01*
X21112734Y-10602625D02*
X21152734Y-10602625D01*
X21152734Y-10512625D02*
G75*
G02*
X21152734Y-10602625I0J-45000D01*
G01*
X21152734Y-10512625D02*
X21112734Y-10512625D01*
X21112734Y-10512625D02*
G75*
G03*
X21112734Y-10602625I0J-45000D01*
G01*
X21274554Y-11049445D02*
X21274554Y-10985805D01*
X21210914Y-10985805D01*
X21210914Y-11049445D01*
X21274554Y-11049445D01*
X21222734Y-11062625D02*
X21262734Y-11062625D01*
X21262734Y-10972625D02*
G75*
G02*
X21262734Y-11062625I0J-45000D01*
G01*
X21262734Y-10972625D02*
X21222734Y-10972625D01*
X21222734Y-10972625D02*
G75*
G03*
X21222734Y-11062625I0J-45000D01*
G01*
X17495234Y-6382000D02*
X17545234Y-6332000D01*
X17495234Y-6282000D01*
X17445234Y-6332000D01*
X17495234Y-6382000D01*
X17495234Y-6636000D02*
X17545234Y-6586000D01*
X17495234Y-6536000D01*
X17445234Y-6586000D01*
X17495234Y-6636000D01*
X17495234Y-6890000D02*
X17545234Y-6840000D01*
X17495234Y-6790000D01*
X17445234Y-6840000D01*
X17495234Y-6890000D01*
X17495234Y-7144000D02*
X17545234Y-7094000D01*
X17495234Y-7044000D01*
X17445234Y-7094000D01*
X17495234Y-7144000D01*
X17495234Y-7398000D02*
X17545234Y-7348000D01*
X17495234Y-7298000D01*
X17445234Y-7348000D01*
X17495234Y-7398000D01*
X17495234Y-7652000D02*
X17545234Y-7602000D01*
X17495234Y-7552000D01*
X17445234Y-7602000D01*
X17495234Y-7652000D01*
X17495234Y-7906000D02*
X17545234Y-7856000D01*
X17495234Y-7806000D01*
X17445234Y-7856000D01*
X17495234Y-7906000D01*
X17495234Y-8160000D02*
X17545234Y-8110000D01*
X17495234Y-8060000D01*
X17445234Y-8110000D01*
X17495234Y-8160000D01*
X17495234Y-8414000D02*
X17545234Y-8364000D01*
X17495234Y-8314000D01*
X17445234Y-8364000D01*
X17495234Y-8414000D01*
X17495234Y-8668000D02*
X17545234Y-8618000D01*
X17495234Y-8568000D01*
X17445234Y-8618000D01*
X17495234Y-8668000D01*
X17495234Y-8922000D02*
X17545234Y-8872000D01*
X17495234Y-8822000D01*
X17445234Y-8872000D01*
X17495234Y-8922000D01*
X17495234Y-9176000D02*
X17545234Y-9126000D01*
X17495234Y-9076000D01*
X17445234Y-9126000D01*
X17495234Y-9176000D01*
X19019234Y-6382000D02*
X19069234Y-6332000D01*
X19019234Y-6282000D01*
X18969234Y-6332000D01*
X19019234Y-6382000D01*
X19019234Y-6636000D02*
X19069234Y-6586000D01*
X19019234Y-6536000D01*
X18969234Y-6586000D01*
X19019234Y-6636000D01*
X19019234Y-6890000D02*
X19069234Y-6840000D01*
X19019234Y-6790000D01*
X18969234Y-6840000D01*
X19019234Y-6890000D01*
X19019234Y-7144000D02*
X19069234Y-7094000D01*
X19019234Y-7044000D01*
X18969234Y-7094000D01*
X19019234Y-7144000D01*
X19019234Y-7398000D02*
X19069234Y-7348000D01*
X19019234Y-7298000D01*
X18969234Y-7348000D01*
X19019234Y-7398000D01*
X19019234Y-7652000D02*
X19069234Y-7602000D01*
X19019234Y-7552000D01*
X18969234Y-7602000D01*
X19019234Y-7652000D01*
X19019234Y-7906000D02*
X19069234Y-7856000D01*
X19019234Y-7806000D01*
X18969234Y-7856000D01*
X19019234Y-7906000D01*
X19019234Y-8160000D02*
X19069234Y-8110000D01*
X19019234Y-8060000D01*
X18969234Y-8110000D01*
X19019234Y-8160000D01*
X19019234Y-8414000D02*
X19069234Y-8364000D01*
X19019234Y-8314000D01*
X18969234Y-8364000D01*
X19019234Y-8414000D01*
X19019234Y-8668000D02*
X19069234Y-8618000D01*
X19019234Y-8568000D01*
X18969234Y-8618000D01*
X19019234Y-8668000D01*
X19019234Y-8922000D02*
X19069234Y-8872000D01*
X19019234Y-8822000D01*
X18969234Y-8872000D01*
X19019234Y-8922000D01*
X19019234Y-9176000D02*
X19069234Y-9126000D01*
X19019234Y-9076000D01*
X18969234Y-9126000D01*
X19019234Y-9176000D01*
X20352734Y-6382000D02*
X20402734Y-6332000D01*
X20352734Y-6282000D01*
X20302734Y-6332000D01*
X20352734Y-6382000D01*
X20352734Y-6636000D02*
X20402734Y-6586000D01*
X20352734Y-6536000D01*
X20302734Y-6586000D01*
X20352734Y-6636000D01*
X20352734Y-6890000D02*
X20402734Y-6840000D01*
X20352734Y-6790000D01*
X20302734Y-6840000D01*
X20352734Y-6890000D01*
X20352734Y-7144000D02*
X20402734Y-7094000D01*
X20352734Y-7044000D01*
X20302734Y-7094000D01*
X20352734Y-7144000D01*
X20352734Y-7398000D02*
X20402734Y-7348000D01*
X20352734Y-7298000D01*
X20302734Y-7348000D01*
X20352734Y-7398000D01*
X20352734Y-7652000D02*
X20402734Y-7602000D01*
X20352734Y-7552000D01*
X20302734Y-7602000D01*
X20352734Y-7652000D01*
X20352734Y-7906000D02*
X20402734Y-7856000D01*
X20352734Y-7806000D01*
X20302734Y-7856000D01*
X20352734Y-7906000D01*
X20352734Y-8160000D02*
X20402734Y-8110000D01*
X20352734Y-8060000D01*
X20302734Y-8110000D01*
X20352734Y-8160000D01*
X20352734Y-8414000D02*
X20402734Y-8364000D01*
X20352734Y-8314000D01*
X20302734Y-8364000D01*
X20352734Y-8414000D01*
X20352734Y-8668000D02*
X20402734Y-8618000D01*
X20352734Y-8568000D01*
X20302734Y-8618000D01*
X20352734Y-8668000D01*
X20352734Y-8922000D02*
X20402734Y-8872000D01*
X20352734Y-8822000D01*
X20302734Y-8872000D01*
X20352734Y-8922000D01*
X20352734Y-9176000D02*
X20402734Y-9126000D01*
X20352734Y-9076000D01*
X20302734Y-9126000D01*
X20352734Y-9176000D01*
X21876734Y-6382000D02*
X21926734Y-6332000D01*
X21876734Y-6282000D01*
X21826734Y-6332000D01*
X21876734Y-6382000D01*
X21876734Y-6636000D02*
X21926734Y-6586000D01*
X21876734Y-6536000D01*
X21826734Y-6586000D01*
X21876734Y-6636000D01*
X21876734Y-6890000D02*
X21926734Y-6840000D01*
X21876734Y-6790000D01*
X21826734Y-6840000D01*
X21876734Y-6890000D01*
X21876734Y-7144000D02*
X21926734Y-7094000D01*
X21876734Y-7044000D01*
X21826734Y-7094000D01*
X21876734Y-7144000D01*
X21876734Y-7398000D02*
X21926734Y-7348000D01*
X21876734Y-7298000D01*
X21826734Y-7348000D01*
X21876734Y-7398000D01*
X21876734Y-7652000D02*
X21926734Y-7602000D01*
X21876734Y-7552000D01*
X21826734Y-7602000D01*
X21876734Y-7652000D01*
X21876734Y-7906000D02*
X21926734Y-7856000D01*
X21876734Y-7806000D01*
X21826734Y-7856000D01*
X21876734Y-7906000D01*
X21876734Y-8160000D02*
X21926734Y-8110000D01*
X21876734Y-8060000D01*
X21826734Y-8110000D01*
X21876734Y-8160000D01*
X21876734Y-8414000D02*
X21926734Y-8364000D01*
X21876734Y-8314000D01*
X21826734Y-8364000D01*
X21876734Y-8414000D01*
X21876734Y-8668000D02*
X21926734Y-8618000D01*
X21876734Y-8568000D01*
X21826734Y-8618000D01*
X21876734Y-8668000D01*
X21876734Y-8922000D02*
X21926734Y-8872000D01*
X21876734Y-8822000D01*
X21826734Y-8872000D01*
X21876734Y-8922000D01*
X21876734Y-9176000D02*
X21926734Y-9126000D01*
X21876734Y-9076000D01*
X21826734Y-9126000D01*
X21876734Y-9176000D01*
D13*
X17694624Y-9475390D02*
X17803844Y-9584610D01*
X17803844Y-9475390D02*
X17694624Y-9584610D01*
X17803844Y-9530000D02*
G75*
G02*
X17694624Y-9530000I-54610J0D01*
G01*
X17694624Y-9530000D02*
G75*
G02*
X17803844Y-9530000I54610J0D01*
G01*
X17948624Y-9475390D02*
X18057844Y-9584610D01*
X18057844Y-9475390D02*
X17948624Y-9584610D01*
X18057844Y-9530000D02*
G75*
G02*
X17948624Y-9530000I-54610J0D01*
G01*
X17948624Y-9530000D02*
G75*
G02*
X18057844Y-9530000I54610J0D01*
G01*
X18202624Y-9475390D02*
X18311844Y-9584610D01*
X18311844Y-9475390D02*
X18202624Y-9584610D01*
X18311844Y-9530000D02*
G75*
G02*
X18202624Y-9530000I-54610J0D01*
G01*
X18202624Y-9530000D02*
G75*
G02*
X18311844Y-9530000I54610J0D01*
G01*
X18456624Y-9475390D02*
X18565844Y-9584610D01*
X18565844Y-9475390D02*
X18456624Y-9584610D01*
X18565844Y-9530000D02*
G75*
G02*
X18456624Y-9530000I-54610J0D01*
G01*
X18456624Y-9530000D02*
G75*
G02*
X18565844Y-9530000I54610J0D01*
G01*
X18710624Y-9475390D02*
X18819844Y-9584610D01*
X18819844Y-9475390D02*
X18710624Y-9584610D01*
X18819844Y-9530000D02*
G75*
G02*
X18710624Y-9530000I-54610J0D01*
G01*
X18710624Y-9530000D02*
G75*
G02*
X18819844Y-9530000I54610J0D01*
G01*
X20552124Y-9475390D02*
X20661344Y-9584610D01*
X20661344Y-9475390D02*
X20552124Y-9584610D01*
X20661344Y-9530000D02*
G75*
G02*
X20552124Y-9530000I-54610J0D01*
G01*
X20552124Y-9530000D02*
G75*
G02*
X20661344Y-9530000I54610J0D01*
G01*
X20806124Y-9475390D02*
X20915344Y-9584610D01*
X20915344Y-9475390D02*
X20806124Y-9584610D01*
X20915344Y-9530000D02*
G75*
G02*
X20806124Y-9530000I-54610J0D01*
G01*
X20806124Y-9530000D02*
G75*
G02*
X20915344Y-9530000I54610J0D01*
G01*
X21060124Y-9475390D02*
X21169344Y-9584610D01*
X21169344Y-9475390D02*
X21060124Y-9584610D01*
X21169344Y-9530000D02*
G75*
G02*
X21060124Y-9530000I-54610J0D01*
G01*
X21060124Y-9530000D02*
G75*
G02*
X21169344Y-9530000I54610J0D01*
G01*
X21314124Y-9475390D02*
X21423344Y-9584610D01*
X21423344Y-9475390D02*
X21314124Y-9584610D01*
X21423344Y-9530000D02*
G75*
G02*
X21314124Y-9530000I-54610J0D01*
G01*
X21314124Y-9530000D02*
G75*
G02*
X21423344Y-9530000I54610J0D01*
G01*
X21568124Y-9475390D02*
X21677344Y-9584610D01*
X21677344Y-9475390D02*
X21568124Y-9584610D01*
X21677344Y-9530000D02*
G75*
G02*
X21568124Y-9530000I-54610J0D01*
G01*
X21568124Y-9530000D02*
G75*
G02*
X21677344Y-9530000I54610J0D01*
G01*
D14*
X19010717Y-9346125D02*
X19140717Y-9476125D01*
X19140717Y-9346125D02*
X19010717Y-9476125D01*
X19075717Y-9346125D02*
X19075717Y-9476125D01*
X19010717Y-9411125D02*
X19140717Y-9411125D01*
X19010717Y-9996125D02*
X19140717Y-10126125D01*
X19140717Y-9996125D02*
X19010717Y-10126125D01*
X19075717Y-9996125D02*
X19075717Y-10126125D01*
X19010717Y-10061125D02*
X19140717Y-10061125D01*
X20231250Y-9346125D02*
X20361250Y-9476125D01*
X20361250Y-9346125D02*
X20231250Y-9476125D01*
X20296250Y-9346125D02*
X20296250Y-9476125D01*
X20231250Y-9411125D02*
X20361250Y-9411125D01*
X20231250Y-9996125D02*
X20361250Y-10126125D01*
X20361250Y-9996125D02*
X20231250Y-10126125D01*
X20296250Y-9996125D02*
X20296250Y-10126125D01*
X20231250Y-10061125D02*
X20361250Y-10061125D01*
D12*
X6080510Y-15482469D02*
X6080510Y-15282469D01*
X6080510Y-15282469D02*
X6128129Y-15282469D01*
X6128129Y-15282469D02*
X6156701Y-15291993D01*
X6156701Y-15291993D02*
X6175748Y-15311040D01*
X6175748Y-15311040D02*
X6185272Y-15330088D01*
X6185272Y-15330088D02*
X6194796Y-15368183D01*
X6194796Y-15368183D02*
X6194796Y-15396755D01*
X6194796Y-15396755D02*
X6185272Y-15434850D01*
X6185272Y-15434850D02*
X6175748Y-15453897D01*
X6175748Y-15453897D02*
X6156701Y-15472945D01*
X6156701Y-15472945D02*
X6128129Y-15482469D01*
X6128129Y-15482469D02*
X6080510Y-15482469D01*
X6280510Y-15482469D02*
X6280510Y-15349135D01*
X6280510Y-15387231D02*
X6290034Y-15368183D01*
X6290034Y-15368183D02*
X6299558Y-15358659D01*
X6299558Y-15358659D02*
X6318605Y-15349135D01*
X6318605Y-15349135D02*
X6337653Y-15349135D01*
X6404320Y-15482469D02*
X6404320Y-15349135D01*
X6404320Y-15282469D02*
X6394796Y-15291993D01*
X6394796Y-15291993D02*
X6404320Y-15301516D01*
X6404320Y-15301516D02*
X6413844Y-15291993D01*
X6413844Y-15291993D02*
X6404320Y-15282469D01*
X6404320Y-15282469D02*
X6404320Y-15301516D01*
X6528129Y-15482469D02*
X6509082Y-15472945D01*
X6509082Y-15472945D02*
X6499558Y-15453897D01*
X6499558Y-15453897D02*
X6499558Y-15282469D01*
X6632891Y-15482469D02*
X6613844Y-15472945D01*
X6613844Y-15472945D02*
X6604320Y-15453897D01*
X6604320Y-15453897D02*
X6604320Y-15282469D01*
X6861463Y-15482469D02*
X6861463Y-15282469D01*
X6861463Y-15282469D02*
X6928129Y-15425326D01*
X6928129Y-15425326D02*
X6994796Y-15282469D01*
X6994796Y-15282469D02*
X6994796Y-15482469D01*
X7175748Y-15482469D02*
X7175748Y-15377707D01*
X7175748Y-15377707D02*
X7166225Y-15358659D01*
X7166225Y-15358659D02*
X7147177Y-15349135D01*
X7147177Y-15349135D02*
X7109082Y-15349135D01*
X7109082Y-15349135D02*
X7090034Y-15358659D01*
X7175748Y-15472945D02*
X7156701Y-15482469D01*
X7156701Y-15482469D02*
X7109082Y-15482469D01*
X7109082Y-15482469D02*
X7090034Y-15472945D01*
X7090034Y-15472945D02*
X7080510Y-15453897D01*
X7080510Y-15453897D02*
X7080510Y-15434850D01*
X7080510Y-15434850D02*
X7090034Y-15415802D01*
X7090034Y-15415802D02*
X7109082Y-15406278D01*
X7109082Y-15406278D02*
X7156701Y-15406278D01*
X7156701Y-15406278D02*
X7175748Y-15396755D01*
X7270986Y-15349135D02*
X7270986Y-15549135D01*
X7270986Y-15358659D02*
X7290034Y-15349135D01*
X7290034Y-15349135D02*
X7328129Y-15349135D01*
X7328129Y-15349135D02*
X7347177Y-15358659D01*
X7347177Y-15358659D02*
X7356701Y-15368183D01*
X7356701Y-15368183D02*
X7366225Y-15387231D01*
X7366225Y-15387231D02*
X7366225Y-15444374D01*
X7366225Y-15444374D02*
X7356701Y-15463421D01*
X7356701Y-15463421D02*
X7347177Y-15472945D01*
X7347177Y-15472945D02*
X7328129Y-15482469D01*
X7328129Y-15482469D02*
X7290034Y-15482469D01*
X7290034Y-15482469D02*
X7270986Y-15472945D01*
X7451939Y-15463421D02*
X7461463Y-15472945D01*
X7461463Y-15472945D02*
X7451939Y-15482469D01*
X7451939Y-15482469D02*
X7442415Y-15472945D01*
X7442415Y-15472945D02*
X7451939Y-15463421D01*
X7451939Y-15463421D02*
X7451939Y-15482469D01*
X7451939Y-15358659D02*
X7461463Y-15368183D01*
X7461463Y-15368183D02*
X7451939Y-15377707D01*
X7451939Y-15377707D02*
X7442415Y-15368183D01*
X7442415Y-15368183D02*
X7451939Y-15358659D01*
X7451939Y-15358659D02*
X7451939Y-15377707D01*
D10*
X5779733Y-15790985D02*
X5819733Y-15830985D01*
X5819733Y-15790985D02*
X5779733Y-15830985D01*
D12*
X6118605Y-15702469D02*
X6137653Y-15702469D01*
X6137653Y-15702469D02*
X6156701Y-15711993D01*
X6156701Y-15711993D02*
X6166225Y-15721516D01*
X6166225Y-15721516D02*
X6175748Y-15740564D01*
X6175748Y-15740564D02*
X6185272Y-15778659D01*
X6185272Y-15778659D02*
X6185272Y-15826278D01*
X6185272Y-15826278D02*
X6175748Y-15864374D01*
X6175748Y-15864374D02*
X6166225Y-15883421D01*
X6166225Y-15883421D02*
X6156701Y-15892945D01*
X6156701Y-15892945D02*
X6137653Y-15902469D01*
X6137653Y-15902469D02*
X6118605Y-15902469D01*
X6118605Y-15902469D02*
X6099558Y-15892945D01*
X6099558Y-15892945D02*
X6090034Y-15883421D01*
X6090034Y-15883421D02*
X6080510Y-15864374D01*
X6080510Y-15864374D02*
X6070986Y-15826278D01*
X6070986Y-15826278D02*
X6070986Y-15778659D01*
X6070986Y-15778659D02*
X6080510Y-15740564D01*
X6080510Y-15740564D02*
X6090034Y-15721516D01*
X6090034Y-15721516D02*
X6099558Y-15711993D01*
X6099558Y-15711993D02*
X6118605Y-15702469D01*
X6270986Y-15883421D02*
X6280510Y-15892945D01*
X6280510Y-15892945D02*
X6270986Y-15902469D01*
X6270986Y-15902469D02*
X6261463Y-15892945D01*
X6261463Y-15892945D02*
X6270986Y-15883421D01*
X6270986Y-15883421D02*
X6270986Y-15902469D01*
X6451939Y-15769135D02*
X6451939Y-15902469D01*
X6404320Y-15692945D02*
X6356701Y-15835802D01*
X6356701Y-15835802D02*
X6480510Y-15835802D01*
X6594796Y-15702469D02*
X6613844Y-15702469D01*
X6613844Y-15702469D02*
X6632891Y-15711993D01*
X6632891Y-15711993D02*
X6642415Y-15721516D01*
X6642415Y-15721516D02*
X6651939Y-15740564D01*
X6651939Y-15740564D02*
X6661463Y-15778659D01*
X6661463Y-15778659D02*
X6661463Y-15826278D01*
X6661463Y-15826278D02*
X6651939Y-15864374D01*
X6651939Y-15864374D02*
X6642415Y-15883421D01*
X6642415Y-15883421D02*
X6632891Y-15892945D01*
X6632891Y-15892945D02*
X6613844Y-15902469D01*
X6613844Y-15902469D02*
X6594796Y-15902469D01*
X6594796Y-15902469D02*
X6575748Y-15892945D01*
X6575748Y-15892945D02*
X6566225Y-15883421D01*
X6566225Y-15883421D02*
X6556701Y-15864374D01*
X6556701Y-15864374D02*
X6547177Y-15826278D01*
X6547177Y-15826278D02*
X6547177Y-15778659D01*
X6547177Y-15778659D02*
X6556701Y-15740564D01*
X6556701Y-15740564D02*
X6566225Y-15721516D01*
X6566225Y-15721516D02*
X6575748Y-15711993D01*
X6575748Y-15711993D02*
X6594796Y-15702469D01*
X6785272Y-15702469D02*
X6804320Y-15702469D01*
X6804320Y-15702469D02*
X6823367Y-15711993D01*
X6823367Y-15711993D02*
X6832891Y-15721516D01*
X6832891Y-15721516D02*
X6842415Y-15740564D01*
X6842415Y-15740564D02*
X6851939Y-15778659D01*
X6851939Y-15778659D02*
X6851939Y-15826278D01*
X6851939Y-15826278D02*
X6842415Y-15864374D01*
X6842415Y-15864374D02*
X6832891Y-15883421D01*
X6832891Y-15883421D02*
X6823367Y-15892945D01*
X6823367Y-15892945D02*
X6804320Y-15902469D01*
X6804320Y-15902469D02*
X6785272Y-15902469D01*
X6785272Y-15902469D02*
X6766225Y-15892945D01*
X6766225Y-15892945D02*
X6756701Y-15883421D01*
X6756701Y-15883421D02*
X6747177Y-15864374D01*
X6747177Y-15864374D02*
X6737653Y-15826278D01*
X6737653Y-15826278D02*
X6737653Y-15778659D01*
X6737653Y-15778659D02*
X6747177Y-15740564D01*
X6747177Y-15740564D02*
X6756701Y-15721516D01*
X6756701Y-15721516D02*
X6766225Y-15711993D01*
X6766225Y-15711993D02*
X6785272Y-15702469D01*
X6937653Y-15902469D02*
X6937653Y-15769135D01*
X6937653Y-15788183D02*
X6947177Y-15778659D01*
X6947177Y-15778659D02*
X6966225Y-15769135D01*
X6966225Y-15769135D02*
X6994796Y-15769135D01*
X6994796Y-15769135D02*
X7013844Y-15778659D01*
X7013844Y-15778659D02*
X7023367Y-15797707D01*
X7023367Y-15797707D02*
X7023367Y-15902469D01*
X7023367Y-15797707D02*
X7032891Y-15778659D01*
X7032891Y-15778659D02*
X7051939Y-15769135D01*
X7051939Y-15769135D02*
X7080510Y-15769135D01*
X7080510Y-15769135D02*
X7099558Y-15778659D01*
X7099558Y-15778659D02*
X7109082Y-15797707D01*
X7109082Y-15797707D02*
X7109082Y-15902469D01*
X7204320Y-15902469D02*
X7204320Y-15769135D01*
X7204320Y-15788183D02*
X7213844Y-15778659D01*
X7213844Y-15778659D02*
X7232891Y-15769135D01*
X7232891Y-15769135D02*
X7261463Y-15769135D01*
X7261463Y-15769135D02*
X7280510Y-15778659D01*
X7280510Y-15778659D02*
X7290034Y-15797707D01*
X7290034Y-15797707D02*
X7290034Y-15902469D01*
X7290034Y-15797707D02*
X7299558Y-15778659D01*
X7299558Y-15778659D02*
X7318606Y-15769135D01*
X7318606Y-15769135D02*
X7347177Y-15769135D01*
X7347177Y-15769135D02*
X7366225Y-15778659D01*
X7366225Y-15778659D02*
X7375748Y-15797707D01*
X7375748Y-15797707D02*
X7375748Y-15902469D01*
X7766225Y-15692945D02*
X7594796Y-15950088D01*
X8023368Y-15702469D02*
X8042415Y-15702469D01*
X8042415Y-15702469D02*
X8061463Y-15711993D01*
X8061463Y-15711993D02*
X8070987Y-15721516D01*
X8070987Y-15721516D02*
X8080510Y-15740564D01*
X8080510Y-15740564D02*
X8090034Y-15778659D01*
X8090034Y-15778659D02*
X8090034Y-15826278D01*
X8090034Y-15826278D02*
X8080510Y-15864374D01*
X8080510Y-15864374D02*
X8070987Y-15883421D01*
X8070987Y-15883421D02*
X8061463Y-15892945D01*
X8061463Y-15892945D02*
X8042415Y-15902469D01*
X8042415Y-15902469D02*
X8023368Y-15902469D01*
X8023368Y-15902469D02*
X8004320Y-15892945D01*
X8004320Y-15892945D02*
X7994796Y-15883421D01*
X7994796Y-15883421D02*
X7985272Y-15864374D01*
X7985272Y-15864374D02*
X7975749Y-15826278D01*
X7975749Y-15826278D02*
X7975749Y-15778659D01*
X7975749Y-15778659D02*
X7985272Y-15740564D01*
X7985272Y-15740564D02*
X7994796Y-15721516D01*
X7994796Y-15721516D02*
X8004320Y-15711993D01*
X8004320Y-15711993D02*
X8023368Y-15702469D01*
X8175749Y-15883421D02*
X8185272Y-15892945D01*
X8185272Y-15892945D02*
X8175749Y-15902469D01*
X8175749Y-15902469D02*
X8166225Y-15892945D01*
X8166225Y-15892945D02*
X8175749Y-15883421D01*
X8175749Y-15883421D02*
X8175749Y-15902469D01*
X8309082Y-15702469D02*
X8328130Y-15702469D01*
X8328130Y-15702469D02*
X8347177Y-15711993D01*
X8347177Y-15711993D02*
X8356701Y-15721516D01*
X8356701Y-15721516D02*
X8366225Y-15740564D01*
X8366225Y-15740564D02*
X8375749Y-15778659D01*
X8375749Y-15778659D02*
X8375749Y-15826278D01*
X8375749Y-15826278D02*
X8366225Y-15864374D01*
X8366225Y-15864374D02*
X8356701Y-15883421D01*
X8356701Y-15883421D02*
X8347177Y-15892945D01*
X8347177Y-15892945D02*
X8328130Y-15902469D01*
X8328130Y-15902469D02*
X8309082Y-15902469D01*
X8309082Y-15902469D02*
X8290034Y-15892945D01*
X8290034Y-15892945D02*
X8280510Y-15883421D01*
X8280510Y-15883421D02*
X8270987Y-15864374D01*
X8270987Y-15864374D02*
X8261463Y-15826278D01*
X8261463Y-15826278D02*
X8261463Y-15778659D01*
X8261463Y-15778659D02*
X8270987Y-15740564D01*
X8270987Y-15740564D02*
X8280510Y-15721516D01*
X8280510Y-15721516D02*
X8290034Y-15711993D01*
X8290034Y-15711993D02*
X8309082Y-15702469D01*
X8566225Y-15902469D02*
X8451939Y-15902469D01*
X8509082Y-15902469D02*
X8509082Y-15702469D01*
X8509082Y-15702469D02*
X8490034Y-15731040D01*
X8490034Y-15731040D02*
X8470987Y-15750088D01*
X8470987Y-15750088D02*
X8451939Y-15759612D01*
X8747177Y-15702469D02*
X8651939Y-15702469D01*
X8651939Y-15702469D02*
X8642415Y-15797707D01*
X8642415Y-15797707D02*
X8651939Y-15788183D01*
X8651939Y-15788183D02*
X8670987Y-15778659D01*
X8670987Y-15778659D02*
X8718606Y-15778659D01*
X8718606Y-15778659D02*
X8737653Y-15788183D01*
X8737653Y-15788183D02*
X8747177Y-15797707D01*
X8747177Y-15797707D02*
X8756701Y-15816755D01*
X8756701Y-15816755D02*
X8756701Y-15864374D01*
X8756701Y-15864374D02*
X8747177Y-15883421D01*
X8747177Y-15883421D02*
X8737653Y-15892945D01*
X8737653Y-15892945D02*
X8718606Y-15902469D01*
X8718606Y-15902469D02*
X8670987Y-15902469D01*
X8670987Y-15902469D02*
X8651939Y-15892945D01*
X8651939Y-15892945D02*
X8642415Y-15883421D01*
X8823368Y-15702469D02*
X8956701Y-15702469D01*
X8956701Y-15702469D02*
X8870987Y-15902469D01*
X9023368Y-15702469D02*
X9023368Y-15740564D01*
X9099558Y-15702469D02*
X9099558Y-15740564D01*
X9394796Y-15978659D02*
X9385273Y-15969135D01*
X9385273Y-15969135D02*
X9366225Y-15940564D01*
X9366225Y-15940564D02*
X9356701Y-15921516D01*
X9356701Y-15921516D02*
X9347177Y-15892945D01*
X9347177Y-15892945D02*
X9337654Y-15845326D01*
X9337654Y-15845326D02*
X9337654Y-15807231D01*
X9337654Y-15807231D02*
X9347177Y-15759612D01*
X9347177Y-15759612D02*
X9356701Y-15731040D01*
X9356701Y-15731040D02*
X9366225Y-15711993D01*
X9366225Y-15711993D02*
X9385273Y-15683421D01*
X9385273Y-15683421D02*
X9394796Y-15673897D01*
X9556701Y-15769135D02*
X9556701Y-15902469D01*
X9509082Y-15692945D02*
X9461463Y-15835802D01*
X9461463Y-15835802D02*
X9585273Y-15835802D01*
X9651939Y-15721516D02*
X9661463Y-15711993D01*
X9661463Y-15711993D02*
X9680511Y-15702469D01*
X9680511Y-15702469D02*
X9728130Y-15702469D01*
X9728130Y-15702469D02*
X9747177Y-15711993D01*
X9747177Y-15711993D02*
X9756701Y-15721516D01*
X9756701Y-15721516D02*
X9766225Y-15740564D01*
X9766225Y-15740564D02*
X9766225Y-15759612D01*
X9766225Y-15759612D02*
X9756701Y-15788183D01*
X9756701Y-15788183D02*
X9642415Y-15902469D01*
X9642415Y-15902469D02*
X9766225Y-15902469D01*
X10004320Y-15902469D02*
X10004320Y-15702469D01*
X10090035Y-15902469D02*
X10090035Y-15797707D01*
X10090035Y-15797707D02*
X10080511Y-15778659D01*
X10080511Y-15778659D02*
X10061463Y-15769135D01*
X10061463Y-15769135D02*
X10032892Y-15769135D01*
X10032892Y-15769135D02*
X10013844Y-15778659D01*
X10013844Y-15778659D02*
X10004320Y-15788183D01*
X10213844Y-15902469D02*
X10194796Y-15892945D01*
X10194796Y-15892945D02*
X10185273Y-15883421D01*
X10185273Y-15883421D02*
X10175749Y-15864374D01*
X10175749Y-15864374D02*
X10175749Y-15807231D01*
X10175749Y-15807231D02*
X10185273Y-15788183D01*
X10185273Y-15788183D02*
X10194796Y-15778659D01*
X10194796Y-15778659D02*
X10213844Y-15769135D01*
X10213844Y-15769135D02*
X10242416Y-15769135D01*
X10242416Y-15769135D02*
X10261463Y-15778659D01*
X10261463Y-15778659D02*
X10270987Y-15788183D01*
X10270987Y-15788183D02*
X10280511Y-15807231D01*
X10280511Y-15807231D02*
X10280511Y-15864374D01*
X10280511Y-15864374D02*
X10270987Y-15883421D01*
X10270987Y-15883421D02*
X10261463Y-15892945D01*
X10261463Y-15892945D02*
X10242416Y-15902469D01*
X10242416Y-15902469D02*
X10213844Y-15902469D01*
X10394796Y-15902469D02*
X10375749Y-15892945D01*
X10375749Y-15892945D02*
X10366225Y-15873897D01*
X10366225Y-15873897D02*
X10366225Y-15702469D01*
X10547177Y-15892945D02*
X10528130Y-15902469D01*
X10528130Y-15902469D02*
X10490035Y-15902469D01*
X10490035Y-15902469D02*
X10470987Y-15892945D01*
X10470987Y-15892945D02*
X10461463Y-15873897D01*
X10461463Y-15873897D02*
X10461463Y-15797707D01*
X10461463Y-15797707D02*
X10470987Y-15778659D01*
X10470987Y-15778659D02*
X10490035Y-15769135D01*
X10490035Y-15769135D02*
X10528130Y-15769135D01*
X10528130Y-15769135D02*
X10547177Y-15778659D01*
X10547177Y-15778659D02*
X10556701Y-15797707D01*
X10556701Y-15797707D02*
X10556701Y-15816755D01*
X10556701Y-15816755D02*
X10461463Y-15835802D01*
X10632892Y-15892945D02*
X10651939Y-15902469D01*
X10651939Y-15902469D02*
X10690035Y-15902469D01*
X10690035Y-15902469D02*
X10709082Y-15892945D01*
X10709082Y-15892945D02*
X10718606Y-15873897D01*
X10718606Y-15873897D02*
X10718606Y-15864374D01*
X10718606Y-15864374D02*
X10709082Y-15845326D01*
X10709082Y-15845326D02*
X10690035Y-15835802D01*
X10690035Y-15835802D02*
X10661463Y-15835802D01*
X10661463Y-15835802D02*
X10642416Y-15826278D01*
X10642416Y-15826278D02*
X10632892Y-15807231D01*
X10632892Y-15807231D02*
X10632892Y-15797707D01*
X10632892Y-15797707D02*
X10642416Y-15778659D01*
X10642416Y-15778659D02*
X10661463Y-15769135D01*
X10661463Y-15769135D02*
X10690035Y-15769135D01*
X10690035Y-15769135D02*
X10709082Y-15778659D01*
X10785273Y-15978659D02*
X10794797Y-15969135D01*
X10794797Y-15969135D02*
X10813844Y-15940564D01*
X10813844Y-15940564D02*
X10823368Y-15921516D01*
X10823368Y-15921516D02*
X10832892Y-15892945D01*
X10832892Y-15892945D02*
X10842416Y-15845326D01*
X10842416Y-15845326D02*
X10842416Y-15807231D01*
X10842416Y-15807231D02*
X10832892Y-15759612D01*
X10832892Y-15759612D02*
X10823368Y-15731040D01*
X10823368Y-15731040D02*
X10813844Y-15711993D01*
X10813844Y-15711993D02*
X10794797Y-15683421D01*
X10794797Y-15683421D02*
X10785273Y-15673897D01*
D10*
X5819733Y-16074985D02*
G75*
G02*
X5744733Y-16074985I-37500J0D01*
G01*
X5744733Y-16074985D02*
G75*
G02*
X5819733Y-16074985I37500J0D01*
G01*
D12*
X6118605Y-15966469D02*
X6137653Y-15966469D01*
X6137653Y-15966469D02*
X6156701Y-15975993D01*
X6156701Y-15975993D02*
X6166225Y-15985516D01*
X6166225Y-15985516D02*
X6175748Y-16004564D01*
X6175748Y-16004564D02*
X6185272Y-16042659D01*
X6185272Y-16042659D02*
X6185272Y-16090278D01*
X6185272Y-16090278D02*
X6175748Y-16128374D01*
X6175748Y-16128374D02*
X6166225Y-16147421D01*
X6166225Y-16147421D02*
X6156701Y-16156945D01*
X6156701Y-16156945D02*
X6137653Y-16166469D01*
X6137653Y-16166469D02*
X6118605Y-16166469D01*
X6118605Y-16166469D02*
X6099558Y-16156945D01*
X6099558Y-16156945D02*
X6090034Y-16147421D01*
X6090034Y-16147421D02*
X6080510Y-16128374D01*
X6080510Y-16128374D02*
X6070986Y-16090278D01*
X6070986Y-16090278D02*
X6070986Y-16042659D01*
X6070986Y-16042659D02*
X6080510Y-16004564D01*
X6080510Y-16004564D02*
X6090034Y-15985516D01*
X6090034Y-15985516D02*
X6099558Y-15975993D01*
X6099558Y-15975993D02*
X6118605Y-15966469D01*
X6270986Y-16147421D02*
X6280510Y-16156945D01*
X6280510Y-16156945D02*
X6270986Y-16166469D01*
X6270986Y-16166469D02*
X6261463Y-16156945D01*
X6261463Y-16156945D02*
X6270986Y-16147421D01*
X6270986Y-16147421D02*
X6270986Y-16166469D01*
X6347177Y-15966469D02*
X6480510Y-15966469D01*
X6480510Y-15966469D02*
X6394796Y-16166469D01*
X6651939Y-15966469D02*
X6556701Y-15966469D01*
X6556701Y-15966469D02*
X6547177Y-16061707D01*
X6547177Y-16061707D02*
X6556701Y-16052183D01*
X6556701Y-16052183D02*
X6575748Y-16042659D01*
X6575748Y-16042659D02*
X6623367Y-16042659D01*
X6623367Y-16042659D02*
X6642415Y-16052183D01*
X6642415Y-16052183D02*
X6651939Y-16061707D01*
X6651939Y-16061707D02*
X6661463Y-16080755D01*
X6661463Y-16080755D02*
X6661463Y-16128374D01*
X6661463Y-16128374D02*
X6651939Y-16147421D01*
X6651939Y-16147421D02*
X6642415Y-16156945D01*
X6642415Y-16156945D02*
X6623367Y-16166469D01*
X6623367Y-16166469D02*
X6575748Y-16166469D01*
X6575748Y-16166469D02*
X6556701Y-16156945D01*
X6556701Y-16156945D02*
X6547177Y-16147421D01*
X6785272Y-15966469D02*
X6804320Y-15966469D01*
X6804320Y-15966469D02*
X6823367Y-15975993D01*
X6823367Y-15975993D02*
X6832891Y-15985516D01*
X6832891Y-15985516D02*
X6842415Y-16004564D01*
X6842415Y-16004564D02*
X6851939Y-16042659D01*
X6851939Y-16042659D02*
X6851939Y-16090278D01*
X6851939Y-16090278D02*
X6842415Y-16128374D01*
X6842415Y-16128374D02*
X6832891Y-16147421D01*
X6832891Y-16147421D02*
X6823367Y-16156945D01*
X6823367Y-16156945D02*
X6804320Y-16166469D01*
X6804320Y-16166469D02*
X6785272Y-16166469D01*
X6785272Y-16166469D02*
X6766225Y-16156945D01*
X6766225Y-16156945D02*
X6756701Y-16147421D01*
X6756701Y-16147421D02*
X6747177Y-16128374D01*
X6747177Y-16128374D02*
X6737653Y-16090278D01*
X6737653Y-16090278D02*
X6737653Y-16042659D01*
X6737653Y-16042659D02*
X6747177Y-16004564D01*
X6747177Y-16004564D02*
X6756701Y-15985516D01*
X6756701Y-15985516D02*
X6766225Y-15975993D01*
X6766225Y-15975993D02*
X6785272Y-15966469D01*
X6937653Y-16166469D02*
X6937653Y-16033135D01*
X6937653Y-16052183D02*
X6947177Y-16042659D01*
X6947177Y-16042659D02*
X6966225Y-16033135D01*
X6966225Y-16033135D02*
X6994796Y-16033135D01*
X6994796Y-16033135D02*
X7013844Y-16042659D01*
X7013844Y-16042659D02*
X7023367Y-16061707D01*
X7023367Y-16061707D02*
X7023367Y-16166469D01*
X7023367Y-16061707D02*
X7032891Y-16042659D01*
X7032891Y-16042659D02*
X7051939Y-16033135D01*
X7051939Y-16033135D02*
X7080510Y-16033135D01*
X7080510Y-16033135D02*
X7099558Y-16042659D01*
X7099558Y-16042659D02*
X7109082Y-16061707D01*
X7109082Y-16061707D02*
X7109082Y-16166469D01*
X7204320Y-16166469D02*
X7204320Y-16033135D01*
X7204320Y-16052183D02*
X7213844Y-16042659D01*
X7213844Y-16042659D02*
X7232891Y-16033135D01*
X7232891Y-16033135D02*
X7261463Y-16033135D01*
X7261463Y-16033135D02*
X7280510Y-16042659D01*
X7280510Y-16042659D02*
X7290034Y-16061707D01*
X7290034Y-16061707D02*
X7290034Y-16166469D01*
X7290034Y-16061707D02*
X7299558Y-16042659D01*
X7299558Y-16042659D02*
X7318606Y-16033135D01*
X7318606Y-16033135D02*
X7347177Y-16033135D01*
X7347177Y-16033135D02*
X7366225Y-16042659D01*
X7366225Y-16042659D02*
X7375748Y-16061707D01*
X7375748Y-16061707D02*
X7375748Y-16166469D01*
X7766225Y-15956945D02*
X7594796Y-16214088D01*
X8023368Y-15966469D02*
X8042415Y-15966469D01*
X8042415Y-15966469D02*
X8061463Y-15975993D01*
X8061463Y-15975993D02*
X8070987Y-15985516D01*
X8070987Y-15985516D02*
X8080510Y-16004564D01*
X8080510Y-16004564D02*
X8090034Y-16042659D01*
X8090034Y-16042659D02*
X8090034Y-16090278D01*
X8090034Y-16090278D02*
X8080510Y-16128374D01*
X8080510Y-16128374D02*
X8070987Y-16147421D01*
X8070987Y-16147421D02*
X8061463Y-16156945D01*
X8061463Y-16156945D02*
X8042415Y-16166469D01*
X8042415Y-16166469D02*
X8023368Y-16166469D01*
X8023368Y-16166469D02*
X8004320Y-16156945D01*
X8004320Y-16156945D02*
X7994796Y-16147421D01*
X7994796Y-16147421D02*
X7985272Y-16128374D01*
X7985272Y-16128374D02*
X7975749Y-16090278D01*
X7975749Y-16090278D02*
X7975749Y-16042659D01*
X7975749Y-16042659D02*
X7985272Y-16004564D01*
X7985272Y-16004564D02*
X7994796Y-15985516D01*
X7994796Y-15985516D02*
X8004320Y-15975993D01*
X8004320Y-15975993D02*
X8023368Y-15966469D01*
X8175749Y-16147421D02*
X8185272Y-16156945D01*
X8185272Y-16156945D02*
X8175749Y-16166469D01*
X8175749Y-16166469D02*
X8166225Y-16156945D01*
X8166225Y-16156945D02*
X8175749Y-16147421D01*
X8175749Y-16147421D02*
X8175749Y-16166469D01*
X8309082Y-15966469D02*
X8328130Y-15966469D01*
X8328130Y-15966469D02*
X8347177Y-15975993D01*
X8347177Y-15975993D02*
X8356701Y-15985516D01*
X8356701Y-15985516D02*
X8366225Y-16004564D01*
X8366225Y-16004564D02*
X8375749Y-16042659D01*
X8375749Y-16042659D02*
X8375749Y-16090278D01*
X8375749Y-16090278D02*
X8366225Y-16128374D01*
X8366225Y-16128374D02*
X8356701Y-16147421D01*
X8356701Y-16147421D02*
X8347177Y-16156945D01*
X8347177Y-16156945D02*
X8328130Y-16166469D01*
X8328130Y-16166469D02*
X8309082Y-16166469D01*
X8309082Y-16166469D02*
X8290034Y-16156945D01*
X8290034Y-16156945D02*
X8280510Y-16147421D01*
X8280510Y-16147421D02*
X8270987Y-16128374D01*
X8270987Y-16128374D02*
X8261463Y-16090278D01*
X8261463Y-16090278D02*
X8261463Y-16042659D01*
X8261463Y-16042659D02*
X8270987Y-16004564D01*
X8270987Y-16004564D02*
X8280510Y-15985516D01*
X8280510Y-15985516D02*
X8290034Y-15975993D01*
X8290034Y-15975993D02*
X8309082Y-15966469D01*
X8451939Y-15985516D02*
X8461463Y-15975993D01*
X8461463Y-15975993D02*
X8480511Y-15966469D01*
X8480511Y-15966469D02*
X8528130Y-15966469D01*
X8528130Y-15966469D02*
X8547177Y-15975993D01*
X8547177Y-15975993D02*
X8556701Y-15985516D01*
X8556701Y-15985516D02*
X8566225Y-16004564D01*
X8566225Y-16004564D02*
X8566225Y-16023612D01*
X8566225Y-16023612D02*
X8556701Y-16052183D01*
X8556701Y-16052183D02*
X8442415Y-16166469D01*
X8442415Y-16166469D02*
X8566225Y-16166469D01*
X8661463Y-16166469D02*
X8699558Y-16166469D01*
X8699558Y-16166469D02*
X8718606Y-16156945D01*
X8718606Y-16156945D02*
X8728130Y-16147421D01*
X8728130Y-16147421D02*
X8747177Y-16118850D01*
X8747177Y-16118850D02*
X8756701Y-16080755D01*
X8756701Y-16080755D02*
X8756701Y-16004564D01*
X8756701Y-16004564D02*
X8747177Y-15985516D01*
X8747177Y-15985516D02*
X8737653Y-15975993D01*
X8737653Y-15975993D02*
X8718606Y-15966469D01*
X8718606Y-15966469D02*
X8680511Y-15966469D01*
X8680511Y-15966469D02*
X8661463Y-15975993D01*
X8661463Y-15975993D02*
X8651939Y-15985516D01*
X8651939Y-15985516D02*
X8642415Y-16004564D01*
X8642415Y-16004564D02*
X8642415Y-16052183D01*
X8642415Y-16052183D02*
X8651939Y-16071231D01*
X8651939Y-16071231D02*
X8661463Y-16080755D01*
X8661463Y-16080755D02*
X8680511Y-16090278D01*
X8680511Y-16090278D02*
X8718606Y-16090278D01*
X8718606Y-16090278D02*
X8737653Y-16080755D01*
X8737653Y-16080755D02*
X8747177Y-16071231D01*
X8747177Y-16071231D02*
X8756701Y-16052183D01*
X8937653Y-15966469D02*
X8842415Y-15966469D01*
X8842415Y-15966469D02*
X8832892Y-16061707D01*
X8832892Y-16061707D02*
X8842415Y-16052183D01*
X8842415Y-16052183D02*
X8861463Y-16042659D01*
X8861463Y-16042659D02*
X8909082Y-16042659D01*
X8909082Y-16042659D02*
X8928130Y-16052183D01*
X8928130Y-16052183D02*
X8937653Y-16061707D01*
X8937653Y-16061707D02*
X8947177Y-16080755D01*
X8947177Y-16080755D02*
X8947177Y-16128374D01*
X8947177Y-16128374D02*
X8937653Y-16147421D01*
X8937653Y-16147421D02*
X8928130Y-16156945D01*
X8928130Y-16156945D02*
X8909082Y-16166469D01*
X8909082Y-16166469D02*
X8861463Y-16166469D01*
X8861463Y-16166469D02*
X8842415Y-16156945D01*
X8842415Y-16156945D02*
X8832892Y-16147421D01*
X9023368Y-15966469D02*
X9023368Y-16004564D01*
X9099558Y-15966469D02*
X9099558Y-16004564D01*
X9394796Y-16242659D02*
X9385273Y-16233135D01*
X9385273Y-16233135D02*
X9366225Y-16204564D01*
X9366225Y-16204564D02*
X9356701Y-16185516D01*
X9356701Y-16185516D02*
X9347177Y-16156945D01*
X9347177Y-16156945D02*
X9337654Y-16109326D01*
X9337654Y-16109326D02*
X9337654Y-16071231D01*
X9337654Y-16071231D02*
X9347177Y-16023612D01*
X9347177Y-16023612D02*
X9356701Y-15995040D01*
X9356701Y-15995040D02*
X9366225Y-15975993D01*
X9366225Y-15975993D02*
X9385273Y-15947421D01*
X9385273Y-15947421D02*
X9394796Y-15937897D01*
X9556701Y-16033135D02*
X9556701Y-16166469D01*
X9509082Y-15956945D02*
X9461463Y-16099802D01*
X9461463Y-16099802D02*
X9585273Y-16099802D01*
X9813844Y-16166469D02*
X9813844Y-15966469D01*
X9899558Y-16166469D02*
X9899558Y-16061707D01*
X9899558Y-16061707D02*
X9890035Y-16042659D01*
X9890035Y-16042659D02*
X9870987Y-16033135D01*
X9870987Y-16033135D02*
X9842415Y-16033135D01*
X9842415Y-16033135D02*
X9823368Y-16042659D01*
X9823368Y-16042659D02*
X9813844Y-16052183D01*
X10023368Y-16166469D02*
X10004320Y-16156945D01*
X10004320Y-16156945D02*
X9994796Y-16147421D01*
X9994796Y-16147421D02*
X9985273Y-16128374D01*
X9985273Y-16128374D02*
X9985273Y-16071231D01*
X9985273Y-16071231D02*
X9994796Y-16052183D01*
X9994796Y-16052183D02*
X10004320Y-16042659D01*
X10004320Y-16042659D02*
X10023368Y-16033135D01*
X10023368Y-16033135D02*
X10051939Y-16033135D01*
X10051939Y-16033135D02*
X10070987Y-16042659D01*
X10070987Y-16042659D02*
X10080511Y-16052183D01*
X10080511Y-16052183D02*
X10090035Y-16071231D01*
X10090035Y-16071231D02*
X10090035Y-16128374D01*
X10090035Y-16128374D02*
X10080511Y-16147421D01*
X10080511Y-16147421D02*
X10070987Y-16156945D01*
X10070987Y-16156945D02*
X10051939Y-16166469D01*
X10051939Y-16166469D02*
X10023368Y-16166469D01*
X10204320Y-16166469D02*
X10185273Y-16156945D01*
X10185273Y-16156945D02*
X10175749Y-16137897D01*
X10175749Y-16137897D02*
X10175749Y-15966469D01*
X10356701Y-16156945D02*
X10337654Y-16166469D01*
X10337654Y-16166469D02*
X10299558Y-16166469D01*
X10299558Y-16166469D02*
X10280511Y-16156945D01*
X10280511Y-16156945D02*
X10270987Y-16137897D01*
X10270987Y-16137897D02*
X10270987Y-16061707D01*
X10270987Y-16061707D02*
X10280511Y-16042659D01*
X10280511Y-16042659D02*
X10299558Y-16033135D01*
X10299558Y-16033135D02*
X10337654Y-16033135D01*
X10337654Y-16033135D02*
X10356701Y-16042659D01*
X10356701Y-16042659D02*
X10366225Y-16061707D01*
X10366225Y-16061707D02*
X10366225Y-16080755D01*
X10366225Y-16080755D02*
X10270987Y-16099802D01*
X10442416Y-16156945D02*
X10461463Y-16166469D01*
X10461463Y-16166469D02*
X10499558Y-16166469D01*
X10499558Y-16166469D02*
X10518606Y-16156945D01*
X10518606Y-16156945D02*
X10528130Y-16137897D01*
X10528130Y-16137897D02*
X10528130Y-16128374D01*
X10528130Y-16128374D02*
X10518606Y-16109326D01*
X10518606Y-16109326D02*
X10499558Y-16099802D01*
X10499558Y-16099802D02*
X10470987Y-16099802D01*
X10470987Y-16099802D02*
X10451939Y-16090278D01*
X10451939Y-16090278D02*
X10442416Y-16071231D01*
X10442416Y-16071231D02*
X10442416Y-16061707D01*
X10442416Y-16061707D02*
X10451939Y-16042659D01*
X10451939Y-16042659D02*
X10470987Y-16033135D01*
X10470987Y-16033135D02*
X10499558Y-16033135D01*
X10499558Y-16033135D02*
X10518606Y-16042659D01*
X10594797Y-16242659D02*
X10604320Y-16233135D01*
X10604320Y-16233135D02*
X10623368Y-16204564D01*
X10623368Y-16204564D02*
X10632892Y-16185516D01*
X10632892Y-16185516D02*
X10642416Y-16156945D01*
X10642416Y-16156945D02*
X10651939Y-16109326D01*
X10651939Y-16109326D02*
X10651939Y-16071231D01*
X10651939Y-16071231D02*
X10642416Y-16023612D01*
X10642416Y-16023612D02*
X10632892Y-15995040D01*
X10632892Y-15995040D02*
X10623368Y-15975993D01*
X10623368Y-15975993D02*
X10604320Y-15947421D01*
X10604320Y-15947421D02*
X10594797Y-15937897D01*
D10*
X5779733Y-16298985D02*
X5779733Y-16378985D01*
X5739733Y-16338985D02*
X5819733Y-16338985D01*
D12*
X6118605Y-16230469D02*
X6137653Y-16230469D01*
X6137653Y-16230469D02*
X6156701Y-16239993D01*
X6156701Y-16239993D02*
X6166225Y-16249516D01*
X6166225Y-16249516D02*
X6175748Y-16268564D01*
X6175748Y-16268564D02*
X6185272Y-16306659D01*
X6185272Y-16306659D02*
X6185272Y-16354278D01*
X6185272Y-16354278D02*
X6175748Y-16392374D01*
X6175748Y-16392374D02*
X6166225Y-16411421D01*
X6166225Y-16411421D02*
X6156701Y-16420945D01*
X6156701Y-16420945D02*
X6137653Y-16430469D01*
X6137653Y-16430469D02*
X6118605Y-16430469D01*
X6118605Y-16430469D02*
X6099558Y-16420945D01*
X6099558Y-16420945D02*
X6090034Y-16411421D01*
X6090034Y-16411421D02*
X6080510Y-16392374D01*
X6080510Y-16392374D02*
X6070986Y-16354278D01*
X6070986Y-16354278D02*
X6070986Y-16306659D01*
X6070986Y-16306659D02*
X6080510Y-16268564D01*
X6080510Y-16268564D02*
X6090034Y-16249516D01*
X6090034Y-16249516D02*
X6099558Y-16239993D01*
X6099558Y-16239993D02*
X6118605Y-16230469D01*
X6270986Y-16411421D02*
X6280510Y-16420945D01*
X6280510Y-16420945D02*
X6270986Y-16430469D01*
X6270986Y-16430469D02*
X6261463Y-16420945D01*
X6261463Y-16420945D02*
X6270986Y-16411421D01*
X6270986Y-16411421D02*
X6270986Y-16430469D01*
X6394796Y-16316183D02*
X6375748Y-16306659D01*
X6375748Y-16306659D02*
X6366225Y-16297135D01*
X6366225Y-16297135D02*
X6356701Y-16278088D01*
X6356701Y-16278088D02*
X6356701Y-16268564D01*
X6356701Y-16268564D02*
X6366225Y-16249516D01*
X6366225Y-16249516D02*
X6375748Y-16239993D01*
X6375748Y-16239993D02*
X6394796Y-16230469D01*
X6394796Y-16230469D02*
X6432891Y-16230469D01*
X6432891Y-16230469D02*
X6451939Y-16239993D01*
X6451939Y-16239993D02*
X6461463Y-16249516D01*
X6461463Y-16249516D02*
X6470986Y-16268564D01*
X6470986Y-16268564D02*
X6470986Y-16278088D01*
X6470986Y-16278088D02*
X6461463Y-16297135D01*
X6461463Y-16297135D02*
X6451939Y-16306659D01*
X6451939Y-16306659D02*
X6432891Y-16316183D01*
X6432891Y-16316183D02*
X6394796Y-16316183D01*
X6394796Y-16316183D02*
X6375748Y-16325707D01*
X6375748Y-16325707D02*
X6366225Y-16335231D01*
X6366225Y-16335231D02*
X6356701Y-16354278D01*
X6356701Y-16354278D02*
X6356701Y-16392374D01*
X6356701Y-16392374D02*
X6366225Y-16411421D01*
X6366225Y-16411421D02*
X6375748Y-16420945D01*
X6375748Y-16420945D02*
X6394796Y-16430469D01*
X6394796Y-16430469D02*
X6432891Y-16430469D01*
X6432891Y-16430469D02*
X6451939Y-16420945D01*
X6451939Y-16420945D02*
X6461463Y-16411421D01*
X6461463Y-16411421D02*
X6470986Y-16392374D01*
X6470986Y-16392374D02*
X6470986Y-16354278D01*
X6470986Y-16354278D02*
X6461463Y-16335231D01*
X6461463Y-16335231D02*
X6451939Y-16325707D01*
X6451939Y-16325707D02*
X6432891Y-16316183D01*
X6594796Y-16230469D02*
X6613844Y-16230469D01*
X6613844Y-16230469D02*
X6632891Y-16239993D01*
X6632891Y-16239993D02*
X6642415Y-16249516D01*
X6642415Y-16249516D02*
X6651939Y-16268564D01*
X6651939Y-16268564D02*
X6661463Y-16306659D01*
X6661463Y-16306659D02*
X6661463Y-16354278D01*
X6661463Y-16354278D02*
X6651939Y-16392374D01*
X6651939Y-16392374D02*
X6642415Y-16411421D01*
X6642415Y-16411421D02*
X6632891Y-16420945D01*
X6632891Y-16420945D02*
X6613844Y-16430469D01*
X6613844Y-16430469D02*
X6594796Y-16430469D01*
X6594796Y-16430469D02*
X6575748Y-16420945D01*
X6575748Y-16420945D02*
X6566225Y-16411421D01*
X6566225Y-16411421D02*
X6556701Y-16392374D01*
X6556701Y-16392374D02*
X6547177Y-16354278D01*
X6547177Y-16354278D02*
X6547177Y-16306659D01*
X6547177Y-16306659D02*
X6556701Y-16268564D01*
X6556701Y-16268564D02*
X6566225Y-16249516D01*
X6566225Y-16249516D02*
X6575748Y-16239993D01*
X6575748Y-16239993D02*
X6594796Y-16230469D01*
X6785272Y-16230469D02*
X6804320Y-16230469D01*
X6804320Y-16230469D02*
X6823367Y-16239993D01*
X6823367Y-16239993D02*
X6832891Y-16249516D01*
X6832891Y-16249516D02*
X6842415Y-16268564D01*
X6842415Y-16268564D02*
X6851939Y-16306659D01*
X6851939Y-16306659D02*
X6851939Y-16354278D01*
X6851939Y-16354278D02*
X6842415Y-16392374D01*
X6842415Y-16392374D02*
X6832891Y-16411421D01*
X6832891Y-16411421D02*
X6823367Y-16420945D01*
X6823367Y-16420945D02*
X6804320Y-16430469D01*
X6804320Y-16430469D02*
X6785272Y-16430469D01*
X6785272Y-16430469D02*
X6766225Y-16420945D01*
X6766225Y-16420945D02*
X6756701Y-16411421D01*
X6756701Y-16411421D02*
X6747177Y-16392374D01*
X6747177Y-16392374D02*
X6737653Y-16354278D01*
X6737653Y-16354278D02*
X6737653Y-16306659D01*
X6737653Y-16306659D02*
X6747177Y-16268564D01*
X6747177Y-16268564D02*
X6756701Y-16249516D01*
X6756701Y-16249516D02*
X6766225Y-16239993D01*
X6766225Y-16239993D02*
X6785272Y-16230469D01*
X6937653Y-16430469D02*
X6937653Y-16297135D01*
X6937653Y-16316183D02*
X6947177Y-16306659D01*
X6947177Y-16306659D02*
X6966225Y-16297135D01*
X6966225Y-16297135D02*
X6994796Y-16297135D01*
X6994796Y-16297135D02*
X7013844Y-16306659D01*
X7013844Y-16306659D02*
X7023367Y-16325707D01*
X7023367Y-16325707D02*
X7023367Y-16430469D01*
X7023367Y-16325707D02*
X7032891Y-16306659D01*
X7032891Y-16306659D02*
X7051939Y-16297135D01*
X7051939Y-16297135D02*
X7080510Y-16297135D01*
X7080510Y-16297135D02*
X7099558Y-16306659D01*
X7099558Y-16306659D02*
X7109082Y-16325707D01*
X7109082Y-16325707D02*
X7109082Y-16430469D01*
X7204320Y-16430469D02*
X7204320Y-16297135D01*
X7204320Y-16316183D02*
X7213844Y-16306659D01*
X7213844Y-16306659D02*
X7232891Y-16297135D01*
X7232891Y-16297135D02*
X7261463Y-16297135D01*
X7261463Y-16297135D02*
X7280510Y-16306659D01*
X7280510Y-16306659D02*
X7290034Y-16325707D01*
X7290034Y-16325707D02*
X7290034Y-16430469D01*
X7290034Y-16325707D02*
X7299558Y-16306659D01*
X7299558Y-16306659D02*
X7318606Y-16297135D01*
X7318606Y-16297135D02*
X7347177Y-16297135D01*
X7347177Y-16297135D02*
X7366225Y-16306659D01*
X7366225Y-16306659D02*
X7375748Y-16325707D01*
X7375748Y-16325707D02*
X7375748Y-16430469D01*
X7766225Y-16220945D02*
X7594796Y-16478088D01*
X8023368Y-16230469D02*
X8042415Y-16230469D01*
X8042415Y-16230469D02*
X8061463Y-16239993D01*
X8061463Y-16239993D02*
X8070987Y-16249516D01*
X8070987Y-16249516D02*
X8080510Y-16268564D01*
X8080510Y-16268564D02*
X8090034Y-16306659D01*
X8090034Y-16306659D02*
X8090034Y-16354278D01*
X8090034Y-16354278D02*
X8080510Y-16392374D01*
X8080510Y-16392374D02*
X8070987Y-16411421D01*
X8070987Y-16411421D02*
X8061463Y-16420945D01*
X8061463Y-16420945D02*
X8042415Y-16430469D01*
X8042415Y-16430469D02*
X8023368Y-16430469D01*
X8023368Y-16430469D02*
X8004320Y-16420945D01*
X8004320Y-16420945D02*
X7994796Y-16411421D01*
X7994796Y-16411421D02*
X7985272Y-16392374D01*
X7985272Y-16392374D02*
X7975749Y-16354278D01*
X7975749Y-16354278D02*
X7975749Y-16306659D01*
X7975749Y-16306659D02*
X7985272Y-16268564D01*
X7985272Y-16268564D02*
X7994796Y-16249516D01*
X7994796Y-16249516D02*
X8004320Y-16239993D01*
X8004320Y-16239993D02*
X8023368Y-16230469D01*
X8175749Y-16411421D02*
X8185272Y-16420945D01*
X8185272Y-16420945D02*
X8175749Y-16430469D01*
X8175749Y-16430469D02*
X8166225Y-16420945D01*
X8166225Y-16420945D02*
X8175749Y-16411421D01*
X8175749Y-16411421D02*
X8175749Y-16430469D01*
X8309082Y-16230469D02*
X8328130Y-16230469D01*
X8328130Y-16230469D02*
X8347177Y-16239993D01*
X8347177Y-16239993D02*
X8356701Y-16249516D01*
X8356701Y-16249516D02*
X8366225Y-16268564D01*
X8366225Y-16268564D02*
X8375749Y-16306659D01*
X8375749Y-16306659D02*
X8375749Y-16354278D01*
X8375749Y-16354278D02*
X8366225Y-16392374D01*
X8366225Y-16392374D02*
X8356701Y-16411421D01*
X8356701Y-16411421D02*
X8347177Y-16420945D01*
X8347177Y-16420945D02*
X8328130Y-16430469D01*
X8328130Y-16430469D02*
X8309082Y-16430469D01*
X8309082Y-16430469D02*
X8290034Y-16420945D01*
X8290034Y-16420945D02*
X8280510Y-16411421D01*
X8280510Y-16411421D02*
X8270987Y-16392374D01*
X8270987Y-16392374D02*
X8261463Y-16354278D01*
X8261463Y-16354278D02*
X8261463Y-16306659D01*
X8261463Y-16306659D02*
X8270987Y-16268564D01*
X8270987Y-16268564D02*
X8280510Y-16249516D01*
X8280510Y-16249516D02*
X8290034Y-16239993D01*
X8290034Y-16239993D02*
X8309082Y-16230469D01*
X8442415Y-16230469D02*
X8566225Y-16230469D01*
X8566225Y-16230469D02*
X8499558Y-16306659D01*
X8499558Y-16306659D02*
X8528130Y-16306659D01*
X8528130Y-16306659D02*
X8547177Y-16316183D01*
X8547177Y-16316183D02*
X8556701Y-16325707D01*
X8556701Y-16325707D02*
X8566225Y-16344755D01*
X8566225Y-16344755D02*
X8566225Y-16392374D01*
X8566225Y-16392374D02*
X8556701Y-16411421D01*
X8556701Y-16411421D02*
X8547177Y-16420945D01*
X8547177Y-16420945D02*
X8528130Y-16430469D01*
X8528130Y-16430469D02*
X8470987Y-16430469D01*
X8470987Y-16430469D02*
X8451939Y-16420945D01*
X8451939Y-16420945D02*
X8442415Y-16411421D01*
X8756701Y-16430469D02*
X8642415Y-16430469D01*
X8699558Y-16430469D02*
X8699558Y-16230469D01*
X8699558Y-16230469D02*
X8680511Y-16259040D01*
X8680511Y-16259040D02*
X8661463Y-16278088D01*
X8661463Y-16278088D02*
X8642415Y-16287612D01*
X8937653Y-16230469D02*
X8842415Y-16230469D01*
X8842415Y-16230469D02*
X8832892Y-16325707D01*
X8832892Y-16325707D02*
X8842415Y-16316183D01*
X8842415Y-16316183D02*
X8861463Y-16306659D01*
X8861463Y-16306659D02*
X8909082Y-16306659D01*
X8909082Y-16306659D02*
X8928130Y-16316183D01*
X8928130Y-16316183D02*
X8937653Y-16325707D01*
X8937653Y-16325707D02*
X8947177Y-16344755D01*
X8947177Y-16344755D02*
X8947177Y-16392374D01*
X8947177Y-16392374D02*
X8937653Y-16411421D01*
X8937653Y-16411421D02*
X8928130Y-16420945D01*
X8928130Y-16420945D02*
X8909082Y-16430469D01*
X8909082Y-16430469D02*
X8861463Y-16430469D01*
X8861463Y-16430469D02*
X8842415Y-16420945D01*
X8842415Y-16420945D02*
X8832892Y-16411421D01*
X9023368Y-16230469D02*
X9023368Y-16268564D01*
X9099558Y-16230469D02*
X9099558Y-16268564D01*
X9394796Y-16506659D02*
X9385273Y-16497135D01*
X9385273Y-16497135D02*
X9366225Y-16468564D01*
X9366225Y-16468564D02*
X9356701Y-16449516D01*
X9356701Y-16449516D02*
X9347177Y-16420945D01*
X9347177Y-16420945D02*
X9337654Y-16373326D01*
X9337654Y-16373326D02*
X9337654Y-16335231D01*
X9337654Y-16335231D02*
X9347177Y-16287612D01*
X9347177Y-16287612D02*
X9356701Y-16259040D01*
X9356701Y-16259040D02*
X9366225Y-16239993D01*
X9366225Y-16239993D02*
X9385273Y-16211421D01*
X9385273Y-16211421D02*
X9394796Y-16201897D01*
X9499558Y-16316183D02*
X9480511Y-16306659D01*
X9480511Y-16306659D02*
X9470987Y-16297135D01*
X9470987Y-16297135D02*
X9461463Y-16278088D01*
X9461463Y-16278088D02*
X9461463Y-16268564D01*
X9461463Y-16268564D02*
X9470987Y-16249516D01*
X9470987Y-16249516D02*
X9480511Y-16239993D01*
X9480511Y-16239993D02*
X9499558Y-16230469D01*
X9499558Y-16230469D02*
X9537654Y-16230469D01*
X9537654Y-16230469D02*
X9556701Y-16239993D01*
X9556701Y-16239993D02*
X9566225Y-16249516D01*
X9566225Y-16249516D02*
X9575749Y-16268564D01*
X9575749Y-16268564D02*
X9575749Y-16278088D01*
X9575749Y-16278088D02*
X9566225Y-16297135D01*
X9566225Y-16297135D02*
X9556701Y-16306659D01*
X9556701Y-16306659D02*
X9537654Y-16316183D01*
X9537654Y-16316183D02*
X9499558Y-16316183D01*
X9499558Y-16316183D02*
X9480511Y-16325707D01*
X9480511Y-16325707D02*
X9470987Y-16335231D01*
X9470987Y-16335231D02*
X9461463Y-16354278D01*
X9461463Y-16354278D02*
X9461463Y-16392374D01*
X9461463Y-16392374D02*
X9470987Y-16411421D01*
X9470987Y-16411421D02*
X9480511Y-16420945D01*
X9480511Y-16420945D02*
X9499558Y-16430469D01*
X9499558Y-16430469D02*
X9537654Y-16430469D01*
X9537654Y-16430469D02*
X9556701Y-16420945D01*
X9556701Y-16420945D02*
X9566225Y-16411421D01*
X9566225Y-16411421D02*
X9575749Y-16392374D01*
X9575749Y-16392374D02*
X9575749Y-16354278D01*
X9575749Y-16354278D02*
X9566225Y-16335231D01*
X9566225Y-16335231D02*
X9556701Y-16325707D01*
X9556701Y-16325707D02*
X9537654Y-16316183D01*
X9747177Y-16297135D02*
X9747177Y-16430469D01*
X9699558Y-16220945D02*
X9651939Y-16363802D01*
X9651939Y-16363802D02*
X9775749Y-16363802D01*
X10004320Y-16430469D02*
X10004320Y-16230469D01*
X10090035Y-16430469D02*
X10090035Y-16325707D01*
X10090035Y-16325707D02*
X10080511Y-16306659D01*
X10080511Y-16306659D02*
X10061463Y-16297135D01*
X10061463Y-16297135D02*
X10032892Y-16297135D01*
X10032892Y-16297135D02*
X10013844Y-16306659D01*
X10013844Y-16306659D02*
X10004320Y-16316183D01*
X10213844Y-16430469D02*
X10194796Y-16420945D01*
X10194796Y-16420945D02*
X10185273Y-16411421D01*
X10185273Y-16411421D02*
X10175749Y-16392374D01*
X10175749Y-16392374D02*
X10175749Y-16335231D01*
X10175749Y-16335231D02*
X10185273Y-16316183D01*
X10185273Y-16316183D02*
X10194796Y-16306659D01*
X10194796Y-16306659D02*
X10213844Y-16297135D01*
X10213844Y-16297135D02*
X10242416Y-16297135D01*
X10242416Y-16297135D02*
X10261463Y-16306659D01*
X10261463Y-16306659D02*
X10270987Y-16316183D01*
X10270987Y-16316183D02*
X10280511Y-16335231D01*
X10280511Y-16335231D02*
X10280511Y-16392374D01*
X10280511Y-16392374D02*
X10270987Y-16411421D01*
X10270987Y-16411421D02*
X10261463Y-16420945D01*
X10261463Y-16420945D02*
X10242416Y-16430469D01*
X10242416Y-16430469D02*
X10213844Y-16430469D01*
X10394796Y-16430469D02*
X10375749Y-16420945D01*
X10375749Y-16420945D02*
X10366225Y-16401897D01*
X10366225Y-16401897D02*
X10366225Y-16230469D01*
X10547177Y-16420945D02*
X10528130Y-16430469D01*
X10528130Y-16430469D02*
X10490035Y-16430469D01*
X10490035Y-16430469D02*
X10470987Y-16420945D01*
X10470987Y-16420945D02*
X10461463Y-16401897D01*
X10461463Y-16401897D02*
X10461463Y-16325707D01*
X10461463Y-16325707D02*
X10470987Y-16306659D01*
X10470987Y-16306659D02*
X10490035Y-16297135D01*
X10490035Y-16297135D02*
X10528130Y-16297135D01*
X10528130Y-16297135D02*
X10547177Y-16306659D01*
X10547177Y-16306659D02*
X10556701Y-16325707D01*
X10556701Y-16325707D02*
X10556701Y-16344755D01*
X10556701Y-16344755D02*
X10461463Y-16363802D01*
X10632892Y-16420945D02*
X10651939Y-16430469D01*
X10651939Y-16430469D02*
X10690035Y-16430469D01*
X10690035Y-16430469D02*
X10709082Y-16420945D01*
X10709082Y-16420945D02*
X10718606Y-16401897D01*
X10718606Y-16401897D02*
X10718606Y-16392374D01*
X10718606Y-16392374D02*
X10709082Y-16373326D01*
X10709082Y-16373326D02*
X10690035Y-16363802D01*
X10690035Y-16363802D02*
X10661463Y-16363802D01*
X10661463Y-16363802D02*
X10642416Y-16354278D01*
X10642416Y-16354278D02*
X10632892Y-16335231D01*
X10632892Y-16335231D02*
X10632892Y-16325707D01*
X10632892Y-16325707D02*
X10642416Y-16306659D01*
X10642416Y-16306659D02*
X10661463Y-16297135D01*
X10661463Y-16297135D02*
X10690035Y-16297135D01*
X10690035Y-16297135D02*
X10709082Y-16306659D01*
X10785273Y-16506659D02*
X10794797Y-16497135D01*
X10794797Y-16497135D02*
X10813844Y-16468564D01*
X10813844Y-16468564D02*
X10823368Y-16449516D01*
X10823368Y-16449516D02*
X10832892Y-16420945D01*
X10832892Y-16420945D02*
X10842416Y-16373326D01*
X10842416Y-16373326D02*
X10842416Y-16335231D01*
X10842416Y-16335231D02*
X10832892Y-16287612D01*
X10832892Y-16287612D02*
X10823368Y-16259040D01*
X10823368Y-16259040D02*
X10813844Y-16239993D01*
X10813844Y-16239993D02*
X10794797Y-16211421D01*
X10794797Y-16211421D02*
X10785273Y-16201897D01*
D10*
X5806554Y-16634805D02*
X5806554Y-16571165D01*
X5742913Y-16571165D01*
X5742913Y-16634805D01*
X5806554Y-16634805D01*
D12*
X6118605Y-16494469D02*
X6137653Y-16494469D01*
X6137653Y-16494469D02*
X6156701Y-16503993D01*
X6156701Y-16503993D02*
X6166225Y-16513516D01*
X6166225Y-16513516D02*
X6175748Y-16532564D01*
X6175748Y-16532564D02*
X6185272Y-16570659D01*
X6185272Y-16570659D02*
X6185272Y-16618278D01*
X6185272Y-16618278D02*
X6175748Y-16656374D01*
X6175748Y-16656374D02*
X6166225Y-16675421D01*
X6166225Y-16675421D02*
X6156701Y-16684945D01*
X6156701Y-16684945D02*
X6137653Y-16694469D01*
X6137653Y-16694469D02*
X6118605Y-16694469D01*
X6118605Y-16694469D02*
X6099558Y-16684945D01*
X6099558Y-16684945D02*
X6090034Y-16675421D01*
X6090034Y-16675421D02*
X6080510Y-16656374D01*
X6080510Y-16656374D02*
X6070986Y-16618278D01*
X6070986Y-16618278D02*
X6070986Y-16570659D01*
X6070986Y-16570659D02*
X6080510Y-16532564D01*
X6080510Y-16532564D02*
X6090034Y-16513516D01*
X6090034Y-16513516D02*
X6099558Y-16503993D01*
X6099558Y-16503993D02*
X6118605Y-16494469D01*
X6270986Y-16675421D02*
X6280510Y-16684945D01*
X6280510Y-16684945D02*
X6270986Y-16694469D01*
X6270986Y-16694469D02*
X6261463Y-16684945D01*
X6261463Y-16684945D02*
X6270986Y-16675421D01*
X6270986Y-16675421D02*
X6270986Y-16694469D01*
X6375748Y-16694469D02*
X6413844Y-16694469D01*
X6413844Y-16694469D02*
X6432891Y-16684945D01*
X6432891Y-16684945D02*
X6442415Y-16675421D01*
X6442415Y-16675421D02*
X6461463Y-16646850D01*
X6461463Y-16646850D02*
X6470986Y-16608755D01*
X6470986Y-16608755D02*
X6470986Y-16532564D01*
X6470986Y-16532564D02*
X6461463Y-16513516D01*
X6461463Y-16513516D02*
X6451939Y-16503993D01*
X6451939Y-16503993D02*
X6432891Y-16494469D01*
X6432891Y-16494469D02*
X6394796Y-16494469D01*
X6394796Y-16494469D02*
X6375748Y-16503993D01*
X6375748Y-16503993D02*
X6366225Y-16513516D01*
X6366225Y-16513516D02*
X6356701Y-16532564D01*
X6356701Y-16532564D02*
X6356701Y-16580183D01*
X6356701Y-16580183D02*
X6366225Y-16599231D01*
X6366225Y-16599231D02*
X6375748Y-16608755D01*
X6375748Y-16608755D02*
X6394796Y-16618278D01*
X6394796Y-16618278D02*
X6432891Y-16618278D01*
X6432891Y-16618278D02*
X6451939Y-16608755D01*
X6451939Y-16608755D02*
X6461463Y-16599231D01*
X6461463Y-16599231D02*
X6470986Y-16580183D01*
X6594796Y-16494469D02*
X6613844Y-16494469D01*
X6613844Y-16494469D02*
X6632891Y-16503993D01*
X6632891Y-16503993D02*
X6642415Y-16513516D01*
X6642415Y-16513516D02*
X6651939Y-16532564D01*
X6651939Y-16532564D02*
X6661463Y-16570659D01*
X6661463Y-16570659D02*
X6661463Y-16618278D01*
X6661463Y-16618278D02*
X6651939Y-16656374D01*
X6651939Y-16656374D02*
X6642415Y-16675421D01*
X6642415Y-16675421D02*
X6632891Y-16684945D01*
X6632891Y-16684945D02*
X6613844Y-16694469D01*
X6613844Y-16694469D02*
X6594796Y-16694469D01*
X6594796Y-16694469D02*
X6575748Y-16684945D01*
X6575748Y-16684945D02*
X6566225Y-16675421D01*
X6566225Y-16675421D02*
X6556701Y-16656374D01*
X6556701Y-16656374D02*
X6547177Y-16618278D01*
X6547177Y-16618278D02*
X6547177Y-16570659D01*
X6547177Y-16570659D02*
X6556701Y-16532564D01*
X6556701Y-16532564D02*
X6566225Y-16513516D01*
X6566225Y-16513516D02*
X6575748Y-16503993D01*
X6575748Y-16503993D02*
X6594796Y-16494469D01*
X6785272Y-16494469D02*
X6804320Y-16494469D01*
X6804320Y-16494469D02*
X6823367Y-16503993D01*
X6823367Y-16503993D02*
X6832891Y-16513516D01*
X6832891Y-16513516D02*
X6842415Y-16532564D01*
X6842415Y-16532564D02*
X6851939Y-16570659D01*
X6851939Y-16570659D02*
X6851939Y-16618278D01*
X6851939Y-16618278D02*
X6842415Y-16656374D01*
X6842415Y-16656374D02*
X6832891Y-16675421D01*
X6832891Y-16675421D02*
X6823367Y-16684945D01*
X6823367Y-16684945D02*
X6804320Y-16694469D01*
X6804320Y-16694469D02*
X6785272Y-16694469D01*
X6785272Y-16694469D02*
X6766225Y-16684945D01*
X6766225Y-16684945D02*
X6756701Y-16675421D01*
X6756701Y-16675421D02*
X6747177Y-16656374D01*
X6747177Y-16656374D02*
X6737653Y-16618278D01*
X6737653Y-16618278D02*
X6737653Y-16570659D01*
X6737653Y-16570659D02*
X6747177Y-16532564D01*
X6747177Y-16532564D02*
X6756701Y-16513516D01*
X6756701Y-16513516D02*
X6766225Y-16503993D01*
X6766225Y-16503993D02*
X6785272Y-16494469D01*
X6937653Y-16694469D02*
X6937653Y-16561135D01*
X6937653Y-16580183D02*
X6947177Y-16570659D01*
X6947177Y-16570659D02*
X6966225Y-16561135D01*
X6966225Y-16561135D02*
X6994796Y-16561135D01*
X6994796Y-16561135D02*
X7013844Y-16570659D01*
X7013844Y-16570659D02*
X7023367Y-16589707D01*
X7023367Y-16589707D02*
X7023367Y-16694469D01*
X7023367Y-16589707D02*
X7032891Y-16570659D01*
X7032891Y-16570659D02*
X7051939Y-16561135D01*
X7051939Y-16561135D02*
X7080510Y-16561135D01*
X7080510Y-16561135D02*
X7099558Y-16570659D01*
X7099558Y-16570659D02*
X7109082Y-16589707D01*
X7109082Y-16589707D02*
X7109082Y-16694469D01*
X7204320Y-16694469D02*
X7204320Y-16561135D01*
X7204320Y-16580183D02*
X7213844Y-16570659D01*
X7213844Y-16570659D02*
X7232891Y-16561135D01*
X7232891Y-16561135D02*
X7261463Y-16561135D01*
X7261463Y-16561135D02*
X7280510Y-16570659D01*
X7280510Y-16570659D02*
X7290034Y-16589707D01*
X7290034Y-16589707D02*
X7290034Y-16694469D01*
X7290034Y-16589707D02*
X7299558Y-16570659D01*
X7299558Y-16570659D02*
X7318606Y-16561135D01*
X7318606Y-16561135D02*
X7347177Y-16561135D01*
X7347177Y-16561135D02*
X7366225Y-16570659D01*
X7366225Y-16570659D02*
X7375748Y-16589707D01*
X7375748Y-16589707D02*
X7375748Y-16694469D01*
X7766225Y-16484945D02*
X7594796Y-16742088D01*
X8023368Y-16494469D02*
X8042415Y-16494469D01*
X8042415Y-16494469D02*
X8061463Y-16503993D01*
X8061463Y-16503993D02*
X8070987Y-16513516D01*
X8070987Y-16513516D02*
X8080510Y-16532564D01*
X8080510Y-16532564D02*
X8090034Y-16570659D01*
X8090034Y-16570659D02*
X8090034Y-16618278D01*
X8090034Y-16618278D02*
X8080510Y-16656374D01*
X8080510Y-16656374D02*
X8070987Y-16675421D01*
X8070987Y-16675421D02*
X8061463Y-16684945D01*
X8061463Y-16684945D02*
X8042415Y-16694469D01*
X8042415Y-16694469D02*
X8023368Y-16694469D01*
X8023368Y-16694469D02*
X8004320Y-16684945D01*
X8004320Y-16684945D02*
X7994796Y-16675421D01*
X7994796Y-16675421D02*
X7985272Y-16656374D01*
X7985272Y-16656374D02*
X7975749Y-16618278D01*
X7975749Y-16618278D02*
X7975749Y-16570659D01*
X7975749Y-16570659D02*
X7985272Y-16532564D01*
X7985272Y-16532564D02*
X7994796Y-16513516D01*
X7994796Y-16513516D02*
X8004320Y-16503993D01*
X8004320Y-16503993D02*
X8023368Y-16494469D01*
X8175749Y-16675421D02*
X8185272Y-16684945D01*
X8185272Y-16684945D02*
X8175749Y-16694469D01*
X8175749Y-16694469D02*
X8166225Y-16684945D01*
X8166225Y-16684945D02*
X8175749Y-16675421D01*
X8175749Y-16675421D02*
X8175749Y-16694469D01*
X8309082Y-16494469D02*
X8328130Y-16494469D01*
X8328130Y-16494469D02*
X8347177Y-16503993D01*
X8347177Y-16503993D02*
X8356701Y-16513516D01*
X8356701Y-16513516D02*
X8366225Y-16532564D01*
X8366225Y-16532564D02*
X8375749Y-16570659D01*
X8375749Y-16570659D02*
X8375749Y-16618278D01*
X8375749Y-16618278D02*
X8366225Y-16656374D01*
X8366225Y-16656374D02*
X8356701Y-16675421D01*
X8356701Y-16675421D02*
X8347177Y-16684945D01*
X8347177Y-16684945D02*
X8328130Y-16694469D01*
X8328130Y-16694469D02*
X8309082Y-16694469D01*
X8309082Y-16694469D02*
X8290034Y-16684945D01*
X8290034Y-16684945D02*
X8280510Y-16675421D01*
X8280510Y-16675421D02*
X8270987Y-16656374D01*
X8270987Y-16656374D02*
X8261463Y-16618278D01*
X8261463Y-16618278D02*
X8261463Y-16570659D01*
X8261463Y-16570659D02*
X8270987Y-16532564D01*
X8270987Y-16532564D02*
X8280510Y-16513516D01*
X8280510Y-16513516D02*
X8290034Y-16503993D01*
X8290034Y-16503993D02*
X8309082Y-16494469D01*
X8442415Y-16494469D02*
X8566225Y-16494469D01*
X8566225Y-16494469D02*
X8499558Y-16570659D01*
X8499558Y-16570659D02*
X8528130Y-16570659D01*
X8528130Y-16570659D02*
X8547177Y-16580183D01*
X8547177Y-16580183D02*
X8556701Y-16589707D01*
X8556701Y-16589707D02*
X8566225Y-16608755D01*
X8566225Y-16608755D02*
X8566225Y-16656374D01*
X8566225Y-16656374D02*
X8556701Y-16675421D01*
X8556701Y-16675421D02*
X8547177Y-16684945D01*
X8547177Y-16684945D02*
X8528130Y-16694469D01*
X8528130Y-16694469D02*
X8470987Y-16694469D01*
X8470987Y-16694469D02*
X8451939Y-16684945D01*
X8451939Y-16684945D02*
X8442415Y-16675421D01*
X8747177Y-16494469D02*
X8651939Y-16494469D01*
X8651939Y-16494469D02*
X8642415Y-16589707D01*
X8642415Y-16589707D02*
X8651939Y-16580183D01*
X8651939Y-16580183D02*
X8670987Y-16570659D01*
X8670987Y-16570659D02*
X8718606Y-16570659D01*
X8718606Y-16570659D02*
X8737653Y-16580183D01*
X8737653Y-16580183D02*
X8747177Y-16589707D01*
X8747177Y-16589707D02*
X8756701Y-16608755D01*
X8756701Y-16608755D02*
X8756701Y-16656374D01*
X8756701Y-16656374D02*
X8747177Y-16675421D01*
X8747177Y-16675421D02*
X8737653Y-16684945D01*
X8737653Y-16684945D02*
X8718606Y-16694469D01*
X8718606Y-16694469D02*
X8670987Y-16694469D01*
X8670987Y-16694469D02*
X8651939Y-16684945D01*
X8651939Y-16684945D02*
X8642415Y-16675421D01*
X8928130Y-16561135D02*
X8928130Y-16694469D01*
X8880511Y-16484945D02*
X8832892Y-16627802D01*
X8832892Y-16627802D02*
X8956701Y-16627802D01*
X9023368Y-16494469D02*
X9023368Y-16532564D01*
X9099558Y-16494469D02*
X9099558Y-16532564D01*
X9394796Y-16770659D02*
X9385273Y-16761135D01*
X9385273Y-16761135D02*
X9366225Y-16732564D01*
X9366225Y-16732564D02*
X9356701Y-16713516D01*
X9356701Y-16713516D02*
X9347177Y-16684945D01*
X9347177Y-16684945D02*
X9337654Y-16637326D01*
X9337654Y-16637326D02*
X9337654Y-16599231D01*
X9337654Y-16599231D02*
X9347177Y-16551612D01*
X9347177Y-16551612D02*
X9356701Y-16523040D01*
X9356701Y-16523040D02*
X9366225Y-16503993D01*
X9366225Y-16503993D02*
X9385273Y-16475421D01*
X9385273Y-16475421D02*
X9394796Y-16465897D01*
X9509082Y-16494469D02*
X9528130Y-16494469D01*
X9528130Y-16494469D02*
X9547177Y-16503993D01*
X9547177Y-16503993D02*
X9556701Y-16513516D01*
X9556701Y-16513516D02*
X9566225Y-16532564D01*
X9566225Y-16532564D02*
X9575749Y-16570659D01*
X9575749Y-16570659D02*
X9575749Y-16618278D01*
X9575749Y-16618278D02*
X9566225Y-16656374D01*
X9566225Y-16656374D02*
X9556701Y-16675421D01*
X9556701Y-16675421D02*
X9547177Y-16684945D01*
X9547177Y-16684945D02*
X9528130Y-16694469D01*
X9528130Y-16694469D02*
X9509082Y-16694469D01*
X9509082Y-16694469D02*
X9490034Y-16684945D01*
X9490034Y-16684945D02*
X9480511Y-16675421D01*
X9480511Y-16675421D02*
X9470987Y-16656374D01*
X9470987Y-16656374D02*
X9461463Y-16618278D01*
X9461463Y-16618278D02*
X9461463Y-16570659D01*
X9461463Y-16570659D02*
X9470987Y-16532564D01*
X9470987Y-16532564D02*
X9480511Y-16513516D01*
X9480511Y-16513516D02*
X9490034Y-16503993D01*
X9490034Y-16503993D02*
X9509082Y-16494469D01*
X9813844Y-16694469D02*
X9813844Y-16494469D01*
X9899558Y-16694469D02*
X9899558Y-16589707D01*
X9899558Y-16589707D02*
X9890035Y-16570659D01*
X9890035Y-16570659D02*
X9870987Y-16561135D01*
X9870987Y-16561135D02*
X9842415Y-16561135D01*
X9842415Y-16561135D02*
X9823368Y-16570659D01*
X9823368Y-16570659D02*
X9813844Y-16580183D01*
X10023368Y-16694469D02*
X10004320Y-16684945D01*
X10004320Y-16684945D02*
X9994796Y-16675421D01*
X9994796Y-16675421D02*
X9985273Y-16656374D01*
X9985273Y-16656374D02*
X9985273Y-16599231D01*
X9985273Y-16599231D02*
X9994796Y-16580183D01*
X9994796Y-16580183D02*
X10004320Y-16570659D01*
X10004320Y-16570659D02*
X10023368Y-16561135D01*
X10023368Y-16561135D02*
X10051939Y-16561135D01*
X10051939Y-16561135D02*
X10070987Y-16570659D01*
X10070987Y-16570659D02*
X10080511Y-16580183D01*
X10080511Y-16580183D02*
X10090035Y-16599231D01*
X10090035Y-16599231D02*
X10090035Y-16656374D01*
X10090035Y-16656374D02*
X10080511Y-16675421D01*
X10080511Y-16675421D02*
X10070987Y-16684945D01*
X10070987Y-16684945D02*
X10051939Y-16694469D01*
X10051939Y-16694469D02*
X10023368Y-16694469D01*
X10204320Y-16694469D02*
X10185273Y-16684945D01*
X10185273Y-16684945D02*
X10175749Y-16665897D01*
X10175749Y-16665897D02*
X10175749Y-16494469D01*
X10356701Y-16684945D02*
X10337654Y-16694469D01*
X10337654Y-16694469D02*
X10299558Y-16694469D01*
X10299558Y-16694469D02*
X10280511Y-16684945D01*
X10280511Y-16684945D02*
X10270987Y-16665897D01*
X10270987Y-16665897D02*
X10270987Y-16589707D01*
X10270987Y-16589707D02*
X10280511Y-16570659D01*
X10280511Y-16570659D02*
X10299558Y-16561135D01*
X10299558Y-16561135D02*
X10337654Y-16561135D01*
X10337654Y-16561135D02*
X10356701Y-16570659D01*
X10356701Y-16570659D02*
X10366225Y-16589707D01*
X10366225Y-16589707D02*
X10366225Y-16608755D01*
X10366225Y-16608755D02*
X10270987Y-16627802D01*
X10442416Y-16684945D02*
X10461463Y-16694469D01*
X10461463Y-16694469D02*
X10499558Y-16694469D01*
X10499558Y-16694469D02*
X10518606Y-16684945D01*
X10518606Y-16684945D02*
X10528130Y-16665897D01*
X10528130Y-16665897D02*
X10528130Y-16656374D01*
X10528130Y-16656374D02*
X10518606Y-16637326D01*
X10518606Y-16637326D02*
X10499558Y-16627802D01*
X10499558Y-16627802D02*
X10470987Y-16627802D01*
X10470987Y-16627802D02*
X10451939Y-16618278D01*
X10451939Y-16618278D02*
X10442416Y-16599231D01*
X10442416Y-16599231D02*
X10442416Y-16589707D01*
X10442416Y-16589707D02*
X10451939Y-16570659D01*
X10451939Y-16570659D02*
X10470987Y-16561135D01*
X10470987Y-16561135D02*
X10499558Y-16561135D01*
X10499558Y-16561135D02*
X10518606Y-16570659D01*
X10766225Y-16618278D02*
X10918606Y-16618278D01*
X10842416Y-16694469D02*
X10842416Y-16542088D01*
X11194796Y-16580183D02*
X11175749Y-16570659D01*
X11175749Y-16570659D02*
X11166225Y-16561135D01*
X11166225Y-16561135D02*
X11156701Y-16542088D01*
X11156701Y-16542088D02*
X11156701Y-16532564D01*
X11156701Y-16532564D02*
X11166225Y-16513516D01*
X11166225Y-16513516D02*
X11175749Y-16503993D01*
X11175749Y-16503993D02*
X11194796Y-16494469D01*
X11194796Y-16494469D02*
X11232892Y-16494469D01*
X11232892Y-16494469D02*
X11251939Y-16503993D01*
X11251939Y-16503993D02*
X11261463Y-16513516D01*
X11261463Y-16513516D02*
X11270987Y-16532564D01*
X11270987Y-16532564D02*
X11270987Y-16542088D01*
X11270987Y-16542088D02*
X11261463Y-16561135D01*
X11261463Y-16561135D02*
X11251939Y-16570659D01*
X11251939Y-16570659D02*
X11232892Y-16580183D01*
X11232892Y-16580183D02*
X11194796Y-16580183D01*
X11194796Y-16580183D02*
X11175749Y-16589707D01*
X11175749Y-16589707D02*
X11166225Y-16599231D01*
X11166225Y-16599231D02*
X11156701Y-16618278D01*
X11156701Y-16618278D02*
X11156701Y-16656374D01*
X11156701Y-16656374D02*
X11166225Y-16675421D01*
X11166225Y-16675421D02*
X11175749Y-16684945D01*
X11175749Y-16684945D02*
X11194796Y-16694469D01*
X11194796Y-16694469D02*
X11232892Y-16694469D01*
X11232892Y-16694469D02*
X11251939Y-16684945D01*
X11251939Y-16684945D02*
X11261463Y-16675421D01*
X11261463Y-16675421D02*
X11270987Y-16656374D01*
X11270987Y-16656374D02*
X11270987Y-16618278D01*
X11270987Y-16618278D02*
X11261463Y-16599231D01*
X11261463Y-16599231D02*
X11251939Y-16589707D01*
X11251939Y-16589707D02*
X11232892Y-16580183D01*
X11499558Y-16684945D02*
X11518606Y-16694469D01*
X11518606Y-16694469D02*
X11556701Y-16694469D01*
X11556701Y-16694469D02*
X11575749Y-16684945D01*
X11575749Y-16684945D02*
X11585273Y-16665897D01*
X11585273Y-16665897D02*
X11585273Y-16656374D01*
X11585273Y-16656374D02*
X11575749Y-16637326D01*
X11575749Y-16637326D02*
X11556701Y-16627802D01*
X11556701Y-16627802D02*
X11528130Y-16627802D01*
X11528130Y-16627802D02*
X11509082Y-16618278D01*
X11509082Y-16618278D02*
X11499558Y-16599231D01*
X11499558Y-16599231D02*
X11499558Y-16589707D01*
X11499558Y-16589707D02*
X11509082Y-16570659D01*
X11509082Y-16570659D02*
X11528130Y-16561135D01*
X11528130Y-16561135D02*
X11556701Y-16561135D01*
X11556701Y-16561135D02*
X11575749Y-16570659D01*
X11699558Y-16694469D02*
X11680511Y-16684945D01*
X11680511Y-16684945D02*
X11670987Y-16665897D01*
X11670987Y-16665897D02*
X11670987Y-16494469D01*
X11804320Y-16694469D02*
X11785273Y-16684945D01*
X11785273Y-16684945D02*
X11775749Y-16675421D01*
X11775749Y-16675421D02*
X11766225Y-16656374D01*
X11766225Y-16656374D02*
X11766225Y-16599231D01*
X11766225Y-16599231D02*
X11775749Y-16580183D01*
X11775749Y-16580183D02*
X11785273Y-16570659D01*
X11785273Y-16570659D02*
X11804320Y-16561135D01*
X11804320Y-16561135D02*
X11832892Y-16561135D01*
X11832892Y-16561135D02*
X11851939Y-16570659D01*
X11851939Y-16570659D02*
X11861463Y-16580183D01*
X11861463Y-16580183D02*
X11870987Y-16599231D01*
X11870987Y-16599231D02*
X11870987Y-16656374D01*
X11870987Y-16656374D02*
X11861463Y-16675421D01*
X11861463Y-16675421D02*
X11851939Y-16684945D01*
X11851939Y-16684945D02*
X11832892Y-16694469D01*
X11832892Y-16694469D02*
X11804320Y-16694469D01*
X11928130Y-16561135D02*
X12004320Y-16561135D01*
X11956701Y-16494469D02*
X11956701Y-16665897D01*
X11956701Y-16665897D02*
X11966225Y-16684945D01*
X11966225Y-16684945D02*
X11985273Y-16694469D01*
X11985273Y-16694469D02*
X12004320Y-16694469D01*
X12061463Y-16684945D02*
X12080511Y-16694469D01*
X12080511Y-16694469D02*
X12118606Y-16694469D01*
X12118606Y-16694469D02*
X12137654Y-16684945D01*
X12137654Y-16684945D02*
X12147178Y-16665897D01*
X12147178Y-16665897D02*
X12147178Y-16656374D01*
X12147178Y-16656374D02*
X12137654Y-16637326D01*
X12137654Y-16637326D02*
X12118606Y-16627802D01*
X12118606Y-16627802D02*
X12090035Y-16627802D01*
X12090035Y-16627802D02*
X12070987Y-16618278D01*
X12070987Y-16618278D02*
X12061463Y-16599231D01*
X12061463Y-16599231D02*
X12061463Y-16589707D01*
X12061463Y-16589707D02*
X12070987Y-16570659D01*
X12070987Y-16570659D02*
X12090035Y-16561135D01*
X12090035Y-16561135D02*
X12118606Y-16561135D01*
X12118606Y-16561135D02*
X12137654Y-16570659D01*
X12213844Y-16770659D02*
X12223368Y-16761135D01*
X12223368Y-16761135D02*
X12242416Y-16732564D01*
X12242416Y-16732564D02*
X12251939Y-16713516D01*
X12251939Y-16713516D02*
X12261463Y-16684945D01*
X12261463Y-16684945D02*
X12270987Y-16637326D01*
X12270987Y-16637326D02*
X12270987Y-16599231D01*
X12270987Y-16599231D02*
X12261463Y-16551612D01*
X12261463Y-16551612D02*
X12251939Y-16523040D01*
X12251939Y-16523040D02*
X12242416Y-16503993D01*
X12242416Y-16503993D02*
X12223368Y-16475421D01*
X12223368Y-16475421D02*
X12213844Y-16465897D01*
D10*
X5769733Y-16916985D02*
X5819733Y-16866985D01*
X5769733Y-16816985D01*
X5719733Y-16866985D01*
X5769733Y-16916985D01*
D12*
X6185272Y-16958469D02*
X6070986Y-16958469D01*
X6128129Y-16958469D02*
X6128129Y-16758469D01*
X6128129Y-16758469D02*
X6109082Y-16787040D01*
X6109082Y-16787040D02*
X6090034Y-16806088D01*
X6090034Y-16806088D02*
X6070986Y-16815612D01*
X6270986Y-16939421D02*
X6280510Y-16948945D01*
X6280510Y-16948945D02*
X6270986Y-16958469D01*
X6270986Y-16958469D02*
X6261463Y-16948945D01*
X6261463Y-16948945D02*
X6270986Y-16939421D01*
X6270986Y-16939421D02*
X6270986Y-16958469D01*
X6404320Y-16758469D02*
X6423367Y-16758469D01*
X6423367Y-16758469D02*
X6442415Y-16767993D01*
X6442415Y-16767993D02*
X6451939Y-16777517D01*
X6451939Y-16777517D02*
X6461463Y-16796564D01*
X6461463Y-16796564D02*
X6470986Y-16834659D01*
X6470986Y-16834659D02*
X6470986Y-16882278D01*
X6470986Y-16882278D02*
X6461463Y-16920374D01*
X6461463Y-16920374D02*
X6451939Y-16939421D01*
X6451939Y-16939421D02*
X6442415Y-16948945D01*
X6442415Y-16948945D02*
X6423367Y-16958469D01*
X6423367Y-16958469D02*
X6404320Y-16958469D01*
X6404320Y-16958469D02*
X6385272Y-16948945D01*
X6385272Y-16948945D02*
X6375748Y-16939421D01*
X6375748Y-16939421D02*
X6366225Y-16920374D01*
X6366225Y-16920374D02*
X6356701Y-16882278D01*
X6356701Y-16882278D02*
X6356701Y-16834659D01*
X6356701Y-16834659D02*
X6366225Y-16796564D01*
X6366225Y-16796564D02*
X6375748Y-16777517D01*
X6375748Y-16777517D02*
X6385272Y-16767993D01*
X6385272Y-16767993D02*
X6404320Y-16758469D01*
X6594796Y-16758469D02*
X6613844Y-16758469D01*
X6613844Y-16758469D02*
X6632891Y-16767993D01*
X6632891Y-16767993D02*
X6642415Y-16777517D01*
X6642415Y-16777517D02*
X6651939Y-16796564D01*
X6651939Y-16796564D02*
X6661463Y-16834659D01*
X6661463Y-16834659D02*
X6661463Y-16882278D01*
X6661463Y-16882278D02*
X6651939Y-16920374D01*
X6651939Y-16920374D02*
X6642415Y-16939421D01*
X6642415Y-16939421D02*
X6632891Y-16948945D01*
X6632891Y-16948945D02*
X6613844Y-16958469D01*
X6613844Y-16958469D02*
X6594796Y-16958469D01*
X6594796Y-16958469D02*
X6575748Y-16948945D01*
X6575748Y-16948945D02*
X6566225Y-16939421D01*
X6566225Y-16939421D02*
X6556701Y-16920374D01*
X6556701Y-16920374D02*
X6547177Y-16882278D01*
X6547177Y-16882278D02*
X6547177Y-16834659D01*
X6547177Y-16834659D02*
X6556701Y-16796564D01*
X6556701Y-16796564D02*
X6566225Y-16777517D01*
X6566225Y-16777517D02*
X6575748Y-16767993D01*
X6575748Y-16767993D02*
X6594796Y-16758469D01*
X6785272Y-16758469D02*
X6804320Y-16758469D01*
X6804320Y-16758469D02*
X6823367Y-16767993D01*
X6823367Y-16767993D02*
X6832891Y-16777517D01*
X6832891Y-16777517D02*
X6842415Y-16796564D01*
X6842415Y-16796564D02*
X6851939Y-16834659D01*
X6851939Y-16834659D02*
X6851939Y-16882278D01*
X6851939Y-16882278D02*
X6842415Y-16920374D01*
X6842415Y-16920374D02*
X6832891Y-16939421D01*
X6832891Y-16939421D02*
X6823367Y-16948945D01*
X6823367Y-16948945D02*
X6804320Y-16958469D01*
X6804320Y-16958469D02*
X6785272Y-16958469D01*
X6785272Y-16958469D02*
X6766225Y-16948945D01*
X6766225Y-16948945D02*
X6756701Y-16939421D01*
X6756701Y-16939421D02*
X6747177Y-16920374D01*
X6747177Y-16920374D02*
X6737653Y-16882278D01*
X6737653Y-16882278D02*
X6737653Y-16834659D01*
X6737653Y-16834659D02*
X6747177Y-16796564D01*
X6747177Y-16796564D02*
X6756701Y-16777517D01*
X6756701Y-16777517D02*
X6766225Y-16767993D01*
X6766225Y-16767993D02*
X6785272Y-16758469D01*
X6937653Y-16958469D02*
X6937653Y-16825136D01*
X6937653Y-16844183D02*
X6947177Y-16834659D01*
X6947177Y-16834659D02*
X6966225Y-16825136D01*
X6966225Y-16825136D02*
X6994796Y-16825136D01*
X6994796Y-16825136D02*
X7013844Y-16834659D01*
X7013844Y-16834659D02*
X7023367Y-16853707D01*
X7023367Y-16853707D02*
X7023367Y-16958469D01*
X7023367Y-16853707D02*
X7032891Y-16834659D01*
X7032891Y-16834659D02*
X7051939Y-16825136D01*
X7051939Y-16825136D02*
X7080510Y-16825136D01*
X7080510Y-16825136D02*
X7099558Y-16834659D01*
X7099558Y-16834659D02*
X7109082Y-16853707D01*
X7109082Y-16853707D02*
X7109082Y-16958469D01*
X7204320Y-16958469D02*
X7204320Y-16825136D01*
X7204320Y-16844183D02*
X7213844Y-16834659D01*
X7213844Y-16834659D02*
X7232891Y-16825136D01*
X7232891Y-16825136D02*
X7261463Y-16825136D01*
X7261463Y-16825136D02*
X7280510Y-16834659D01*
X7280510Y-16834659D02*
X7290034Y-16853707D01*
X7290034Y-16853707D02*
X7290034Y-16958469D01*
X7290034Y-16853707D02*
X7299558Y-16834659D01*
X7299558Y-16834659D02*
X7318606Y-16825136D01*
X7318606Y-16825136D02*
X7347177Y-16825136D01*
X7347177Y-16825136D02*
X7366225Y-16834659D01*
X7366225Y-16834659D02*
X7375748Y-16853707D01*
X7375748Y-16853707D02*
X7375748Y-16958469D01*
X7766225Y-16748945D02*
X7594796Y-17006088D01*
X8023368Y-16758469D02*
X8042415Y-16758469D01*
X8042415Y-16758469D02*
X8061463Y-16767993D01*
X8061463Y-16767993D02*
X8070987Y-16777517D01*
X8070987Y-16777517D02*
X8080510Y-16796564D01*
X8080510Y-16796564D02*
X8090034Y-16834659D01*
X8090034Y-16834659D02*
X8090034Y-16882278D01*
X8090034Y-16882278D02*
X8080510Y-16920374D01*
X8080510Y-16920374D02*
X8070987Y-16939421D01*
X8070987Y-16939421D02*
X8061463Y-16948945D01*
X8061463Y-16948945D02*
X8042415Y-16958469D01*
X8042415Y-16958469D02*
X8023368Y-16958469D01*
X8023368Y-16958469D02*
X8004320Y-16948945D01*
X8004320Y-16948945D02*
X7994796Y-16939421D01*
X7994796Y-16939421D02*
X7985272Y-16920374D01*
X7985272Y-16920374D02*
X7975749Y-16882278D01*
X7975749Y-16882278D02*
X7975749Y-16834659D01*
X7975749Y-16834659D02*
X7985272Y-16796564D01*
X7985272Y-16796564D02*
X7994796Y-16777517D01*
X7994796Y-16777517D02*
X8004320Y-16767993D01*
X8004320Y-16767993D02*
X8023368Y-16758469D01*
X8175749Y-16939421D02*
X8185272Y-16948945D01*
X8185272Y-16948945D02*
X8175749Y-16958469D01*
X8175749Y-16958469D02*
X8166225Y-16948945D01*
X8166225Y-16948945D02*
X8175749Y-16939421D01*
X8175749Y-16939421D02*
X8175749Y-16958469D01*
X8309082Y-16758469D02*
X8328130Y-16758469D01*
X8328130Y-16758469D02*
X8347177Y-16767993D01*
X8347177Y-16767993D02*
X8356701Y-16777517D01*
X8356701Y-16777517D02*
X8366225Y-16796564D01*
X8366225Y-16796564D02*
X8375749Y-16834659D01*
X8375749Y-16834659D02*
X8375749Y-16882278D01*
X8375749Y-16882278D02*
X8366225Y-16920374D01*
X8366225Y-16920374D02*
X8356701Y-16939421D01*
X8356701Y-16939421D02*
X8347177Y-16948945D01*
X8347177Y-16948945D02*
X8328130Y-16958469D01*
X8328130Y-16958469D02*
X8309082Y-16958469D01*
X8309082Y-16958469D02*
X8290034Y-16948945D01*
X8290034Y-16948945D02*
X8280510Y-16939421D01*
X8280510Y-16939421D02*
X8270987Y-16920374D01*
X8270987Y-16920374D02*
X8261463Y-16882278D01*
X8261463Y-16882278D02*
X8261463Y-16834659D01*
X8261463Y-16834659D02*
X8270987Y-16796564D01*
X8270987Y-16796564D02*
X8280510Y-16777517D01*
X8280510Y-16777517D02*
X8290034Y-16767993D01*
X8290034Y-16767993D02*
X8309082Y-16758469D01*
X8442415Y-16758469D02*
X8566225Y-16758469D01*
X8566225Y-16758469D02*
X8499558Y-16834659D01*
X8499558Y-16834659D02*
X8528130Y-16834659D01*
X8528130Y-16834659D02*
X8547177Y-16844183D01*
X8547177Y-16844183D02*
X8556701Y-16853707D01*
X8556701Y-16853707D02*
X8566225Y-16872755D01*
X8566225Y-16872755D02*
X8566225Y-16920374D01*
X8566225Y-16920374D02*
X8556701Y-16939421D01*
X8556701Y-16939421D02*
X8547177Y-16948945D01*
X8547177Y-16948945D02*
X8528130Y-16958469D01*
X8528130Y-16958469D02*
X8470987Y-16958469D01*
X8470987Y-16958469D02*
X8451939Y-16948945D01*
X8451939Y-16948945D02*
X8442415Y-16939421D01*
X8661463Y-16958469D02*
X8699558Y-16958469D01*
X8699558Y-16958469D02*
X8718606Y-16948945D01*
X8718606Y-16948945D02*
X8728130Y-16939421D01*
X8728130Y-16939421D02*
X8747177Y-16910850D01*
X8747177Y-16910850D02*
X8756701Y-16872755D01*
X8756701Y-16872755D02*
X8756701Y-16796564D01*
X8756701Y-16796564D02*
X8747177Y-16777517D01*
X8747177Y-16777517D02*
X8737653Y-16767993D01*
X8737653Y-16767993D02*
X8718606Y-16758469D01*
X8718606Y-16758469D02*
X8680511Y-16758469D01*
X8680511Y-16758469D02*
X8661463Y-16767993D01*
X8661463Y-16767993D02*
X8651939Y-16777517D01*
X8651939Y-16777517D02*
X8642415Y-16796564D01*
X8642415Y-16796564D02*
X8642415Y-16844183D01*
X8642415Y-16844183D02*
X8651939Y-16863231D01*
X8651939Y-16863231D02*
X8661463Y-16872755D01*
X8661463Y-16872755D02*
X8680511Y-16882278D01*
X8680511Y-16882278D02*
X8718606Y-16882278D01*
X8718606Y-16882278D02*
X8737653Y-16872755D01*
X8737653Y-16872755D02*
X8747177Y-16863231D01*
X8747177Y-16863231D02*
X8756701Y-16844183D01*
X8928130Y-16825136D02*
X8928130Y-16958469D01*
X8880511Y-16748945D02*
X8832892Y-16891802D01*
X8832892Y-16891802D02*
X8956701Y-16891802D01*
X9023368Y-16758469D02*
X9023368Y-16796564D01*
X9099558Y-16758469D02*
X9099558Y-16796564D01*
X9394796Y-17034659D02*
X9385273Y-17025136D01*
X9385273Y-17025136D02*
X9366225Y-16996564D01*
X9366225Y-16996564D02*
X9356701Y-16977517D01*
X9356701Y-16977517D02*
X9347177Y-16948945D01*
X9347177Y-16948945D02*
X9337654Y-16901326D01*
X9337654Y-16901326D02*
X9337654Y-16863231D01*
X9337654Y-16863231D02*
X9347177Y-16815612D01*
X9347177Y-16815612D02*
X9356701Y-16787040D01*
X9356701Y-16787040D02*
X9366225Y-16767993D01*
X9366225Y-16767993D02*
X9385273Y-16739421D01*
X9385273Y-16739421D02*
X9394796Y-16729897D01*
X9556701Y-16825136D02*
X9556701Y-16958469D01*
X9509082Y-16748945D02*
X9461463Y-16891802D01*
X9461463Y-16891802D02*
X9585273Y-16891802D01*
X9690034Y-16844183D02*
X9670987Y-16834659D01*
X9670987Y-16834659D02*
X9661463Y-16825136D01*
X9661463Y-16825136D02*
X9651939Y-16806088D01*
X9651939Y-16806088D02*
X9651939Y-16796564D01*
X9651939Y-16796564D02*
X9661463Y-16777517D01*
X9661463Y-16777517D02*
X9670987Y-16767993D01*
X9670987Y-16767993D02*
X9690034Y-16758469D01*
X9690034Y-16758469D02*
X9728130Y-16758469D01*
X9728130Y-16758469D02*
X9747177Y-16767993D01*
X9747177Y-16767993D02*
X9756701Y-16777517D01*
X9756701Y-16777517D02*
X9766225Y-16796564D01*
X9766225Y-16796564D02*
X9766225Y-16806088D01*
X9766225Y-16806088D02*
X9756701Y-16825136D01*
X9756701Y-16825136D02*
X9747177Y-16834659D01*
X9747177Y-16834659D02*
X9728130Y-16844183D01*
X9728130Y-16844183D02*
X9690034Y-16844183D01*
X9690034Y-16844183D02*
X9670987Y-16853707D01*
X9670987Y-16853707D02*
X9661463Y-16863231D01*
X9661463Y-16863231D02*
X9651939Y-16882278D01*
X9651939Y-16882278D02*
X9651939Y-16920374D01*
X9651939Y-16920374D02*
X9661463Y-16939421D01*
X9661463Y-16939421D02*
X9670987Y-16948945D01*
X9670987Y-16948945D02*
X9690034Y-16958469D01*
X9690034Y-16958469D02*
X9728130Y-16958469D01*
X9728130Y-16958469D02*
X9747177Y-16948945D01*
X9747177Y-16948945D02*
X9756701Y-16939421D01*
X9756701Y-16939421D02*
X9766225Y-16920374D01*
X9766225Y-16920374D02*
X9766225Y-16882278D01*
X9766225Y-16882278D02*
X9756701Y-16863231D01*
X9756701Y-16863231D02*
X9747177Y-16853707D01*
X9747177Y-16853707D02*
X9728130Y-16844183D01*
X10004320Y-16958469D02*
X10004320Y-16758469D01*
X10090035Y-16958469D02*
X10090035Y-16853707D01*
X10090035Y-16853707D02*
X10080511Y-16834659D01*
X10080511Y-16834659D02*
X10061463Y-16825136D01*
X10061463Y-16825136D02*
X10032892Y-16825136D01*
X10032892Y-16825136D02*
X10013844Y-16834659D01*
X10013844Y-16834659D02*
X10004320Y-16844183D01*
X10213844Y-16958469D02*
X10194796Y-16948945D01*
X10194796Y-16948945D02*
X10185273Y-16939421D01*
X10185273Y-16939421D02*
X10175749Y-16920374D01*
X10175749Y-16920374D02*
X10175749Y-16863231D01*
X10175749Y-16863231D02*
X10185273Y-16844183D01*
X10185273Y-16844183D02*
X10194796Y-16834659D01*
X10194796Y-16834659D02*
X10213844Y-16825136D01*
X10213844Y-16825136D02*
X10242416Y-16825136D01*
X10242416Y-16825136D02*
X10261463Y-16834659D01*
X10261463Y-16834659D02*
X10270987Y-16844183D01*
X10270987Y-16844183D02*
X10280511Y-16863231D01*
X10280511Y-16863231D02*
X10280511Y-16920374D01*
X10280511Y-16920374D02*
X10270987Y-16939421D01*
X10270987Y-16939421D02*
X10261463Y-16948945D01*
X10261463Y-16948945D02*
X10242416Y-16958469D01*
X10242416Y-16958469D02*
X10213844Y-16958469D01*
X10394796Y-16958469D02*
X10375749Y-16948945D01*
X10375749Y-16948945D02*
X10366225Y-16929897D01*
X10366225Y-16929897D02*
X10366225Y-16758469D01*
X10547177Y-16948945D02*
X10528130Y-16958469D01*
X10528130Y-16958469D02*
X10490035Y-16958469D01*
X10490035Y-16958469D02*
X10470987Y-16948945D01*
X10470987Y-16948945D02*
X10461463Y-16929897D01*
X10461463Y-16929897D02*
X10461463Y-16853707D01*
X10461463Y-16853707D02*
X10470987Y-16834659D01*
X10470987Y-16834659D02*
X10490035Y-16825136D01*
X10490035Y-16825136D02*
X10528130Y-16825136D01*
X10528130Y-16825136D02*
X10547177Y-16834659D01*
X10547177Y-16834659D02*
X10556701Y-16853707D01*
X10556701Y-16853707D02*
X10556701Y-16872755D01*
X10556701Y-16872755D02*
X10461463Y-16891802D01*
X10632892Y-16948945D02*
X10651939Y-16958469D01*
X10651939Y-16958469D02*
X10690035Y-16958469D01*
X10690035Y-16958469D02*
X10709082Y-16948945D01*
X10709082Y-16948945D02*
X10718606Y-16929897D01*
X10718606Y-16929897D02*
X10718606Y-16920374D01*
X10718606Y-16920374D02*
X10709082Y-16901326D01*
X10709082Y-16901326D02*
X10690035Y-16891802D01*
X10690035Y-16891802D02*
X10661463Y-16891802D01*
X10661463Y-16891802D02*
X10642416Y-16882278D01*
X10642416Y-16882278D02*
X10632892Y-16863231D01*
X10632892Y-16863231D02*
X10632892Y-16853707D01*
X10632892Y-16853707D02*
X10642416Y-16834659D01*
X10642416Y-16834659D02*
X10661463Y-16825136D01*
X10661463Y-16825136D02*
X10690035Y-16825136D01*
X10690035Y-16825136D02*
X10709082Y-16834659D01*
X10785273Y-17034659D02*
X10794797Y-17025136D01*
X10794797Y-17025136D02*
X10813844Y-16996564D01*
X10813844Y-16996564D02*
X10823368Y-16977517D01*
X10823368Y-16977517D02*
X10832892Y-16948945D01*
X10832892Y-16948945D02*
X10842416Y-16901326D01*
X10842416Y-16901326D02*
X10842416Y-16863231D01*
X10842416Y-16863231D02*
X10832892Y-16815612D01*
X10832892Y-16815612D02*
X10823368Y-16787040D01*
X10823368Y-16787040D02*
X10813844Y-16767993D01*
X10813844Y-16767993D02*
X10794797Y-16739421D01*
X10794797Y-16739421D02*
X10785273Y-16729897D01*
D13*
X5710513Y-17076375D02*
X5819733Y-17185595D01*
X5819733Y-17076375D02*
X5710513Y-17185595D01*
X5819733Y-17130985D02*
G75*
G02*
X5710513Y-17130985I-54610J0D01*
G01*
X5710513Y-17130985D02*
G75*
G02*
X5819733Y-17130985I54610J0D01*
G01*
D12*
X6185272Y-17222469D02*
X6070986Y-17222469D01*
X6128129Y-17222469D02*
X6128129Y-17022469D01*
X6128129Y-17022469D02*
X6109082Y-17051040D01*
X6109082Y-17051040D02*
X6090034Y-17070088D01*
X6090034Y-17070088D02*
X6070986Y-17079612D01*
X6270986Y-17203421D02*
X6280510Y-17212945D01*
X6280510Y-17212945D02*
X6270986Y-17222469D01*
X6270986Y-17222469D02*
X6261463Y-17212945D01*
X6261463Y-17212945D02*
X6270986Y-17203421D01*
X6270986Y-17203421D02*
X6270986Y-17222469D01*
X6404320Y-17022469D02*
X6423367Y-17022469D01*
X6423367Y-17022469D02*
X6442415Y-17031993D01*
X6442415Y-17031993D02*
X6451939Y-17041517D01*
X6451939Y-17041517D02*
X6461463Y-17060564D01*
X6461463Y-17060564D02*
X6470986Y-17098659D01*
X6470986Y-17098659D02*
X6470986Y-17146278D01*
X6470986Y-17146278D02*
X6461463Y-17184374D01*
X6461463Y-17184374D02*
X6451939Y-17203421D01*
X6451939Y-17203421D02*
X6442415Y-17212945D01*
X6442415Y-17212945D02*
X6423367Y-17222469D01*
X6423367Y-17222469D02*
X6404320Y-17222469D01*
X6404320Y-17222469D02*
X6385272Y-17212945D01*
X6385272Y-17212945D02*
X6375748Y-17203421D01*
X6375748Y-17203421D02*
X6366225Y-17184374D01*
X6366225Y-17184374D02*
X6356701Y-17146278D01*
X6356701Y-17146278D02*
X6356701Y-17098659D01*
X6356701Y-17098659D02*
X6366225Y-17060564D01*
X6366225Y-17060564D02*
X6375748Y-17041517D01*
X6375748Y-17041517D02*
X6385272Y-17031993D01*
X6385272Y-17031993D02*
X6404320Y-17022469D01*
X6566225Y-17222469D02*
X6604320Y-17222469D01*
X6604320Y-17222469D02*
X6623367Y-17212945D01*
X6623367Y-17212945D02*
X6632891Y-17203421D01*
X6632891Y-17203421D02*
X6651939Y-17174850D01*
X6651939Y-17174850D02*
X6661463Y-17136755D01*
X6661463Y-17136755D02*
X6661463Y-17060564D01*
X6661463Y-17060564D02*
X6651939Y-17041517D01*
X6651939Y-17041517D02*
X6642415Y-17031993D01*
X6642415Y-17031993D02*
X6623367Y-17022469D01*
X6623367Y-17022469D02*
X6585272Y-17022469D01*
X6585272Y-17022469D02*
X6566225Y-17031993D01*
X6566225Y-17031993D02*
X6556701Y-17041517D01*
X6556701Y-17041517D02*
X6547177Y-17060564D01*
X6547177Y-17060564D02*
X6547177Y-17108183D01*
X6547177Y-17108183D02*
X6556701Y-17127231D01*
X6556701Y-17127231D02*
X6566225Y-17136755D01*
X6566225Y-17136755D02*
X6585272Y-17146278D01*
X6585272Y-17146278D02*
X6623367Y-17146278D01*
X6623367Y-17146278D02*
X6642415Y-17136755D01*
X6642415Y-17136755D02*
X6651939Y-17127231D01*
X6651939Y-17127231D02*
X6661463Y-17108183D01*
X6737653Y-17041517D02*
X6747177Y-17031993D01*
X6747177Y-17031993D02*
X6766225Y-17022469D01*
X6766225Y-17022469D02*
X6813844Y-17022469D01*
X6813844Y-17022469D02*
X6832891Y-17031993D01*
X6832891Y-17031993D02*
X6842415Y-17041517D01*
X6842415Y-17041517D02*
X6851939Y-17060564D01*
X6851939Y-17060564D02*
X6851939Y-17079612D01*
X6851939Y-17079612D02*
X6842415Y-17108183D01*
X6842415Y-17108183D02*
X6728129Y-17222469D01*
X6728129Y-17222469D02*
X6851939Y-17222469D01*
X6937653Y-17222469D02*
X6937653Y-17089136D01*
X6937653Y-17108183D02*
X6947177Y-17098659D01*
X6947177Y-17098659D02*
X6966225Y-17089136D01*
X6966225Y-17089136D02*
X6994796Y-17089136D01*
X6994796Y-17089136D02*
X7013844Y-17098659D01*
X7013844Y-17098659D02*
X7023367Y-17117707D01*
X7023367Y-17117707D02*
X7023367Y-17222469D01*
X7023367Y-17117707D02*
X7032891Y-17098659D01*
X7032891Y-17098659D02*
X7051939Y-17089136D01*
X7051939Y-17089136D02*
X7080510Y-17089136D01*
X7080510Y-17089136D02*
X7099558Y-17098659D01*
X7099558Y-17098659D02*
X7109082Y-17117707D01*
X7109082Y-17117707D02*
X7109082Y-17222469D01*
X7204320Y-17222469D02*
X7204320Y-17089136D01*
X7204320Y-17108183D02*
X7213844Y-17098659D01*
X7213844Y-17098659D02*
X7232891Y-17089136D01*
X7232891Y-17089136D02*
X7261463Y-17089136D01*
X7261463Y-17089136D02*
X7280510Y-17098659D01*
X7280510Y-17098659D02*
X7290034Y-17117707D01*
X7290034Y-17117707D02*
X7290034Y-17222469D01*
X7290034Y-17117707D02*
X7299558Y-17098659D01*
X7299558Y-17098659D02*
X7318606Y-17089136D01*
X7318606Y-17089136D02*
X7347177Y-17089136D01*
X7347177Y-17089136D02*
X7366225Y-17098659D01*
X7366225Y-17098659D02*
X7375748Y-17117707D01*
X7375748Y-17117707D02*
X7375748Y-17222469D01*
X7766225Y-17012945D02*
X7594796Y-17270088D01*
X8023368Y-17022469D02*
X8042415Y-17022469D01*
X8042415Y-17022469D02*
X8061463Y-17031993D01*
X8061463Y-17031993D02*
X8070987Y-17041517D01*
X8070987Y-17041517D02*
X8080510Y-17060564D01*
X8080510Y-17060564D02*
X8090034Y-17098659D01*
X8090034Y-17098659D02*
X8090034Y-17146278D01*
X8090034Y-17146278D02*
X8080510Y-17184374D01*
X8080510Y-17184374D02*
X8070987Y-17203421D01*
X8070987Y-17203421D02*
X8061463Y-17212945D01*
X8061463Y-17212945D02*
X8042415Y-17222469D01*
X8042415Y-17222469D02*
X8023368Y-17222469D01*
X8023368Y-17222469D02*
X8004320Y-17212945D01*
X8004320Y-17212945D02*
X7994796Y-17203421D01*
X7994796Y-17203421D02*
X7985272Y-17184374D01*
X7985272Y-17184374D02*
X7975749Y-17146278D01*
X7975749Y-17146278D02*
X7975749Y-17098659D01*
X7975749Y-17098659D02*
X7985272Y-17060564D01*
X7985272Y-17060564D02*
X7994796Y-17041517D01*
X7994796Y-17041517D02*
X8004320Y-17031993D01*
X8004320Y-17031993D02*
X8023368Y-17022469D01*
X8175749Y-17203421D02*
X8185272Y-17212945D01*
X8185272Y-17212945D02*
X8175749Y-17222469D01*
X8175749Y-17222469D02*
X8166225Y-17212945D01*
X8166225Y-17212945D02*
X8175749Y-17203421D01*
X8175749Y-17203421D02*
X8175749Y-17222469D01*
X8309082Y-17022469D02*
X8328130Y-17022469D01*
X8328130Y-17022469D02*
X8347177Y-17031993D01*
X8347177Y-17031993D02*
X8356701Y-17041517D01*
X8356701Y-17041517D02*
X8366225Y-17060564D01*
X8366225Y-17060564D02*
X8375749Y-17098659D01*
X8375749Y-17098659D02*
X8375749Y-17146278D01*
X8375749Y-17146278D02*
X8366225Y-17184374D01*
X8366225Y-17184374D02*
X8356701Y-17203421D01*
X8356701Y-17203421D02*
X8347177Y-17212945D01*
X8347177Y-17212945D02*
X8328130Y-17222469D01*
X8328130Y-17222469D02*
X8309082Y-17222469D01*
X8309082Y-17222469D02*
X8290034Y-17212945D01*
X8290034Y-17212945D02*
X8280510Y-17203421D01*
X8280510Y-17203421D02*
X8270987Y-17184374D01*
X8270987Y-17184374D02*
X8261463Y-17146278D01*
X8261463Y-17146278D02*
X8261463Y-17098659D01*
X8261463Y-17098659D02*
X8270987Y-17060564D01*
X8270987Y-17060564D02*
X8280510Y-17041517D01*
X8280510Y-17041517D02*
X8290034Y-17031993D01*
X8290034Y-17031993D02*
X8309082Y-17022469D01*
X8547177Y-17089136D02*
X8547177Y-17222469D01*
X8499558Y-17012945D02*
X8451939Y-17155802D01*
X8451939Y-17155802D02*
X8575749Y-17155802D01*
X8632892Y-17022469D02*
X8756701Y-17022469D01*
X8756701Y-17022469D02*
X8690034Y-17098659D01*
X8690034Y-17098659D02*
X8718606Y-17098659D01*
X8718606Y-17098659D02*
X8737653Y-17108183D01*
X8737653Y-17108183D02*
X8747177Y-17117707D01*
X8747177Y-17117707D02*
X8756701Y-17136755D01*
X8756701Y-17136755D02*
X8756701Y-17184374D01*
X8756701Y-17184374D02*
X8747177Y-17203421D01*
X8747177Y-17203421D02*
X8737653Y-17212945D01*
X8737653Y-17212945D02*
X8718606Y-17222469D01*
X8718606Y-17222469D02*
X8661463Y-17222469D01*
X8661463Y-17222469D02*
X8642415Y-17212945D01*
X8642415Y-17212945D02*
X8632892Y-17203421D01*
X8880511Y-17022469D02*
X8899558Y-17022469D01*
X8899558Y-17022469D02*
X8918606Y-17031993D01*
X8918606Y-17031993D02*
X8928130Y-17041517D01*
X8928130Y-17041517D02*
X8937653Y-17060564D01*
X8937653Y-17060564D02*
X8947177Y-17098659D01*
X8947177Y-17098659D02*
X8947177Y-17146278D01*
X8947177Y-17146278D02*
X8937653Y-17184374D01*
X8937653Y-17184374D02*
X8928130Y-17203421D01*
X8928130Y-17203421D02*
X8918606Y-17212945D01*
X8918606Y-17212945D02*
X8899558Y-17222469D01*
X8899558Y-17222469D02*
X8880511Y-17222469D01*
X8880511Y-17222469D02*
X8861463Y-17212945D01*
X8861463Y-17212945D02*
X8851939Y-17203421D01*
X8851939Y-17203421D02*
X8842415Y-17184374D01*
X8842415Y-17184374D02*
X8832892Y-17146278D01*
X8832892Y-17146278D02*
X8832892Y-17098659D01*
X8832892Y-17098659D02*
X8842415Y-17060564D01*
X8842415Y-17060564D02*
X8851939Y-17041517D01*
X8851939Y-17041517D02*
X8861463Y-17031993D01*
X8861463Y-17031993D02*
X8880511Y-17022469D01*
X9023368Y-17022469D02*
X9023368Y-17060564D01*
X9099558Y-17022469D02*
X9099558Y-17060564D01*
X9394796Y-17298659D02*
X9385273Y-17289136D01*
X9385273Y-17289136D02*
X9366225Y-17260564D01*
X9366225Y-17260564D02*
X9356701Y-17241517D01*
X9356701Y-17241517D02*
X9347177Y-17212945D01*
X9347177Y-17212945D02*
X9337654Y-17165326D01*
X9337654Y-17165326D02*
X9337654Y-17127231D01*
X9337654Y-17127231D02*
X9347177Y-17079612D01*
X9347177Y-17079612D02*
X9356701Y-17051040D01*
X9356701Y-17051040D02*
X9366225Y-17031993D01*
X9366225Y-17031993D02*
X9385273Y-17003421D01*
X9385273Y-17003421D02*
X9394796Y-16993897D01*
X9575749Y-17222469D02*
X9461463Y-17222469D01*
X9518606Y-17222469D02*
X9518606Y-17022469D01*
X9518606Y-17022469D02*
X9499558Y-17051040D01*
X9499558Y-17051040D02*
X9480511Y-17070088D01*
X9480511Y-17070088D02*
X9461463Y-17079612D01*
X9699558Y-17022469D02*
X9718606Y-17022469D01*
X9718606Y-17022469D02*
X9737654Y-17031993D01*
X9737654Y-17031993D02*
X9747177Y-17041517D01*
X9747177Y-17041517D02*
X9756701Y-17060564D01*
X9756701Y-17060564D02*
X9766225Y-17098659D01*
X9766225Y-17098659D02*
X9766225Y-17146278D01*
X9766225Y-17146278D02*
X9756701Y-17184374D01*
X9756701Y-17184374D02*
X9747177Y-17203421D01*
X9747177Y-17203421D02*
X9737654Y-17212945D01*
X9737654Y-17212945D02*
X9718606Y-17222469D01*
X9718606Y-17222469D02*
X9699558Y-17222469D01*
X9699558Y-17222469D02*
X9680511Y-17212945D01*
X9680511Y-17212945D02*
X9670987Y-17203421D01*
X9670987Y-17203421D02*
X9661463Y-17184374D01*
X9661463Y-17184374D02*
X9651939Y-17146278D01*
X9651939Y-17146278D02*
X9651939Y-17098659D01*
X9651939Y-17098659D02*
X9661463Y-17060564D01*
X9661463Y-17060564D02*
X9670987Y-17041517D01*
X9670987Y-17041517D02*
X9680511Y-17031993D01*
X9680511Y-17031993D02*
X9699558Y-17022469D01*
X10004320Y-17222469D02*
X10004320Y-17022469D01*
X10090035Y-17222469D02*
X10090035Y-17117707D01*
X10090035Y-17117707D02*
X10080511Y-17098659D01*
X10080511Y-17098659D02*
X10061463Y-17089136D01*
X10061463Y-17089136D02*
X10032892Y-17089136D01*
X10032892Y-17089136D02*
X10013844Y-17098659D01*
X10013844Y-17098659D02*
X10004320Y-17108183D01*
X10213844Y-17222469D02*
X10194796Y-17212945D01*
X10194796Y-17212945D02*
X10185273Y-17203421D01*
X10185273Y-17203421D02*
X10175749Y-17184374D01*
X10175749Y-17184374D02*
X10175749Y-17127231D01*
X10175749Y-17127231D02*
X10185273Y-17108183D01*
X10185273Y-17108183D02*
X10194796Y-17098659D01*
X10194796Y-17098659D02*
X10213844Y-17089136D01*
X10213844Y-17089136D02*
X10242416Y-17089136D01*
X10242416Y-17089136D02*
X10261463Y-17098659D01*
X10261463Y-17098659D02*
X10270987Y-17108183D01*
X10270987Y-17108183D02*
X10280511Y-17127231D01*
X10280511Y-17127231D02*
X10280511Y-17184374D01*
X10280511Y-17184374D02*
X10270987Y-17203421D01*
X10270987Y-17203421D02*
X10261463Y-17212945D01*
X10261463Y-17212945D02*
X10242416Y-17222469D01*
X10242416Y-17222469D02*
X10213844Y-17222469D01*
X10394796Y-17222469D02*
X10375749Y-17212945D01*
X10375749Y-17212945D02*
X10366225Y-17193897D01*
X10366225Y-17193897D02*
X10366225Y-17022469D01*
X10547177Y-17212945D02*
X10528130Y-17222469D01*
X10528130Y-17222469D02*
X10490035Y-17222469D01*
X10490035Y-17222469D02*
X10470987Y-17212945D01*
X10470987Y-17212945D02*
X10461463Y-17193897D01*
X10461463Y-17193897D02*
X10461463Y-17117707D01*
X10461463Y-17117707D02*
X10470987Y-17098659D01*
X10470987Y-17098659D02*
X10490035Y-17089136D01*
X10490035Y-17089136D02*
X10528130Y-17089136D01*
X10528130Y-17089136D02*
X10547177Y-17098659D01*
X10547177Y-17098659D02*
X10556701Y-17117707D01*
X10556701Y-17117707D02*
X10556701Y-17136755D01*
X10556701Y-17136755D02*
X10461463Y-17155802D01*
X10632892Y-17212945D02*
X10651939Y-17222469D01*
X10651939Y-17222469D02*
X10690035Y-17222469D01*
X10690035Y-17222469D02*
X10709082Y-17212945D01*
X10709082Y-17212945D02*
X10718606Y-17193897D01*
X10718606Y-17193897D02*
X10718606Y-17184374D01*
X10718606Y-17184374D02*
X10709082Y-17165326D01*
X10709082Y-17165326D02*
X10690035Y-17155802D01*
X10690035Y-17155802D02*
X10661463Y-17155802D01*
X10661463Y-17155802D02*
X10642416Y-17146278D01*
X10642416Y-17146278D02*
X10632892Y-17127231D01*
X10632892Y-17127231D02*
X10632892Y-17117707D01*
X10632892Y-17117707D02*
X10642416Y-17098659D01*
X10642416Y-17098659D02*
X10661463Y-17089136D01*
X10661463Y-17089136D02*
X10690035Y-17089136D01*
X10690035Y-17089136D02*
X10709082Y-17098659D01*
X10785273Y-17298659D02*
X10794797Y-17289136D01*
X10794797Y-17289136D02*
X10813844Y-17260564D01*
X10813844Y-17260564D02*
X10823368Y-17241517D01*
X10823368Y-17241517D02*
X10832892Y-17212945D01*
X10832892Y-17212945D02*
X10842416Y-17165326D01*
X10842416Y-17165326D02*
X10842416Y-17127231D01*
X10842416Y-17127231D02*
X10832892Y-17079612D01*
X10832892Y-17079612D02*
X10823368Y-17051040D01*
X10823368Y-17051040D02*
X10813844Y-17031993D01*
X10813844Y-17031993D02*
X10794797Y-17003421D01*
X10794797Y-17003421D02*
X10785273Y-16993897D01*
D14*
X5689733Y-17329985D02*
X5819733Y-17459985D01*
X5819733Y-17329985D02*
X5689733Y-17459985D01*
X5754733Y-17329985D02*
X5754733Y-17459985D01*
X5689733Y-17394985D02*
X5819733Y-17394985D01*
D12*
X6185272Y-17486469D02*
X6070986Y-17486469D01*
X6128129Y-17486469D02*
X6128129Y-17286469D01*
X6128129Y-17286469D02*
X6109082Y-17315040D01*
X6109082Y-17315040D02*
X6090034Y-17334088D01*
X6090034Y-17334088D02*
X6070986Y-17343612D01*
X6270986Y-17467421D02*
X6280510Y-17476945D01*
X6280510Y-17476945D02*
X6270986Y-17486469D01*
X6270986Y-17486469D02*
X6261463Y-17476945D01*
X6261463Y-17476945D02*
X6270986Y-17467421D01*
X6270986Y-17467421D02*
X6270986Y-17486469D01*
X6347177Y-17286469D02*
X6470986Y-17286469D01*
X6470986Y-17286469D02*
X6404320Y-17362659D01*
X6404320Y-17362659D02*
X6432891Y-17362659D01*
X6432891Y-17362659D02*
X6451939Y-17372183D01*
X6451939Y-17372183D02*
X6461463Y-17381707D01*
X6461463Y-17381707D02*
X6470986Y-17400755D01*
X6470986Y-17400755D02*
X6470986Y-17448374D01*
X6470986Y-17448374D02*
X6461463Y-17467421D01*
X6461463Y-17467421D02*
X6451939Y-17476945D01*
X6451939Y-17476945D02*
X6432891Y-17486469D01*
X6432891Y-17486469D02*
X6375748Y-17486469D01*
X6375748Y-17486469D02*
X6356701Y-17476945D01*
X6356701Y-17476945D02*
X6347177Y-17467421D01*
X6594796Y-17286469D02*
X6613844Y-17286469D01*
X6613844Y-17286469D02*
X6632891Y-17295993D01*
X6632891Y-17295993D02*
X6642415Y-17305517D01*
X6642415Y-17305517D02*
X6651939Y-17324564D01*
X6651939Y-17324564D02*
X6661463Y-17362659D01*
X6661463Y-17362659D02*
X6661463Y-17410278D01*
X6661463Y-17410278D02*
X6651939Y-17448374D01*
X6651939Y-17448374D02*
X6642415Y-17467421D01*
X6642415Y-17467421D02*
X6632891Y-17476945D01*
X6632891Y-17476945D02*
X6613844Y-17486469D01*
X6613844Y-17486469D02*
X6594796Y-17486469D01*
X6594796Y-17486469D02*
X6575748Y-17476945D01*
X6575748Y-17476945D02*
X6566225Y-17467421D01*
X6566225Y-17467421D02*
X6556701Y-17448374D01*
X6556701Y-17448374D02*
X6547177Y-17410278D01*
X6547177Y-17410278D02*
X6547177Y-17362659D01*
X6547177Y-17362659D02*
X6556701Y-17324564D01*
X6556701Y-17324564D02*
X6566225Y-17305517D01*
X6566225Y-17305517D02*
X6575748Y-17295993D01*
X6575748Y-17295993D02*
X6594796Y-17286469D01*
X6785272Y-17286469D02*
X6804320Y-17286469D01*
X6804320Y-17286469D02*
X6823367Y-17295993D01*
X6823367Y-17295993D02*
X6832891Y-17305517D01*
X6832891Y-17305517D02*
X6842415Y-17324564D01*
X6842415Y-17324564D02*
X6851939Y-17362659D01*
X6851939Y-17362659D02*
X6851939Y-17410278D01*
X6851939Y-17410278D02*
X6842415Y-17448374D01*
X6842415Y-17448374D02*
X6832891Y-17467421D01*
X6832891Y-17467421D02*
X6823367Y-17476945D01*
X6823367Y-17476945D02*
X6804320Y-17486469D01*
X6804320Y-17486469D02*
X6785272Y-17486469D01*
X6785272Y-17486469D02*
X6766225Y-17476945D01*
X6766225Y-17476945D02*
X6756701Y-17467421D01*
X6756701Y-17467421D02*
X6747177Y-17448374D01*
X6747177Y-17448374D02*
X6737653Y-17410278D01*
X6737653Y-17410278D02*
X6737653Y-17362659D01*
X6737653Y-17362659D02*
X6747177Y-17324564D01*
X6747177Y-17324564D02*
X6756701Y-17305517D01*
X6756701Y-17305517D02*
X6766225Y-17295993D01*
X6766225Y-17295993D02*
X6785272Y-17286469D01*
X6937653Y-17486469D02*
X6937653Y-17353136D01*
X6937653Y-17372183D02*
X6947177Y-17362659D01*
X6947177Y-17362659D02*
X6966225Y-17353136D01*
X6966225Y-17353136D02*
X6994796Y-17353136D01*
X6994796Y-17353136D02*
X7013844Y-17362659D01*
X7013844Y-17362659D02*
X7023367Y-17381707D01*
X7023367Y-17381707D02*
X7023367Y-17486469D01*
X7023367Y-17381707D02*
X7032891Y-17362659D01*
X7032891Y-17362659D02*
X7051939Y-17353136D01*
X7051939Y-17353136D02*
X7080510Y-17353136D01*
X7080510Y-17353136D02*
X7099558Y-17362659D01*
X7099558Y-17362659D02*
X7109082Y-17381707D01*
X7109082Y-17381707D02*
X7109082Y-17486469D01*
X7204320Y-17486469D02*
X7204320Y-17353136D01*
X7204320Y-17372183D02*
X7213844Y-17362659D01*
X7213844Y-17362659D02*
X7232891Y-17353136D01*
X7232891Y-17353136D02*
X7261463Y-17353136D01*
X7261463Y-17353136D02*
X7280510Y-17362659D01*
X7280510Y-17362659D02*
X7290034Y-17381707D01*
X7290034Y-17381707D02*
X7290034Y-17486469D01*
X7290034Y-17381707D02*
X7299558Y-17362659D01*
X7299558Y-17362659D02*
X7318606Y-17353136D01*
X7318606Y-17353136D02*
X7347177Y-17353136D01*
X7347177Y-17353136D02*
X7366225Y-17362659D01*
X7366225Y-17362659D02*
X7375748Y-17381707D01*
X7375748Y-17381707D02*
X7375748Y-17486469D01*
X7766225Y-17276945D02*
X7594796Y-17534088D01*
X8023368Y-17286469D02*
X8042415Y-17286469D01*
X8042415Y-17286469D02*
X8061463Y-17295993D01*
X8061463Y-17295993D02*
X8070987Y-17305517D01*
X8070987Y-17305517D02*
X8080510Y-17324564D01*
X8080510Y-17324564D02*
X8090034Y-17362659D01*
X8090034Y-17362659D02*
X8090034Y-17410278D01*
X8090034Y-17410278D02*
X8080510Y-17448374D01*
X8080510Y-17448374D02*
X8070987Y-17467421D01*
X8070987Y-17467421D02*
X8061463Y-17476945D01*
X8061463Y-17476945D02*
X8042415Y-17486469D01*
X8042415Y-17486469D02*
X8023368Y-17486469D01*
X8023368Y-17486469D02*
X8004320Y-17476945D01*
X8004320Y-17476945D02*
X7994796Y-17467421D01*
X7994796Y-17467421D02*
X7985272Y-17448374D01*
X7985272Y-17448374D02*
X7975749Y-17410278D01*
X7975749Y-17410278D02*
X7975749Y-17362659D01*
X7975749Y-17362659D02*
X7985272Y-17324564D01*
X7985272Y-17324564D02*
X7994796Y-17305517D01*
X7994796Y-17305517D02*
X8004320Y-17295993D01*
X8004320Y-17295993D02*
X8023368Y-17286469D01*
X8175749Y-17467421D02*
X8185272Y-17476945D01*
X8185272Y-17476945D02*
X8175749Y-17486469D01*
X8175749Y-17486469D02*
X8166225Y-17476945D01*
X8166225Y-17476945D02*
X8175749Y-17467421D01*
X8175749Y-17467421D02*
X8175749Y-17486469D01*
X8309082Y-17286469D02*
X8328130Y-17286469D01*
X8328130Y-17286469D02*
X8347177Y-17295993D01*
X8347177Y-17295993D02*
X8356701Y-17305517D01*
X8356701Y-17305517D02*
X8366225Y-17324564D01*
X8366225Y-17324564D02*
X8375749Y-17362659D01*
X8375749Y-17362659D02*
X8375749Y-17410278D01*
X8375749Y-17410278D02*
X8366225Y-17448374D01*
X8366225Y-17448374D02*
X8356701Y-17467421D01*
X8356701Y-17467421D02*
X8347177Y-17476945D01*
X8347177Y-17476945D02*
X8328130Y-17486469D01*
X8328130Y-17486469D02*
X8309082Y-17486469D01*
X8309082Y-17486469D02*
X8290034Y-17476945D01*
X8290034Y-17476945D02*
X8280510Y-17467421D01*
X8280510Y-17467421D02*
X8270987Y-17448374D01*
X8270987Y-17448374D02*
X8261463Y-17410278D01*
X8261463Y-17410278D02*
X8261463Y-17362659D01*
X8261463Y-17362659D02*
X8270987Y-17324564D01*
X8270987Y-17324564D02*
X8280510Y-17305517D01*
X8280510Y-17305517D02*
X8290034Y-17295993D01*
X8290034Y-17295993D02*
X8309082Y-17286469D01*
X8556701Y-17286469D02*
X8461463Y-17286469D01*
X8461463Y-17286469D02*
X8451939Y-17381707D01*
X8451939Y-17381707D02*
X8461463Y-17372183D01*
X8461463Y-17372183D02*
X8480511Y-17362659D01*
X8480511Y-17362659D02*
X8528130Y-17362659D01*
X8528130Y-17362659D02*
X8547177Y-17372183D01*
X8547177Y-17372183D02*
X8556701Y-17381707D01*
X8556701Y-17381707D02*
X8566225Y-17400755D01*
X8566225Y-17400755D02*
X8566225Y-17448374D01*
X8566225Y-17448374D02*
X8556701Y-17467421D01*
X8556701Y-17467421D02*
X8547177Y-17476945D01*
X8547177Y-17476945D02*
X8528130Y-17486469D01*
X8528130Y-17486469D02*
X8480511Y-17486469D01*
X8480511Y-17486469D02*
X8461463Y-17476945D01*
X8461463Y-17476945D02*
X8451939Y-17467421D01*
X8756701Y-17486469D02*
X8642415Y-17486469D01*
X8699558Y-17486469D02*
X8699558Y-17286469D01*
X8699558Y-17286469D02*
X8680511Y-17315040D01*
X8680511Y-17315040D02*
X8661463Y-17334088D01*
X8661463Y-17334088D02*
X8642415Y-17343612D01*
X8832892Y-17305517D02*
X8842415Y-17295993D01*
X8842415Y-17295993D02*
X8861463Y-17286469D01*
X8861463Y-17286469D02*
X8909082Y-17286469D01*
X8909082Y-17286469D02*
X8928130Y-17295993D01*
X8928130Y-17295993D02*
X8937653Y-17305517D01*
X8937653Y-17305517D02*
X8947177Y-17324564D01*
X8947177Y-17324564D02*
X8947177Y-17343612D01*
X8947177Y-17343612D02*
X8937653Y-17372183D01*
X8937653Y-17372183D02*
X8823368Y-17486469D01*
X8823368Y-17486469D02*
X8947177Y-17486469D01*
X9023368Y-17286469D02*
X9023368Y-17324564D01*
X9099558Y-17286469D02*
X9099558Y-17324564D01*
X9394796Y-17562659D02*
X9385273Y-17553136D01*
X9385273Y-17553136D02*
X9366225Y-17524564D01*
X9366225Y-17524564D02*
X9356701Y-17505517D01*
X9356701Y-17505517D02*
X9347177Y-17476945D01*
X9347177Y-17476945D02*
X9337654Y-17429326D01*
X9337654Y-17429326D02*
X9337654Y-17391231D01*
X9337654Y-17391231D02*
X9347177Y-17343612D01*
X9347177Y-17343612D02*
X9356701Y-17315040D01*
X9356701Y-17315040D02*
X9366225Y-17295993D01*
X9366225Y-17295993D02*
X9385273Y-17267421D01*
X9385273Y-17267421D02*
X9394796Y-17257897D01*
X9556701Y-17353136D02*
X9556701Y-17486469D01*
X9509082Y-17276945D02*
X9461463Y-17419802D01*
X9461463Y-17419802D02*
X9585273Y-17419802D01*
X9813844Y-17486469D02*
X9813844Y-17286469D01*
X9899558Y-17486469D02*
X9899558Y-17381707D01*
X9899558Y-17381707D02*
X9890035Y-17362659D01*
X9890035Y-17362659D02*
X9870987Y-17353136D01*
X9870987Y-17353136D02*
X9842415Y-17353136D01*
X9842415Y-17353136D02*
X9823368Y-17362659D01*
X9823368Y-17362659D02*
X9813844Y-17372183D01*
X10023368Y-17486469D02*
X10004320Y-17476945D01*
X10004320Y-17476945D02*
X9994796Y-17467421D01*
X9994796Y-17467421D02*
X9985273Y-17448374D01*
X9985273Y-17448374D02*
X9985273Y-17391231D01*
X9985273Y-17391231D02*
X9994796Y-17372183D01*
X9994796Y-17372183D02*
X10004320Y-17362659D01*
X10004320Y-17362659D02*
X10023368Y-17353136D01*
X10023368Y-17353136D02*
X10051939Y-17353136D01*
X10051939Y-17353136D02*
X10070987Y-17362659D01*
X10070987Y-17362659D02*
X10080511Y-17372183D01*
X10080511Y-17372183D02*
X10090035Y-17391231D01*
X10090035Y-17391231D02*
X10090035Y-17448374D01*
X10090035Y-17448374D02*
X10080511Y-17467421D01*
X10080511Y-17467421D02*
X10070987Y-17476945D01*
X10070987Y-17476945D02*
X10051939Y-17486469D01*
X10051939Y-17486469D02*
X10023368Y-17486469D01*
X10204320Y-17486469D02*
X10185273Y-17476945D01*
X10185273Y-17476945D02*
X10175749Y-17457897D01*
X10175749Y-17457897D02*
X10175749Y-17286469D01*
X10356701Y-17476945D02*
X10337654Y-17486469D01*
X10337654Y-17486469D02*
X10299558Y-17486469D01*
X10299558Y-17486469D02*
X10280511Y-17476945D01*
X10280511Y-17476945D02*
X10270987Y-17457897D01*
X10270987Y-17457897D02*
X10270987Y-17381707D01*
X10270987Y-17381707D02*
X10280511Y-17362659D01*
X10280511Y-17362659D02*
X10299558Y-17353136D01*
X10299558Y-17353136D02*
X10337654Y-17353136D01*
X10337654Y-17353136D02*
X10356701Y-17362659D01*
X10356701Y-17362659D02*
X10366225Y-17381707D01*
X10366225Y-17381707D02*
X10366225Y-17400755D01*
X10366225Y-17400755D02*
X10270987Y-17419802D01*
X10442416Y-17476945D02*
X10461463Y-17486469D01*
X10461463Y-17486469D02*
X10499558Y-17486469D01*
X10499558Y-17486469D02*
X10518606Y-17476945D01*
X10518606Y-17476945D02*
X10528130Y-17457897D01*
X10528130Y-17457897D02*
X10528130Y-17448374D01*
X10528130Y-17448374D02*
X10518606Y-17429326D01*
X10518606Y-17429326D02*
X10499558Y-17419802D01*
X10499558Y-17419802D02*
X10470987Y-17419802D01*
X10470987Y-17419802D02*
X10451939Y-17410278D01*
X10451939Y-17410278D02*
X10442416Y-17391231D01*
X10442416Y-17391231D02*
X10442416Y-17381707D01*
X10442416Y-17381707D02*
X10451939Y-17362659D01*
X10451939Y-17362659D02*
X10470987Y-17353136D01*
X10470987Y-17353136D02*
X10499558Y-17353136D01*
X10499558Y-17353136D02*
X10518606Y-17362659D01*
X10594797Y-17562659D02*
X10604320Y-17553136D01*
X10604320Y-17553136D02*
X10623368Y-17524564D01*
X10623368Y-17524564D02*
X10632892Y-17505517D01*
X10632892Y-17505517D02*
X10642416Y-17476945D01*
X10642416Y-17476945D02*
X10651939Y-17429326D01*
X10651939Y-17429326D02*
X10651939Y-17391231D01*
X10651939Y-17391231D02*
X10642416Y-17343612D01*
X10642416Y-17343612D02*
X10632892Y-17315040D01*
X10632892Y-17315040D02*
X10623368Y-17295993D01*
X10623368Y-17295993D02*
X10604320Y-17267421D01*
X10604320Y-17267421D02*
X10594797Y-17257897D01*
M02*
