G04 #@! TF.GenerationSoftware,KiCad,Pcbnew,8.0.4*
G04 #@! TF.CreationDate,2025-02-19T18:48:15+13:00*
G04 #@! TF.ProjectId,Corne V4 Pro Micro Edition,436f726e-6520-4563-9420-50726f204d69,4.0.0*
G04 #@! TF.SameCoordinates,Original*
G04 #@! TF.FileFunction,Profile,NP*
%FSLAX46Y46*%
G04 Gerber Fmt 4.6, Leading zero omitted, Abs format (unit mm)*
G04 Created by KiCad (PCBNEW 8.0.4) date 2025-02-19 18:48:15*
%MOMM*%
%LPD*%
G01*
G04 APERTURE LIST*
G04 #@! TA.AperFunction,Profile*
%ADD10C,0.100000*%
G04 #@! TD*
%ADD11C,0.100000*%
G04 #@! TA.AperFunction,Profile*
%ADD12C,0.150000*%
G04 #@! TD*
G04 APERTURE END LIST*
D10*
X77397337Y-100911250D02*
X77397336Y-106961255D01*
X58247335Y-45167500D02*
X58247335Y-48167500D01*
X89697337Y-118461286D02*
X112607174Y-118461250D01*
D11*
X258286830Y-51902585D02*
X258275878Y-52004617D01*
X258272492Y-52111396D01*
X258272341Y-52167500D01*
D10*
X289722337Y-53548750D02*
X289722337Y-49167500D01*
D11*
X258370641Y-51644385D02*
X258329084Y-51738361D01*
X258300011Y-51835118D01*
X258286830Y-51902585D01*
D10*
X315522340Y-59811245D02*
X315522339Y-65861250D01*
X258272341Y-53548750D02*
X258272341Y-52167500D01*
X114607174Y-146659851D02*
X278112500Y-146659851D01*
X315522339Y-67861250D02*
X315522339Y-73861250D01*
D11*
X213601819Y-144631961D02*
X213699550Y-144600669D01*
X213798558Y-144560538D01*
X213849921Y-144537964D01*
D10*
X316322336Y-108961255D02*
X316322337Y-114961250D01*
X297372341Y-58311249D02*
X334472339Y-58311242D01*
D11*
X134447335Y-51167500D02*
X134551854Y-51168470D01*
X134660471Y-51175260D01*
X134760576Y-51190888D01*
X134837915Y-51211104D01*
D10*
X192597335Y-118048678D02*
X192597335Y-113480000D01*
X208697339Y-64116880D02*
X213597339Y-64116880D01*
X327822337Y-116461250D02*
X327822337Y-118461286D01*
D11*
X296895456Y-53647050D02*
X296801479Y-53605493D01*
X296704722Y-53576420D01*
X296637256Y-53563239D01*
D10*
X89697337Y-116461250D02*
X89697337Y-118461286D01*
X315522339Y-67861250D02*
G75*
G02*
X316322339Y-67861250I400000J0D01*
G01*
X279112500Y-119461250D02*
X279112500Y-145659851D01*
X316322339Y-81861250D02*
X316322339Y-92911250D01*
D11*
X277587256Y-51181989D02*
X277485223Y-51171037D01*
X277378444Y-51167651D01*
X277322341Y-51167500D01*
D10*
X59247335Y-151659851D02*
G75*
G02*
X58247349Y-150659851I-35J999951D01*
G01*
X78197339Y-67861250D02*
X78197339Y-73861250D01*
X78197337Y-100911250D02*
X78197336Y-106961255D01*
X316322339Y-92911250D02*
G75*
G02*
X315522339Y-92911250I-400000J0D01*
G01*
X77397339Y-81861250D02*
X77397339Y-92911250D01*
D11*
X221172341Y-55930000D02*
X221067821Y-55930970D01*
X220959204Y-55937760D01*
X220859099Y-55953388D01*
X220781761Y-55973604D01*
D10*
X221172341Y-55930000D02*
X239222341Y-55930000D01*
D11*
X58290941Y-58920663D02*
X58327965Y-58824079D01*
X58376834Y-58732984D01*
X58437697Y-58646931D01*
X58451322Y-58630287D01*
D10*
X242222339Y-74289375D02*
G75*
G02*
X237222339Y-74289375I-2500000J0D01*
G01*
X237222339Y-74289375D02*
G75*
G02*
X242222339Y-74289375I2500000J0D01*
G01*
X78197339Y-81861250D02*
X78197339Y-92911250D01*
D11*
X154399035Y-54025635D02*
X154440591Y-54119611D01*
X154469664Y-54216368D01*
X154482846Y-54283835D01*
X297328737Y-54158170D02*
X297291712Y-54061587D01*
X297242843Y-53970492D01*
X297181980Y-53884439D01*
X297168356Y-53867795D01*
D10*
X142097337Y-53548750D02*
X135447335Y-53548750D01*
D11*
X153497335Y-53548750D02*
X153601854Y-53549720D01*
X153710471Y-53556510D01*
X153810576Y-53572138D01*
X153887915Y-53592354D01*
D10*
X77397339Y-67861250D02*
G75*
G02*
X78197339Y-67861250I400000J0D01*
G01*
D11*
X115874220Y-51265800D02*
X115968196Y-51224243D01*
X116064953Y-51195170D01*
X116132420Y-51181989D01*
D10*
X334472339Y-44167500D02*
X59247335Y-44167500D01*
D11*
X201441386Y-58515235D02*
X201366035Y-58585882D01*
X201294904Y-58669982D01*
X201237736Y-58756866D01*
X201220641Y-58788135D01*
D10*
X278322341Y-52167500D02*
X278322341Y-53548750D01*
D11*
X278322341Y-52167500D02*
X278321370Y-52062980D01*
X278314580Y-51954363D01*
X278298952Y-51854258D01*
X278278737Y-51776920D01*
D10*
X279112500Y-145659851D02*
G75*
G02*
X278112500Y-146659800I-1000100J151D01*
G01*
X239222341Y-55930000D02*
X239222341Y-54548750D01*
X251622339Y-49167500D02*
X284972337Y-49167500D01*
X77397339Y-67861250D02*
X77397339Y-73861250D01*
D11*
X258591386Y-51371485D02*
X258516035Y-51442132D01*
X258444904Y-51526232D01*
X258387736Y-51613116D01*
X258370641Y-51644385D01*
D10*
X112607174Y-118461250D02*
G75*
G02*
X113607150Y-119461250I26J-999950D01*
G01*
D11*
X335457852Y-115726165D02*
X335468803Y-115624132D01*
X335472189Y-115517353D01*
X335472341Y-115461250D01*
D10*
X78197339Y-65861250D02*
G75*
G02*
X77397339Y-65861250I-400000J0D01*
G01*
D11*
X180387882Y-144659851D02*
X180285126Y-144659806D01*
X180184883Y-144647220D01*
X180117857Y-144631961D01*
X154482846Y-54283835D02*
X154493797Y-54385867D01*
X154497183Y-54492646D01*
X154497335Y-54548750D01*
X58451322Y-58630287D02*
X58521969Y-58554936D01*
X58606069Y-58483805D01*
X58692952Y-58426637D01*
X58724221Y-58409542D01*
X154178290Y-53752735D02*
X154253640Y-53823382D01*
X154324771Y-53907482D01*
X154381939Y-53994366D01*
X154399035Y-54025635D01*
D10*
X335472339Y-48167500D02*
G75*
G02*
X334472339Y-49167539I-1000039J0D01*
G01*
D11*
X191987915Y-58354854D02*
X192084497Y-58391878D01*
X192175592Y-58440747D01*
X192261645Y-58501610D01*
X192278290Y-58515235D01*
D10*
X335472342Y-119461249D02*
X335472341Y-150659851D01*
X201122341Y-118048678D02*
X201122341Y-113480000D01*
D11*
X96390939Y-54158170D02*
X96427963Y-54061587D01*
X96476832Y-53970492D01*
X96537695Y-53884439D01*
X96551320Y-53867795D01*
D10*
X77397340Y-59811245D02*
X77397339Y-65861250D01*
X297372341Y-54548750D02*
X297372341Y-58311249D01*
X208697339Y-71663116D02*
G75*
G02*
X208097384Y-71063116I161J600116D01*
G01*
X301277339Y-77861250D02*
G75*
G02*
X296277339Y-77861250I-2500000J0D01*
G01*
X296277339Y-77861250D02*
G75*
G02*
X301277339Y-77861250I2500000J0D01*
G01*
D11*
X335428735Y-58920663D02*
X335391710Y-58824079D01*
X335342841Y-58732984D01*
X335281978Y-58646931D01*
X335268354Y-58630287D01*
D12*
X219719676Y-97125000D02*
G75*
G02*
X220219700Y-97625000I24J-500000D01*
G01*
D11*
X115397335Y-52167500D02*
X115398305Y-52062980D01*
X115405095Y-51954363D01*
X115420723Y-51854258D01*
X115440939Y-51776920D01*
D10*
X268094403Y-133153949D02*
X230739860Y-137060296D01*
X108747333Y-53548750D02*
X108747333Y-49167500D01*
X103997337Y-53548750D02*
X103997337Y-49167500D01*
X78197340Y-59811245D02*
X78197339Y-65861250D01*
X58247335Y-45167500D02*
G75*
G02*
X59247335Y-44167535I999965J0D01*
G01*
X201122341Y-113480000D02*
X201122341Y-106780000D01*
D11*
X116132420Y-51181989D02*
X116234452Y-51171037D01*
X116341231Y-51167651D01*
X116397335Y-51167500D01*
D10*
X78197336Y-106961255D02*
G75*
G02*
X77397336Y-106961255I-400000J0D01*
G01*
X156497337Y-74289375D02*
G75*
G02*
X151497337Y-74289375I-2500000J0D01*
G01*
X151497337Y-74289375D02*
G75*
G02*
X156497337Y-74289375I2500000J0D01*
G01*
X59247335Y-116461250D02*
X65897337Y-116461250D01*
X315522336Y-108961255D02*
G75*
G02*
X316322336Y-108961255I400000J0D01*
G01*
X278112502Y-116461250D02*
X268858639Y-132655511D01*
X78197339Y-92911250D02*
G75*
G02*
X77397339Y-92911250I-400000J0D01*
G01*
D11*
X201122341Y-118048678D02*
X201124806Y-118153623D01*
X201138783Y-118256667D01*
D10*
X334472342Y-118461249D02*
G75*
G02*
X335472351Y-119461249I58J-999951D01*
G01*
X125625273Y-133153949D02*
X162979816Y-137060296D01*
X189192337Y-58311250D02*
X179952337Y-58311250D01*
D11*
X258881761Y-51211104D02*
X258785178Y-51248128D01*
X258694083Y-51296997D01*
X258608030Y-51357860D01*
X258591386Y-51371485D01*
D10*
X59247335Y-49167500D02*
G75*
G02*
X58247300Y-48167500I-35J1000000D01*
G01*
X180122337Y-71663116D02*
G75*
G02*
X179522384Y-71063116I163J600116D01*
G01*
X201122341Y-68480000D02*
X201122341Y-59311250D01*
X103997337Y-49167500D02*
X59247335Y-49167500D01*
X323072337Y-116461250D02*
X323072337Y-118461286D01*
X315522337Y-100911250D02*
G75*
G02*
X316322337Y-100911250I400000J0D01*
G01*
D11*
X212728689Y-144367891D02*
X212801643Y-144441217D01*
X212883206Y-144504730D01*
X212973695Y-144558777D01*
X212992892Y-144568481D01*
D10*
X315522339Y-81861250D02*
X315522339Y-92911250D01*
X97442337Y-96911250D02*
G75*
G02*
X92442337Y-96911250I-2500000J0D01*
G01*
X92442337Y-96911250D02*
G75*
G02*
X97442337Y-96911250I2500000J0D01*
G01*
D11*
X58345635Y-115984365D02*
X58304078Y-115890388D01*
X58275005Y-115793631D01*
X58261824Y-115726165D01*
D10*
X334472340Y-44167500D02*
G75*
G02*
X335472300Y-45167500I-40J-1000000D01*
G01*
X77397337Y-100911250D02*
G75*
G02*
X78197337Y-100911250I400000J0D01*
G01*
X77397340Y-59811245D02*
G75*
G02*
X78197340Y-59811245I400000J0D01*
G01*
D12*
X180250000Y-97625000D02*
X180250000Y-103375000D01*
D10*
X316322339Y-65861250D02*
G75*
G02*
X315522339Y-65861250I-400000J0D01*
G01*
X251622343Y-53548750D02*
X258272341Y-53548750D01*
D11*
X220781761Y-55973604D02*
X220685178Y-56010628D01*
X220594083Y-56059497D01*
X220508030Y-56120360D01*
X220491386Y-56133985D01*
D10*
X213597339Y-71663116D02*
X208697339Y-71663116D01*
X208097339Y-64716880D02*
G75*
G02*
X208697339Y-64116939I599961J-20D01*
G01*
D11*
X58982422Y-58325731D02*
X59084454Y-58314779D01*
X59191233Y-58311393D01*
X59247337Y-58311242D01*
X134837915Y-51211104D02*
X134934497Y-51248128D01*
X135025592Y-51296997D01*
X135111645Y-51357860D01*
X135128290Y-51371485D01*
X202122341Y-58311250D02*
X202017821Y-58312220D01*
X201909204Y-58319010D01*
X201809099Y-58334638D01*
X201731761Y-58354854D01*
D10*
X70647337Y-118461286D02*
X84947337Y-118461286D01*
X214197339Y-71063116D02*
G75*
G02*
X213597339Y-71663139I-599939J-84D01*
G01*
X335472341Y-150659851D02*
G75*
G02*
X334472341Y-151659841I-1000041J51D01*
G01*
X192597335Y-113480000D02*
X192597335Y-106780000D01*
D11*
X277845456Y-51265800D02*
X277751479Y-51224243D01*
X277654722Y-51195170D01*
X277587256Y-51181989D01*
D10*
X113607174Y-145659851D02*
X113607174Y-119461250D01*
X316322340Y-59811245D02*
X316322339Y-65861250D01*
D11*
X239236830Y-54283835D02*
X239225878Y-54385867D01*
X239222492Y-54492646D01*
X239222341Y-54548750D01*
D10*
X146847337Y-49167500D02*
X246872339Y-49167500D01*
X135447335Y-53548750D02*
X135447335Y-52167500D01*
D11*
X212530700Y-144028400D02*
X212573899Y-144123578D01*
X212624080Y-144220148D01*
X212678895Y-144305357D01*
X212728689Y-144367891D01*
D10*
X308772337Y-116461250D02*
X308772337Y-118461286D01*
D12*
X173500000Y-97625000D02*
G75*
G02*
X174000000Y-97125000I500000J0D01*
G01*
D10*
X246872339Y-53548750D02*
X246872339Y-49167500D01*
D11*
X135432846Y-51902585D02*
X135443797Y-52004617D01*
X135447183Y-52111396D01*
X135447335Y-52167500D01*
D10*
X213767339Y-58311250D02*
X220172341Y-58311250D01*
D11*
X212992892Y-144568481D02*
X213087996Y-144608780D01*
X213193692Y-144639776D01*
X213296281Y-144656877D01*
X213331794Y-144659851D01*
X297372341Y-54548750D02*
X297371370Y-54444230D01*
X297364580Y-54335613D01*
X297348952Y-54235508D01*
X297328737Y-54158170D01*
D10*
X59247339Y-118461286D02*
X65897337Y-118461286D01*
D12*
X179750000Y-103875000D02*
X174000000Y-103875000D01*
D10*
X316322337Y-100911250D02*
X316322336Y-106961255D01*
X77397336Y-108961255D02*
G75*
G02*
X78197336Y-108961255I400000J0D01*
G01*
X185622337Y-71063116D02*
G75*
G02*
X185022337Y-71663137I-599937J-84D01*
G01*
X251622339Y-53548750D02*
X251622339Y-49167500D01*
D11*
X278118356Y-51486545D02*
X278047708Y-51411194D01*
X277963608Y-51340063D01*
X277876724Y-51282895D01*
X277845456Y-51265800D01*
D10*
X289722345Y-53548750D02*
X296372341Y-53548750D01*
X96347335Y-54548750D02*
X96347335Y-58311249D01*
D11*
X97082420Y-53563239D02*
X97184452Y-53552287D01*
X97291231Y-53548901D01*
X97347335Y-53548750D01*
X268708926Y-132878848D02*
X268773645Y-132794810D01*
X268830944Y-132703571D01*
X268858639Y-132655511D01*
X334472341Y-116461250D02*
X334576859Y-116460279D01*
X334685477Y-116453489D01*
X334785581Y-116437861D01*
X334862920Y-116417646D01*
D10*
X280112500Y-118461250D02*
X304022337Y-118461286D01*
D11*
X191597335Y-58311250D02*
X191701854Y-58312220D01*
X191810471Y-58319010D01*
X191910576Y-58334638D01*
X191987915Y-58354854D01*
X173532846Y-56665085D02*
X173543797Y-56767117D01*
X173547183Y-56873896D01*
X173547335Y-56930000D01*
X335374041Y-115984365D02*
X335415597Y-115890388D01*
X335444670Y-115793631D01*
X335457852Y-115726165D01*
D10*
X185022337Y-64116880D02*
G75*
G02*
X185622320Y-64716880I-37J-600020D01*
G01*
D11*
X135349035Y-51644385D02*
X135390591Y-51738361D01*
X135419664Y-51835118D01*
X135432846Y-51902585D01*
X296637256Y-53563239D02*
X296535223Y-53552287D01*
X296428444Y-53548901D01*
X296372341Y-53548750D01*
D10*
X77397339Y-81861250D02*
G75*
G02*
X78197339Y-81861250I400000J0D01*
G01*
X80297337Y-77861250D02*
G75*
G02*
X75297337Y-77861250I-2500000J0D01*
G01*
X75297337Y-77861250D02*
G75*
G02*
X80297337Y-77861250I2500000J0D01*
G01*
X304022337Y-116461250D02*
X278112502Y-116461250D01*
X179522337Y-71063116D02*
X179522337Y-64716880D01*
D11*
X173228290Y-56133985D02*
X173303640Y-56204632D01*
X173374771Y-56288732D01*
X173431939Y-56375616D01*
X173449035Y-56406885D01*
X220270641Y-56406885D02*
X220229084Y-56500861D01*
X220200011Y-56597618D01*
X220186830Y-56665085D01*
D10*
X289722337Y-49167500D02*
X334472339Y-49167500D01*
X279112500Y-119461250D02*
G75*
G02*
X280112500Y-118461200I1000100J-50D01*
G01*
D11*
X58247337Y-59311242D02*
X58248307Y-59206723D01*
X58255097Y-59098105D01*
X58270725Y-58998001D01*
X58290941Y-58920663D01*
X239541386Y-53752735D02*
X239466035Y-53823382D01*
X239394904Y-53907482D01*
X239337736Y-53994366D01*
X239320641Y-54025635D01*
D10*
X103997337Y-53548750D02*
X97347335Y-53548750D01*
X173547335Y-58311250D02*
X173547335Y-56930000D01*
D12*
X180250000Y-103375000D02*
G75*
G02*
X179750000Y-103875000I-500000J0D01*
G01*
D11*
X173449035Y-56406885D02*
X173490591Y-56500861D01*
X173519664Y-56597618D01*
X173532846Y-56665085D01*
D10*
X192597335Y-102030000D02*
X192597335Y-106780000D01*
X301277339Y-96911250D02*
G75*
G02*
X296277339Y-96911250I-2500000J0D01*
G01*
X296277339Y-96911250D02*
G75*
G02*
X301277339Y-96911250I2500000J0D01*
G01*
D11*
X201138783Y-118256667D02*
X201167717Y-118356546D01*
X201207948Y-118453506D01*
D12*
X213469676Y-97625000D02*
G75*
G02*
X213969676Y-97124976I500024J0D01*
G01*
D10*
X240222341Y-53548750D02*
X246872339Y-53548750D01*
X58247335Y-150659851D02*
X58247335Y-119461249D01*
X142097337Y-53548750D02*
X142097337Y-49167500D01*
X335472339Y-59311242D02*
X335472341Y-115461250D01*
X208097339Y-71063116D02*
X208097339Y-64716880D01*
D12*
X213469676Y-103375000D02*
X213469676Y-97625000D01*
X220219676Y-103375000D02*
G75*
G02*
X219719676Y-103874976I-499976J0D01*
G01*
D11*
X192278290Y-58515235D02*
X192353640Y-58585882D01*
X192424771Y-58669982D01*
X192481939Y-58756866D01*
X192499035Y-58788135D01*
X335268354Y-58630287D02*
X335197706Y-58554936D01*
X335113606Y-58483805D01*
X335026723Y-58426637D01*
X334995455Y-58409542D01*
D10*
X315522339Y-81861250D02*
G75*
G02*
X316322339Y-81861250I400000J0D01*
G01*
X220172341Y-58311250D02*
X220172341Y-56930000D01*
D12*
X174000000Y-97125000D02*
X179750000Y-97125000D01*
D10*
X335472339Y-48167500D02*
X335472339Y-45167500D01*
D11*
X192582846Y-59046335D02*
X192593797Y-59148367D01*
X192597183Y-59255146D01*
X192597335Y-59311250D01*
D10*
X78197339Y-73861250D02*
G75*
G02*
X77397339Y-73861250I-400000J0D01*
G01*
X185622337Y-64716880D02*
X185622337Y-71063116D01*
X115397335Y-53548750D02*
X108747333Y-53548750D01*
X308772337Y-118461286D02*
X323072337Y-118461286D01*
D11*
X220491386Y-56133985D02*
X220416035Y-56204632D01*
X220344904Y-56288732D01*
X220287736Y-56375616D01*
X220270641Y-56406885D01*
X172937915Y-55973604D02*
X173034497Y-56010628D01*
X173125592Y-56059497D01*
X173211645Y-56120360D01*
X173228290Y-56133985D01*
D10*
X192597335Y-68480000D02*
X192597335Y-59311250D01*
X230739860Y-137060296D02*
X213849921Y-144537964D01*
X162979816Y-137060296D02*
X179869755Y-144537964D01*
X114607174Y-146659851D02*
G75*
G02*
X113607149Y-145659851I26J1000051D01*
G01*
D11*
X334737254Y-58325731D02*
X334635221Y-58314779D01*
X334528442Y-58311393D01*
X334472339Y-58311242D01*
D10*
X327822337Y-118461286D02*
X334472342Y-118461249D01*
D11*
X180990987Y-144367891D02*
X180918032Y-144441217D01*
X180836469Y-144504730D01*
X180745980Y-144558777D01*
X180726784Y-144568481D01*
X239320641Y-54025635D02*
X239279084Y-54119611D01*
X239250011Y-54216368D01*
X239236830Y-54283835D01*
D10*
X179522337Y-64716880D02*
G75*
G02*
X180122337Y-64116937I599963J-20D01*
G01*
X180122337Y-64116880D02*
X185022337Y-64116880D01*
D11*
X335472339Y-59311242D02*
X335471368Y-59206723D01*
X335464578Y-59098105D01*
X335448950Y-58998001D01*
X335428735Y-58920663D01*
X172547335Y-55930000D02*
X172651854Y-55930970D01*
X172760471Y-55937760D01*
X172860576Y-55953388D01*
X172937915Y-55973604D01*
D10*
X192597335Y-68480000D02*
X192597335Y-102030000D01*
D11*
X125239257Y-133057871D02*
X125151651Y-133005704D01*
X125070861Y-132940849D01*
X125010750Y-132878848D01*
X180726784Y-144568481D02*
X180631679Y-144608780D01*
X180525983Y-144639776D01*
X180423394Y-144656877D01*
X180387882Y-144659851D01*
D10*
X185022337Y-71663116D02*
X180122337Y-71663116D01*
X318422339Y-77861250D02*
G75*
G02*
X313422339Y-77861250I-2500000J0D01*
G01*
X313422339Y-77861250D02*
G75*
G02*
X318422339Y-77861250I2500000J0D01*
G01*
D11*
X201220641Y-58788135D02*
X201179084Y-58882111D01*
X201150011Y-58978868D01*
X201136830Y-59046335D01*
X268094403Y-133153949D02*
X268195628Y-133142123D01*
X268303429Y-133122174D01*
X268403478Y-133091745D01*
X268480419Y-133057871D01*
D10*
X214197339Y-64716880D02*
X214197339Y-71063116D01*
X78197337Y-114961250D02*
G75*
G02*
X77397337Y-114961250I-400000J0D01*
G01*
D12*
X219719676Y-103875000D02*
X213969676Y-103875000D01*
D10*
X172547335Y-55930000D02*
X154497335Y-55930000D01*
D11*
X125625273Y-133153949D02*
X125524047Y-133142123D01*
X125416246Y-133122174D01*
X125316197Y-133091745D01*
X125239257Y-133057871D01*
D10*
X146847337Y-53548750D02*
X146847337Y-49167500D01*
D11*
X192597335Y-118048678D02*
X192594869Y-118153623D01*
X192580893Y-118256667D01*
D10*
X70647337Y-116461250D02*
X70647337Y-118461286D01*
X154497335Y-55930000D02*
X154497335Y-54548750D01*
D11*
X201731761Y-58354854D02*
X201635178Y-58391878D01*
X201544083Y-58440747D01*
X201458030Y-58501610D01*
X201441386Y-58515235D01*
X268480419Y-133057871D02*
X268568024Y-133005704D01*
X268648814Y-132940849D01*
X268708926Y-132878848D01*
D12*
X174000000Y-103875000D02*
G75*
G02*
X173500000Y-103375000I0J500000D01*
G01*
D11*
X201136830Y-59046335D02*
X201125878Y-59148367D01*
X201122492Y-59255146D01*
X201122341Y-59311250D01*
D12*
X179750000Y-97125000D02*
G75*
G02*
X180250000Y-97625000I0J-500000D01*
G01*
D10*
X59247335Y-151659851D02*
X334472341Y-151659851D01*
D11*
X153887915Y-53592354D02*
X153984497Y-53629378D01*
X154075592Y-53678247D01*
X154161645Y-53739110D01*
X154178290Y-53752735D01*
D12*
X213969676Y-103875000D02*
G75*
G02*
X213469700Y-103375000I24J500000D01*
G01*
X213969676Y-97125000D02*
X219719676Y-97125000D01*
D10*
X191597335Y-58311250D02*
X189192337Y-58311250D01*
X97442337Y-77861250D02*
G75*
G02*
X92442337Y-77861250I-2500000J0D01*
G01*
X92442337Y-77861250D02*
G75*
G02*
X97442337Y-77861250I2500000J0D01*
G01*
D11*
X96347335Y-54548750D02*
X96348305Y-54444230D01*
X96355095Y-54335613D01*
X96370723Y-54235508D01*
X96390939Y-54158170D01*
D10*
X115397335Y-52167500D02*
X115397335Y-53548750D01*
X201122341Y-102030000D02*
X201122341Y-106780000D01*
X318422339Y-96911250D02*
G75*
G02*
X313422339Y-96911250I-2500000J0D01*
G01*
X313422339Y-96911250D02*
G75*
G02*
X318422339Y-96911250I2500000J0D01*
G01*
X315522340Y-59811245D02*
G75*
G02*
X316322340Y-59811245I400000J0D01*
G01*
D11*
X192580893Y-118256667D02*
X192551958Y-118356546D01*
X192511728Y-118453506D01*
D10*
X204527339Y-58311250D02*
X213767339Y-58311250D01*
D11*
X59247335Y-116461250D02*
X59142816Y-116460279D01*
X59034198Y-116453489D01*
X58934094Y-116437861D01*
X58856756Y-116417646D01*
D10*
X316322339Y-67861250D02*
X316322339Y-73861250D01*
D11*
X125010750Y-132878848D02*
X124946030Y-132794810D01*
X124888731Y-132703571D01*
X124861037Y-132655511D01*
X96551320Y-53867795D02*
X96621967Y-53792444D01*
X96706067Y-53721313D01*
X96792951Y-53664145D01*
X96824220Y-53647050D01*
X335153296Y-116257265D02*
X335228646Y-116186617D01*
X335299777Y-116102517D01*
X335356945Y-116015633D01*
X335374041Y-115984365D01*
X180117857Y-144631961D02*
X180020125Y-144600669D01*
X179921117Y-144560538D01*
X179869755Y-144537964D01*
D10*
X153497335Y-53548750D02*
X146847333Y-53548750D01*
D11*
X334862920Y-116417646D02*
X334959503Y-116380621D01*
X335050598Y-116331752D01*
X335136651Y-116270889D01*
X335153296Y-116257265D01*
X135128290Y-51371485D02*
X135203640Y-51442132D01*
X135274771Y-51526232D01*
X135331939Y-51613116D01*
X135349035Y-51644385D01*
D10*
X115607174Y-116461250D02*
X124861037Y-132655511D01*
D11*
X220186830Y-56665085D02*
X220175878Y-56767117D01*
X220172492Y-56873896D01*
X220172341Y-56930000D01*
D10*
X89697337Y-116461250D02*
X115607174Y-116461250D01*
X156497335Y-113580000D02*
G75*
G02*
X151497335Y-113580000I-2500000J0D01*
G01*
X151497335Y-113580000D02*
G75*
G02*
X156497335Y-113580000I2500000J0D01*
G01*
D11*
X278278737Y-51776920D02*
X278241712Y-51680337D01*
X278192843Y-51589242D01*
X278131980Y-51503189D01*
X278118356Y-51486545D01*
D10*
X80297337Y-96911250D02*
G75*
G02*
X75297337Y-96911250I-2500000J0D01*
G01*
X75297337Y-96911250D02*
G75*
G02*
X80297337Y-96911250I2500000J0D01*
G01*
D11*
X58856756Y-116417646D02*
X58760172Y-116380621D01*
X58669077Y-116331752D01*
X58583024Y-116270889D01*
X58566380Y-116257265D01*
D10*
X315522337Y-100911250D02*
X315522336Y-106961255D01*
X213597339Y-64116880D02*
G75*
G02*
X214197320Y-64716880I-39J-600020D01*
G01*
X77397336Y-108961255D02*
X77397337Y-114961250D01*
X316322337Y-114961250D02*
G75*
G02*
X315522337Y-114961250I-400000J0D01*
G01*
X315522336Y-108961255D02*
X315522337Y-114961250D01*
X179952337Y-58311250D02*
X173547335Y-58311250D01*
D11*
X58566380Y-116257265D02*
X58491029Y-116186617D01*
X58419898Y-116102517D01*
X58362730Y-116015633D01*
X58345635Y-115984365D01*
D10*
X316322339Y-73861250D02*
G75*
G02*
X315522339Y-73861250I-400000J0D01*
G01*
D11*
X58724221Y-58409542D02*
X58818198Y-58367985D01*
X58914955Y-58338912D01*
X58982422Y-58325731D01*
X240222341Y-53548750D02*
X240117821Y-53549720D01*
X240009204Y-53556510D01*
X239909099Y-53572138D01*
X239831761Y-53592354D01*
D10*
X134447335Y-51167500D02*
X116397335Y-51167500D01*
D11*
X297168356Y-53867795D02*
X297097708Y-53792444D01*
X297013608Y-53721313D01*
X296926724Y-53664145D01*
X296895456Y-53647050D01*
D10*
X316322336Y-106961255D02*
G75*
G02*
X315522336Y-106961255I-400000J0D01*
G01*
X96347335Y-58311249D02*
X59247337Y-58311242D01*
X308772337Y-116461250D02*
X323072337Y-116461250D01*
D12*
X173500000Y-103375000D02*
X173500000Y-97625000D01*
D11*
X115440939Y-51776920D02*
X115477963Y-51680337D01*
X115526832Y-51589242D01*
X115587695Y-51503189D01*
X115601320Y-51486545D01*
D10*
X304022337Y-116461250D02*
X304022337Y-118461286D01*
X259272341Y-51167500D02*
X277322341Y-51167500D01*
X278322341Y-53548750D02*
X284972337Y-53548750D01*
D11*
X115601320Y-51486545D02*
X115671967Y-51411194D01*
X115756067Y-51340063D01*
X115842951Y-51282895D01*
X115874220Y-51265800D01*
X181188976Y-144028400D02*
X181145776Y-144123578D01*
X181095595Y-144220148D01*
X181040780Y-144305357D01*
X180990987Y-144367891D01*
D10*
X142097337Y-49167500D02*
X108747333Y-49167500D01*
D11*
X259272341Y-51167500D02*
X259167821Y-51168470D01*
X259059204Y-51175260D01*
X258959099Y-51190888D01*
X258881761Y-51211104D01*
D10*
X284972337Y-53548750D02*
X284972337Y-49167500D01*
X58247337Y-59311242D02*
X58247335Y-115461250D01*
X65897337Y-116461250D02*
X65897337Y-118461286D01*
D11*
X58261824Y-115726165D02*
X58250872Y-115624132D01*
X58247486Y-115517353D01*
X58247335Y-115461250D01*
D10*
X58247335Y-119461249D02*
G75*
G02*
X59247339Y-118461235I999965J49D01*
G01*
X212530700Y-144028400D02*
X201207948Y-118453506D01*
D11*
X334995455Y-58409542D02*
X334901477Y-58367985D01*
X334804720Y-58338912D01*
X334737254Y-58325731D01*
X213331794Y-144659851D02*
X213434549Y-144659806D01*
X213534792Y-144647220D01*
X213601819Y-144631961D01*
D10*
X201122341Y-68480000D02*
X201122341Y-102030000D01*
X84947337Y-116461250D02*
X84947337Y-118461286D01*
X70647337Y-116461250D02*
X84947337Y-116461250D01*
X202122341Y-58311250D02*
X204527339Y-58311250D01*
D11*
X239831761Y-53592354D02*
X239735178Y-53629378D01*
X239644083Y-53678247D01*
X239558030Y-53739110D01*
X239541386Y-53752735D01*
X96824220Y-53647050D02*
X96918196Y-53605493D01*
X97014953Y-53576420D01*
X97082420Y-53563239D01*
X192499035Y-58788135D02*
X192540591Y-58882111D01*
X192569664Y-58978868D01*
X192582846Y-59046335D01*
D12*
X220219676Y-97625000D02*
X220219676Y-103375000D01*
D10*
X181188976Y-144028400D02*
X192511728Y-118453506D01*
X78197336Y-108961255D02*
X78197337Y-114961250D01*
X242222341Y-113580000D02*
G75*
G02*
X237222341Y-113580000I-2500000J0D01*
G01*
X237222341Y-113580000D02*
G75*
G02*
X242222341Y-113580000I2500000J0D01*
G01*
X327822337Y-116461250D02*
X334472341Y-116461250D01*
M02*
