M48
; DRILL file {KiCad 8.0.4} date 2025-02-19T18:48:19+1300
; FORMAT={-:-/ absolute / inch / decimal}
; #@! TF.CreationDate,2025-02-19T18:48:19+13:00
; #@! TF.GenerationSoftware,Kicad,Pcbnew,8.0.4
; #@! TF.FileFunction,Plated,1,2,PTH
FMAT,2
INCH
; #@! TA.AperFunction,Plated,PTH,ViaDrill
T1C0.0157
; #@! TA.AperFunction,Plated,PTH,ComponentDrill
T2C0.0295
; #@! TA.AperFunction,Plated,PTH,ComponentDrill
T3C0.0315
; #@! TA.AperFunction,Plated,PTH,ComponentDrill
T4C0.0354
; #@! TA.AperFunction,Plated,PTH,ComponentDrill
T5C0.0394
; #@! TA.AperFunction,Plated,PTH,ComponentDrill
T6C0.0430
; #@! TA.AperFunction,Plated,PTH,ComponentDrill
T7C0.0512
%
G90
G05
T1
X2.9606Y-3.7362
X3.2126Y-3.7913
X3.5197Y-3.0079
X3.6166Y-2.9945
X4.5125Y-2.7975
X5.2625Y-2.8148
X5.9395Y-2.812
X6.7913Y-3.8298
X6.9606Y-2.8268
X7.0482Y-2.9557
X7.0492Y-2.9921
X7.1575Y-2.4488
X7.2879Y-3.563
X7.3425Y-2.5039
X7.3425Y-3.5433
X7.3622Y-3.6417
X7.3879Y-3.5433
X7.4213Y-3.5768
X8.1201Y-2.8445
X8.1299Y-2.9429
X8.1299Y-3.0433
X8.1299Y-3.1433
X8.1299Y-3.2433
X8.1299Y-3.3433
X8.1299Y-3.4433
X8.2835Y-2.4488
X8.3887Y-3.5433
X8.4129Y-3.6299
X8.4429Y-3.4675
X8.4449Y-3.5
X8.4843Y-2.5
X8.4843Y-2.8543
X8.6772Y-3.2165
X8.703Y-3.2441
X8.7087Y-2.9803
X8.7303Y-2.9429
X8.748Y-3.0045
X10.063Y-2.8474
X10.813Y-2.8301
X11.563Y-2.8443
X12.2854Y-3.0512
X12.3272Y-2.9917
T2
X7.3602Y-3.9173
X7.3602Y-3.9961
X8.1405Y-3.9173
X8.1405Y-3.9961
T3
X2.3904Y-2.4695
X2.3904Y-2.7695
X2.3904Y-3.2195
X2.3904Y-3.5195
X2.3904Y-3.9695
X2.3904Y-4.2695
X3.1404Y-2.4695
X3.1404Y-2.7695
X3.1404Y-3.2195
X3.1404Y-3.5195
X3.1404Y-3.9695
X3.1404Y-4.2695
X3.8904Y-2.282
X3.8904Y-2.582
X3.8904Y-3.032
X3.8904Y-3.332
X3.8904Y-3.782
X3.8904Y-4.082
X4.6404Y-2.1883
X4.6404Y-2.4883
X4.6404Y-2.9383
X4.6404Y-3.2383
X4.6404Y-3.6883
X4.6404Y-3.9883
X5.3904Y-2.282
X5.3904Y-2.582
X5.3904Y-3.032
X5.3904Y-3.332
X5.3904Y-3.782
X5.3904Y-4.082
X5.7992Y-4.5941
X5.7992Y-4.8941
X6.1404Y-2.3618
X6.1404Y-2.6618
X6.1404Y-3.1258
X6.1404Y-3.4258
X6.1404Y-3.8758
X6.1404Y-4.1758
X6.5079Y-4.4445
X6.5079Y-4.7445
X6.6654Y-4.4445
X6.6654Y-4.7445
X8.7654Y-2.3758
X8.7654Y-2.6758
X8.7654Y-3.1258
X8.7654Y-3.4258
X8.7654Y-3.8758
X8.7654Y-4.1758
X8.8354Y-4.4445
X8.8354Y-4.7445
X8.9929Y-4.4445
X8.9929Y-4.7445
X9.4891Y-3.0701
X9.4891Y-3.3701
X9.5154Y-2.282
X9.5154Y-2.582
X9.5154Y-3.782
X9.5154Y-4.082
X9.8769Y-4.5052
X9.8769Y-4.8052
X10.2654Y-2.1883
X10.2654Y-2.4883
X10.2654Y-2.9383
X10.2654Y-3.2383
X10.2654Y-3.6883
X10.2654Y-3.9883
X11.0154Y-2.282
X11.0154Y-2.582
X11.0154Y-3.032
X11.0154Y-3.332
X11.0154Y-3.782
X11.0154Y-4.082
X11.7654Y-2.4695
X11.7654Y-2.7695
X11.7654Y-3.2254
X11.7654Y-3.5254
X11.7654Y-3.9754
X11.7654Y-4.2754
X12.5154Y-2.4695
X12.5154Y-2.7695
X12.5154Y-3.2195
X12.5154Y-3.5195
X12.5154Y-3.9695
X12.5154Y-4.2695
T5
X6.8879Y-2.4929
X6.8879Y-2.5929
X6.8879Y-2.6929
X6.8879Y-2.7929
X6.8879Y-2.8929
X6.8879Y-2.9929
X6.8879Y-3.0929
X6.8879Y-3.1929
X6.8879Y-3.2929
X6.8879Y-3.3929
X6.8879Y-3.4929
X6.8879Y-3.5929
X7.4879Y-2.4929
X7.4879Y-2.5929
X7.4879Y-2.6929
X7.4879Y-2.7929
X7.4879Y-2.8929
X7.4879Y-2.9929
X7.4879Y-3.0929
X7.4879Y-3.1929
X7.4879Y-3.2929
X7.4879Y-3.3929
X7.4879Y-3.4929
X7.4879Y-3.5929
X8.0129Y-2.4929
X8.0129Y-2.5929
X8.0129Y-2.6929
X8.0129Y-2.7929
X8.0129Y-2.8929
X8.0129Y-2.9929
X8.0129Y-3.0929
X8.0129Y-3.1929
X8.0129Y-3.2929
X8.0129Y-3.3929
X8.0129Y-3.4929
X8.0129Y-3.5929
X8.6129Y-2.4929
X8.6129Y-2.5929
X8.6129Y-2.6929
X8.6129Y-2.7929
X8.6129Y-2.8929
X8.6129Y-2.9929
X8.6129Y-3.0929
X8.6129Y-3.1929
X8.6129Y-3.2929
X8.6129Y-3.3929
X8.6129Y-3.4929
X8.6129Y-3.5929
T6
X6.9879Y-3.752
X7.0879Y-3.752
X7.1879Y-3.752
X7.2879Y-3.752
X7.3879Y-3.752
X8.1129Y-3.752
X8.2129Y-3.752
X8.3129Y-3.752
X8.4129Y-3.752
X8.5129Y-3.752
T7
X7.5101Y-3.7052
X7.5101Y-3.9611
X7.9906Y-3.7052
X7.9906Y-3.9611
T4
G00X7.1454Y-4.1565
M15
G01X7.1296Y-4.1565
M16
G05
G00X7.1887Y-4.3376
M15
G01X7.1729Y-4.3376
M16
G05
G00X7.3462Y-4.3376
M15
G01X7.3304Y-4.3376
M16
G05
G00X7.4643Y-4.3376
M15
G01X7.4485Y-4.3376
M16
G05
G00X8.0365Y-4.1565
M15
G01X8.0523Y-4.1565
M16
G05
G00X8.1546Y-4.1565
M15
G01X8.1704Y-4.1565
M16
G05
G00X8.3121Y-4.1565
M15
G01X8.3278Y-4.1565
M16
G05
G00X8.3554Y-4.3376
M15
G01X8.3712Y-4.3376
M16
G05
M30
