G04 #@! TF.GenerationSoftware,KiCad,Pcbnew,8.0.4*
G04 #@! TF.CreationDate,2025-02-19T18:48:15+13:00*
G04 #@! TF.ProjectId,Corne V4 Pro Micro Edition,436f726e-6520-4563-9420-50726f204d69,4.0.0*
G04 #@! TF.SameCoordinates,Original*
G04 #@! TF.FileFunction,Soldermask,Bot*
G04 #@! TF.FilePolarity,Negative*
%FSLAX46Y46*%
G04 Gerber Fmt 4.6, Leading zero omitted, Abs format (unit mm)*
G04 Created by KiCad (PCBNEW 8.0.4) date 2025-02-19 18:48:15*
%MOMM*%
%LPD*%
G01*
G04 APERTURE LIST*
G04 Aperture macros list*
%AMRoundRect*
0 Rectangle with rounded corners*
0 $1 Rounding radius*
0 $2 $3 $4 $5 $6 $7 $8 $9 X,Y pos of 4 corners*
0 Add a 4 corners polygon primitive as box body*
4,1,4,$2,$3,$4,$5,$6,$7,$8,$9,$2,$3,0*
0 Add four circle primitives for the rounded corners*
1,1,$1+$1,$2,$3*
1,1,$1+$1,$4,$5*
1,1,$1+$1,$6,$7*
1,1,$1+$1,$8,$9*
0 Add four rect primitives between the rounded corners*
20,1,$1+$1,$2,$3,$4,$5,0*
20,1,$1+$1,$4,$5,$6,$7,0*
20,1,$1+$1,$6,$7,$8,$9,0*
20,1,$1+$1,$8,$9,$2,$3,0*%
G04 Aperture macros list end*
%ADD10C,0.500000*%
%ADD11C,1.800000*%
%ADD12RoundRect,0.450000X-0.450000X-0.450000X0.450000X-0.450000X0.450000X0.450000X-0.450000X0.450000X0*%
%ADD13C,2.300000*%
%ADD14C,2.000000*%
%ADD15RoundRect,0.250000X0.625000X-0.350000X0.625000X0.350000X-0.625000X0.350000X-0.625000X-0.350000X0*%
%ADD16O,1.750000X1.200000*%
%ADD17C,0.900000*%
%ADD18C,0.800000*%
%ADD19O,2.000000X1.600000*%
%ADD20C,1.752600*%
%ADD21RoundRect,0.250000X-0.625000X0.350000X-0.625000X-0.350000X0.625000X-0.350000X0.625000X0.350000X0*%
%ADD22C,1.700000*%
%ADD23C,1.750000*%
%ADD24C,3.000000*%
%ADD25C,3.987800*%
%ADD26RoundRect,0.250000X-1.025000X-1.000000X1.025000X-1.000000X1.025000X1.000000X-1.025000X1.000000X0*%
%ADD27RoundRect,0.260000X-1.065000X-1.040000X1.065000X-1.040000X1.065000X1.040000X-1.065000X1.040000X0*%
%ADD28O,1.600000X1.600000*%
%ADD29R,0.950000X1.300000*%
%ADD30R,1.600000X1.600000*%
%ADD31RoundRect,0.250000X-1.209711X-0.766305X0.795937X-1.190424X1.209711X0.766305X-0.795937X1.190424X0*%
%ADD32RoundRect,0.260000X-1.257121X-0.797164X0.826796X-1.237834X1.257121X0.797164X-0.826796X1.237834X0*%
%ADD33RoundRect,0.250000X-1.329338X0.532433X-0.499452X-1.342078X1.329338X-0.532433X0.499452X1.342078X0*%
%ADD34RoundRect,0.260000X-1.382107X0.552816X-0.519835X-1.394846X1.382107X-0.552816X0.519835X1.394846X0*%
%ADD35RoundRect,0.250000X-0.795937X-1.190424X1.209711X-0.766305X0.795937X1.190424X-1.209711X0.766305X0*%
%ADD36RoundRect,0.260000X-0.826796X-1.237834X1.257121X-0.797164X0.826796X1.237834X-1.257121X0.797164X0*%
%ADD37RoundRect,0.250000X0.499452X-1.342078X1.329338X0.532433X-0.499452X1.342078X-1.329338X-0.532433X0*%
%ADD38RoundRect,0.260000X0.519835X-1.394846X1.382107X0.552816X-0.519835X1.394846X-1.382107X-0.552816X0*%
G04 APERTURE END LIST*
D10*
X65897337Y-116661250D03*
X66689004Y-116661250D03*
X67480670Y-116661250D03*
X68272337Y-116661250D03*
X69064004Y-116661250D03*
X69855670Y-116661250D03*
X70647337Y-116661250D03*
X142097337Y-53348750D03*
X142889004Y-53348750D03*
X143680670Y-53348750D03*
X144472337Y-53348750D03*
X145264004Y-53348750D03*
X146055670Y-53348750D03*
X146847337Y-53348750D03*
D11*
X190192337Y-63320000D03*
X190192337Y-65860000D03*
D12*
X190192337Y-68400000D03*
X190192337Y-70940000D03*
D11*
X190192337Y-73480000D03*
X190192337Y-76020000D03*
X190192337Y-78560000D03*
X190192337Y-81100000D03*
X190192337Y-83640000D03*
X190192337Y-86180000D03*
X190192337Y-88720000D03*
X190192337Y-91260000D03*
X174952337Y-63320000D03*
D12*
X174952337Y-65860000D03*
D11*
X174952337Y-68400000D03*
X174952337Y-70940000D03*
X174952337Y-73480000D03*
X174952337Y-76020000D03*
X174952337Y-78560000D03*
X174952337Y-81100000D03*
X174952337Y-83640000D03*
X174952337Y-86180000D03*
X174952337Y-88720000D03*
X174952337Y-91260000D03*
D10*
X246872339Y-53348750D03*
X247664006Y-53348750D03*
X248455672Y-53348750D03*
X249247339Y-53348750D03*
X250039006Y-53348750D03*
X250830672Y-53348750D03*
X251622339Y-53348750D03*
D13*
X218106776Y-106827800D03*
D10*
X84947337Y-116661250D03*
X85739004Y-116661250D03*
X86530670Y-116661250D03*
X87322337Y-116661250D03*
X88114004Y-116661250D03*
X88905670Y-116661250D03*
X89697337Y-116661250D03*
D13*
X203674776Y-113217400D03*
D14*
X202962502Y-94111250D03*
X202962502Y-100611250D03*
D15*
X206769675Y-101500000D03*
D16*
X206769675Y-99500000D03*
D17*
X184072337Y-60210000D03*
X181072337Y-60210000D03*
X212647339Y-60210000D03*
X209647339Y-60210000D03*
D10*
X284972337Y-53348750D03*
X285764004Y-53348750D03*
X286555670Y-53348750D03*
X287347337Y-53348750D03*
X288139004Y-53348750D03*
X288930670Y-53348750D03*
X289722337Y-53348750D03*
D18*
X190992337Y-107876250D03*
X183992337Y-107876250D03*
D19*
X181292337Y-105576250D03*
X182392337Y-110176250D03*
X186392337Y-110176250D03*
X189392337Y-110176250D03*
D18*
X202727339Y-107876250D03*
X209727339Y-107876250D03*
D19*
X212427339Y-110176250D03*
X211327339Y-105576250D03*
X207327339Y-105576250D03*
X204327339Y-105576250D03*
D11*
X218767339Y-63320000D03*
X218767339Y-65860000D03*
D12*
X218767339Y-68400000D03*
X218767339Y-70940000D03*
D11*
X218767339Y-73480000D03*
X218767339Y-76020000D03*
X218767339Y-78560000D03*
X218767339Y-81100000D03*
X218767339Y-83640000D03*
X218767339Y-86180000D03*
X218767339Y-88720000D03*
X218767339Y-91260000D03*
X203527339Y-63320000D03*
D12*
X203527339Y-65860000D03*
D11*
X203527339Y-68400000D03*
X203527339Y-70940000D03*
X203527339Y-73480000D03*
X203527339Y-76020000D03*
X203527339Y-78560000D03*
X203527339Y-81100000D03*
X203527339Y-83640000D03*
X203527339Y-86180000D03*
X203527339Y-88720000D03*
X203527339Y-91260000D03*
D20*
X206067339Y-95300000D03*
X208607339Y-95300000D03*
X211147339Y-95300000D03*
X213687339Y-95300000D03*
X216227339Y-95300000D03*
X177492337Y-95300000D03*
X180032337Y-95300000D03*
X182572337Y-95300000D03*
X185112337Y-95300000D03*
X187652337Y-95300000D03*
D10*
X323072337Y-116661250D03*
X323864004Y-116661250D03*
X324655670Y-116661250D03*
X325447337Y-116661250D03*
X326239004Y-116661250D03*
X327030670Y-116661250D03*
X327822337Y-116661250D03*
D21*
X186950001Y-99500000D03*
D16*
X186950001Y-101500000D03*
D14*
X190757174Y-94111250D03*
X190757174Y-100611250D03*
D10*
X304022337Y-116661250D03*
X304814004Y-116661250D03*
X305605670Y-116661250D03*
X306397337Y-116661250D03*
X307189004Y-116661250D03*
X307980670Y-116661250D03*
X308772337Y-116661250D03*
X103997337Y-53348750D03*
X104789004Y-53348750D03*
X105580670Y-53348750D03*
X106372337Y-53348750D03*
X107164004Y-53348750D03*
X107955670Y-53348750D03*
X108747337Y-53348750D03*
D22*
X158022337Y-65955000D03*
D23*
X158442337Y-65955000D03*
D24*
X160982337Y-71035000D03*
X163522337Y-60005000D03*
D25*
X163522337Y-65955000D03*
D24*
X167332337Y-68495000D03*
X168522337Y-62205000D03*
D23*
X168602337Y-65955000D03*
D22*
X169022337Y-65955000D03*
D26*
X170882337Y-68495000D03*
D27*
X171767337Y-62205000D03*
D26*
X157432337Y-71035000D03*
D27*
X160277337Y-60005000D03*
D28*
X298842339Y-89546250D03*
D29*
X298842339Y-87511250D03*
X298842339Y-83961250D03*
D30*
X298842339Y-81926250D03*
D28*
X60717337Y-70346250D03*
D29*
X60717337Y-68311250D03*
X60717337Y-64761250D03*
D30*
X60717337Y-62726250D03*
D22*
X300897339Y-87386250D03*
D23*
X301317339Y-87386250D03*
D24*
X303857339Y-92466250D03*
X306397339Y-81436250D03*
D25*
X306397339Y-87386250D03*
D24*
X310207339Y-89926250D03*
X311397339Y-83636250D03*
D23*
X311477339Y-87386250D03*
D22*
X311897339Y-87386250D03*
D26*
X313757339Y-89926250D03*
D27*
X314642339Y-83636250D03*
D26*
X300307339Y-92466250D03*
D27*
X303152339Y-81436250D03*
D28*
X79767337Y-89396250D03*
D29*
X79767337Y-87361250D03*
X79767337Y-83811250D03*
D30*
X79767337Y-81776250D03*
D28*
X155967337Y-87015000D03*
D29*
X155967337Y-84980000D03*
X155967337Y-81430000D03*
D30*
X155967337Y-79395000D03*
D22*
X281847339Y-101673750D03*
D23*
X282267339Y-101673750D03*
D24*
X284807339Y-106753750D03*
X287347339Y-95723750D03*
D25*
X287347339Y-101673750D03*
D24*
X291157339Y-104213750D03*
X292347339Y-97923750D03*
D23*
X292427339Y-101673750D03*
D22*
X292847339Y-101673750D03*
D26*
X294707339Y-104213750D03*
D27*
X295592339Y-97923750D03*
D26*
X281257339Y-106753750D03*
D27*
X284102339Y-95723750D03*
D28*
X136917337Y-84633750D03*
D29*
X136917337Y-82598750D03*
X136917337Y-79048750D03*
D30*
X136917337Y-77013750D03*
D22*
X253272339Y-123105000D03*
D23*
X253692339Y-123105000D03*
D24*
X256232339Y-128185000D03*
X258772339Y-117155000D03*
D25*
X258772339Y-123105000D03*
D24*
X262582339Y-125645000D03*
X263772339Y-119355000D03*
D23*
X263852339Y-123105000D03*
D22*
X264272339Y-123105000D03*
D26*
X266132339Y-125645000D03*
D27*
X267017339Y-119355000D03*
D26*
X252682339Y-128185000D03*
D27*
X255527339Y-117155000D03*
D28*
X317892339Y-89396250D03*
D29*
X317892339Y-87361250D03*
X317892339Y-83811250D03*
D30*
X317892339Y-81776250D03*
D22*
X129447337Y-123105000D03*
D23*
X129867337Y-123105000D03*
D24*
X132407337Y-128185000D03*
X134947337Y-117155000D03*
D25*
X134947337Y-123105000D03*
D24*
X138757337Y-125645000D03*
X139947337Y-119355000D03*
D23*
X140027337Y-123105000D03*
D22*
X140447337Y-123105000D03*
D26*
X142307337Y-125645000D03*
D27*
X143192337Y-119355000D03*
D26*
X128857337Y-128185000D03*
D27*
X131702337Y-117155000D03*
D22*
X138972337Y-63573750D03*
D23*
X139392337Y-63573750D03*
D24*
X141932337Y-68653750D03*
X144472337Y-57623750D03*
D25*
X144472337Y-63573750D03*
D24*
X148282337Y-66113750D03*
X149472337Y-59823750D03*
D23*
X149552337Y-63573750D03*
D22*
X149972337Y-63573750D03*
D26*
X151832337Y-66113750D03*
D27*
X152717337Y-59823750D03*
D26*
X138382337Y-68653750D03*
D27*
X141227337Y-57623750D03*
D22*
X262797339Y-99292500D03*
D23*
X263217339Y-99292500D03*
D24*
X265757339Y-104372500D03*
X268297339Y-93342500D03*
D25*
X268297339Y-99292500D03*
D24*
X272107339Y-101832500D03*
X273297339Y-95542500D03*
D23*
X273377339Y-99292500D03*
D22*
X273797339Y-99292500D03*
D26*
X275657339Y-101832500D03*
D27*
X276542339Y-95542500D03*
D26*
X262207339Y-104372500D03*
D27*
X265052339Y-93342500D03*
D28*
X98817337Y-84633750D03*
D29*
X98817337Y-82598750D03*
X98817337Y-79048750D03*
D30*
X98817337Y-77013750D03*
D28*
X60717337Y-89396250D03*
D29*
X60717337Y-87361250D03*
X60717337Y-83811250D03*
D30*
X60717337Y-81776250D03*
D28*
X317892339Y-70346250D03*
D29*
X317892339Y-68311250D03*
X317892339Y-64761250D03*
D30*
X317892339Y-62726250D03*
D28*
X241022339Y-85601250D03*
D29*
X241022339Y-83566250D03*
X241022339Y-80016250D03*
D30*
X241022339Y-77981250D03*
D28*
X79767337Y-108446250D03*
D29*
X79767337Y-106411250D03*
X79767337Y-102861250D03*
D30*
X79767337Y-100826250D03*
D28*
X224419676Y-112890000D03*
D29*
X224419676Y-114925000D03*
X224419676Y-118475000D03*
D30*
X224419676Y-120510000D03*
D22*
X262797339Y-80242500D03*
D23*
X263217339Y-80242500D03*
D24*
X265757339Y-85322500D03*
X268297339Y-74292500D03*
D25*
X268297339Y-80242500D03*
D24*
X272107339Y-82782500D03*
X273297339Y-76492500D03*
D23*
X273377339Y-80242500D03*
D22*
X273797339Y-80242500D03*
D26*
X275657339Y-82782500D03*
D27*
X276542339Y-76492500D03*
D26*
X262207339Y-85322500D03*
D27*
X265052339Y-74292500D03*
D13*
X175612900Y-106827800D03*
D22*
X300897339Y-106436250D03*
D23*
X301317339Y-106436250D03*
D24*
X303857339Y-111516250D03*
X306397339Y-100486250D03*
D25*
X306397339Y-106436250D03*
D24*
X310207339Y-108976250D03*
X311397339Y-102686250D03*
D23*
X311477339Y-106436250D03*
D22*
X311897339Y-106436250D03*
D26*
X313757339Y-108976250D03*
D27*
X314642339Y-102686250D03*
D26*
X300307339Y-111516250D03*
D27*
X303152339Y-100486250D03*
D28*
X260742339Y-63202500D03*
D29*
X260742339Y-61167500D03*
X260742339Y-57617500D03*
D30*
X260742339Y-55582500D03*
D28*
X260742339Y-101302500D03*
D29*
X260742339Y-99267500D03*
X260742339Y-95717500D03*
D30*
X260742339Y-93682500D03*
D22*
X100872337Y-63573750D03*
D23*
X101292337Y-63573750D03*
D24*
X103832337Y-68653750D03*
X106372337Y-57623750D03*
D25*
X106372337Y-63573750D03*
D24*
X110182337Y-66113750D03*
X111372337Y-59823750D03*
D23*
X111452337Y-63573750D03*
D22*
X111872337Y-63573750D03*
D26*
X113732337Y-66113750D03*
D27*
X114617337Y-59823750D03*
D26*
X100282337Y-68653750D03*
D27*
X103127337Y-57623750D03*
D22*
X119922337Y-80242500D03*
D23*
X120342337Y-80242500D03*
D24*
X122882337Y-85322500D03*
X125422337Y-74292500D03*
D25*
X125422337Y-80242500D03*
D24*
X129232337Y-82782500D03*
X130422337Y-76492500D03*
D23*
X130502337Y-80242500D03*
D22*
X130922337Y-80242500D03*
D26*
X132782337Y-82782500D03*
D27*
X133667337Y-76492500D03*
D26*
X119332337Y-85322500D03*
D27*
X122177337Y-74292500D03*
D22*
X100872337Y-82623750D03*
D23*
X101292337Y-82623750D03*
D24*
X103832337Y-87703750D03*
X106372337Y-76673750D03*
D25*
X106372337Y-82623750D03*
D24*
X110182337Y-85163750D03*
X111372337Y-78873750D03*
D23*
X111452337Y-82623750D03*
D22*
X111872337Y-82623750D03*
D26*
X113732337Y-85163750D03*
D27*
X114617337Y-78873750D03*
D26*
X100282337Y-87703750D03*
D27*
X103127337Y-76673750D03*
D22*
X300897339Y-68336250D03*
D23*
X301317339Y-68336250D03*
D24*
X303857339Y-73416250D03*
X306397339Y-62386250D03*
D25*
X306397339Y-68336250D03*
D24*
X310207339Y-70876250D03*
X311397339Y-64586250D03*
D23*
X311477339Y-68336250D03*
D22*
X311897339Y-68336250D03*
D26*
X313757339Y-70876250D03*
D27*
X314642339Y-64586250D03*
D26*
X300307339Y-73416250D03*
D27*
X303152339Y-62386250D03*
D22*
X319947339Y-68336250D03*
D23*
X320367339Y-68336250D03*
D24*
X322907339Y-73416250D03*
X325447339Y-62386250D03*
D25*
X325447339Y-68336250D03*
D24*
X329257339Y-70876250D03*
X330447339Y-64586250D03*
D23*
X330527339Y-68336250D03*
D22*
X330947339Y-68336250D03*
D26*
X332807339Y-70876250D03*
D27*
X333692339Y-64586250D03*
D26*
X319357339Y-73416250D03*
D27*
X322202339Y-62386250D03*
D13*
X190044900Y-113217400D03*
D22*
X150380857Y-124143797D03*
D23*
X150791770Y-124230690D03*
D24*
X152225829Y-129726276D03*
X156992842Y-119460407D03*
D25*
X155761863Y-125281677D03*
D24*
X158963939Y-128554964D03*
X161429514Y-122647245D03*
D23*
X160731956Y-126332664D03*
D22*
X161142869Y-126419557D03*
D31*
X162437134Y-129289414D03*
D32*
X164604308Y-123318595D03*
D31*
X148752634Y-128991827D03*
D32*
X153818047Y-118789057D03*
D22*
X224697339Y-65955000D03*
D23*
X225117339Y-65955000D03*
D24*
X227657339Y-71035000D03*
X230197339Y-60005000D03*
D25*
X230197339Y-65955000D03*
D24*
X234007339Y-68495000D03*
X235197339Y-62205000D03*
D23*
X235277339Y-65955000D03*
D22*
X235697339Y-65955000D03*
D26*
X237557339Y-68495000D03*
D27*
X238442339Y-62205000D03*
D26*
X224107339Y-71035000D03*
D27*
X226952339Y-60005000D03*
D22*
X119922337Y-61192500D03*
D23*
X120342337Y-61192500D03*
D24*
X122882337Y-66272500D03*
X125422337Y-55242500D03*
D25*
X125422337Y-61192500D03*
D24*
X129232337Y-63732500D03*
X130422337Y-57442500D03*
D23*
X130502337Y-61192500D03*
D22*
X130922337Y-61192500D03*
D26*
X132782337Y-63732500D03*
D27*
X133667337Y-57442500D03*
D26*
X119332337Y-66272500D03*
D27*
X122177337Y-55242500D03*
D22*
X243747339Y-82623750D03*
D23*
X244167339Y-82623750D03*
D24*
X246707339Y-87703750D03*
X249247339Y-76673750D03*
D25*
X249247339Y-82623750D03*
D24*
X253057339Y-85163750D03*
X254247339Y-78873750D03*
D23*
X254327339Y-82623750D03*
D22*
X254747339Y-82623750D03*
D26*
X256607339Y-85163750D03*
D27*
X257492339Y-78873750D03*
D26*
X243157339Y-87703750D03*
D27*
X246002339Y-76673750D03*
D22*
X81822337Y-87386250D03*
D23*
X82242337Y-87386250D03*
D24*
X84782337Y-92466250D03*
X87322337Y-81436250D03*
D25*
X87322337Y-87386250D03*
D24*
X91132337Y-89926250D03*
X92322337Y-83636250D03*
D23*
X92402337Y-87386250D03*
D22*
X92822337Y-87386250D03*
D26*
X94682337Y-89926250D03*
D27*
X95567337Y-83636250D03*
D26*
X81232337Y-92466250D03*
D27*
X84077337Y-81436250D03*
D28*
X222642339Y-87015000D03*
D29*
X222642339Y-84980000D03*
X222642339Y-81430000D03*
D30*
X222642339Y-79395000D03*
D28*
X260742339Y-82252500D03*
D29*
X260742339Y-80217500D03*
X260742339Y-76667500D03*
D30*
X260742339Y-74632500D03*
D28*
X165300000Y-112890000D03*
D29*
X165300000Y-114925000D03*
X165300000Y-118475000D03*
D30*
X165300000Y-120510000D03*
D22*
X62772337Y-106436250D03*
D23*
X63192337Y-106436250D03*
D24*
X65732337Y-111516250D03*
X68272337Y-100486250D03*
D25*
X68272337Y-106436250D03*
D24*
X72082337Y-108976250D03*
X73272337Y-102686250D03*
D23*
X73352337Y-106436250D03*
D22*
X73772337Y-106436250D03*
D26*
X75632337Y-108976250D03*
D27*
X76517337Y-102686250D03*
D26*
X62182337Y-111516250D03*
D27*
X65027337Y-100486250D03*
D22*
X224697339Y-85005000D03*
D23*
X225117339Y-85005000D03*
D24*
X227657339Y-90085000D03*
X230197339Y-79055000D03*
D25*
X230197339Y-85005000D03*
D24*
X234007339Y-87545000D03*
X235197339Y-81255000D03*
D23*
X235277339Y-85005000D03*
D22*
X235697339Y-85005000D03*
D26*
X237557339Y-87545000D03*
D27*
X238442339Y-81255000D03*
D26*
X224107339Y-90085000D03*
D27*
X226952339Y-79055000D03*
D22*
X213889451Y-122333539D03*
D23*
X214059476Y-122717585D03*
D24*
X210442597Y-127096647D03*
X221556626Y-124954020D03*
D25*
X216115974Y-127362713D03*
D24*
X215335783Y-131874808D03*
X221569069Y-130416606D03*
D23*
X218172472Y-132007841D03*
D22*
X218342497Y-132391887D03*
D33*
X216772903Y-135120912D03*
D34*
X222882717Y-133383818D03*
D33*
X209005477Y-123850543D03*
D34*
X220242977Y-121986807D03*
D28*
X222642339Y-67965000D03*
D29*
X222642339Y-65930000D03*
X222642339Y-62380000D03*
D30*
X222642339Y-60345000D03*
D28*
X222642339Y-106065000D03*
D29*
X222642339Y-104030000D03*
X222642339Y-100480000D03*
D30*
X222642339Y-98445000D03*
D22*
X138972337Y-101673750D03*
D23*
X139392337Y-101673750D03*
D24*
X141932337Y-106753750D03*
X144472337Y-95723750D03*
D25*
X144472337Y-101673750D03*
D24*
X148282337Y-104213750D03*
X149472337Y-97923750D03*
D23*
X149552337Y-101673750D03*
D22*
X149972337Y-101673750D03*
D26*
X151832337Y-104213750D03*
D27*
X152717337Y-97923750D03*
D26*
X138382337Y-106753750D03*
D27*
X141227337Y-95723750D03*
D28*
X147300000Y-116690000D03*
D29*
X147300000Y-118725000D03*
X147300000Y-122275000D03*
D30*
X147300000Y-124310000D03*
D28*
X250872339Y-114431250D03*
D29*
X250872339Y-116466250D03*
X250872339Y-120016250D03*
D30*
X250872339Y-122051250D03*
D22*
X281847339Y-63573750D03*
D23*
X282267339Y-63573750D03*
D24*
X284807339Y-68653750D03*
X287347339Y-57623750D03*
D25*
X287347339Y-63573750D03*
D24*
X291157339Y-66113750D03*
X292347339Y-59823750D03*
D23*
X292427339Y-63573750D03*
D22*
X292847339Y-63573750D03*
D26*
X294707339Y-66113750D03*
D27*
X295592339Y-59823750D03*
D26*
X281257339Y-68653750D03*
D27*
X284102339Y-57623750D03*
D28*
X136917337Y-65583750D03*
D29*
X136917337Y-63548750D03*
X136917337Y-59998750D03*
D30*
X136917337Y-57963750D03*
D28*
X298842339Y-70346250D03*
D29*
X298842339Y-68311250D03*
X298842339Y-64761250D03*
D30*
X298842339Y-62726250D03*
D28*
X155967337Y-67610000D03*
D29*
X155967337Y-65575000D03*
X155967337Y-62025000D03*
D30*
X155967337Y-59990000D03*
D28*
X241692339Y-103683750D03*
D29*
X241692339Y-101648750D03*
X241692339Y-98098750D03*
D30*
X241692339Y-96063750D03*
D28*
X117867337Y-63202500D03*
D29*
X117867337Y-61167500D03*
X117867337Y-57617500D03*
D30*
X117867337Y-55582500D03*
D22*
X224697339Y-104055000D03*
D23*
X225117339Y-104055000D03*
D24*
X227657339Y-109135000D03*
X230197339Y-98105000D03*
D25*
X230197339Y-104055000D03*
D24*
X234007339Y-106595000D03*
X235197339Y-100305000D03*
D23*
X235277339Y-104055000D03*
D22*
X235697339Y-104055000D03*
D26*
X237557339Y-106595000D03*
D27*
X238442339Y-100305000D03*
D26*
X224107339Y-109135000D03*
D27*
X226952339Y-98105000D03*
D28*
X169300000Y-112890000D03*
D29*
X169300000Y-114925000D03*
X169300000Y-118475000D03*
D30*
X169300000Y-120510000D03*
D28*
X241692339Y-65583750D03*
D29*
X241692339Y-63548750D03*
X241692339Y-59998750D03*
D30*
X241692339Y-57963750D03*
D22*
X232576807Y-126419557D03*
D23*
X232987720Y-126332664D03*
D24*
X236523754Y-130777264D03*
X236726834Y-119460407D03*
D25*
X237957813Y-125281677D03*
D24*
X242210876Y-126978483D03*
X242073810Y-120578373D03*
D23*
X242927906Y-124230690D03*
D22*
X243338819Y-124143797D03*
D35*
X245684071Y-126244033D03*
D36*
X245248601Y-119907024D03*
D35*
X233050559Y-131511714D03*
D36*
X233552040Y-120131756D03*
D28*
X317892339Y-108446250D03*
D29*
X317892339Y-106411250D03*
X317892339Y-102861250D03*
D30*
X317892339Y-100826250D03*
D28*
X298842339Y-108596250D03*
D29*
X298842339Y-106561250D03*
X298842339Y-103011250D03*
D30*
X298842339Y-100976250D03*
D22*
X119922337Y-99292500D03*
D23*
X120342337Y-99292500D03*
D24*
X122882337Y-104372500D03*
X125422337Y-93342500D03*
D25*
X125422337Y-99292500D03*
D24*
X129232337Y-101832500D03*
X130422337Y-95542500D03*
D23*
X130502337Y-99292500D03*
D22*
X130922337Y-99292500D03*
D26*
X132782337Y-101832500D03*
D27*
X133667337Y-95542500D03*
D26*
X119332337Y-104372500D03*
D27*
X122177337Y-93342500D03*
D28*
X79767337Y-70346250D03*
D29*
X79767337Y-68311250D03*
X79767337Y-64761250D03*
D30*
X79767337Y-62726250D03*
D28*
X155967337Y-106065000D03*
D29*
X155967337Y-104030000D03*
X155967337Y-100480000D03*
D30*
X155967337Y-98445000D03*
D28*
X279792339Y-65583750D03*
D29*
X279792339Y-63548750D03*
X279792339Y-59998750D03*
D30*
X279792339Y-57963750D03*
D22*
X319947339Y-106436250D03*
D23*
X320367339Y-106436250D03*
D24*
X322907339Y-111516250D03*
X325447339Y-100486250D03*
D25*
X325447339Y-106436250D03*
D24*
X329257339Y-108976250D03*
X330447339Y-102686250D03*
D23*
X330527339Y-106436250D03*
D22*
X330947339Y-106436250D03*
D26*
X332807339Y-108976250D03*
D27*
X333692339Y-102686250D03*
D26*
X319357339Y-111516250D03*
D27*
X322202339Y-100486250D03*
D28*
X60717337Y-108446250D03*
D29*
X60717337Y-106411250D03*
X60717337Y-102861250D03*
D30*
X60717337Y-100826250D03*
D22*
X100872337Y-101673750D03*
D23*
X101292337Y-101673750D03*
D24*
X103832337Y-106753750D03*
X106372337Y-95723750D03*
D25*
X106372337Y-101673750D03*
D24*
X110182337Y-104213750D03*
X111372337Y-97923750D03*
D23*
X111452337Y-101673750D03*
D22*
X111872337Y-101673750D03*
D26*
X113732337Y-104213750D03*
D27*
X114617337Y-97923750D03*
D26*
X100282337Y-106753750D03*
D27*
X103127337Y-95723750D03*
D22*
X62772337Y-68336250D03*
D23*
X63192337Y-68336250D03*
D24*
X65732337Y-73416250D03*
X68272337Y-62386250D03*
D25*
X68272337Y-68336250D03*
D24*
X72082337Y-70876250D03*
X73272337Y-64586250D03*
D23*
X73352337Y-68336250D03*
D22*
X73772337Y-68336250D03*
D26*
X75632337Y-70876250D03*
D27*
X76517337Y-64586250D03*
D26*
X62182337Y-73416250D03*
D27*
X65027337Y-62386250D03*
D22*
X262797339Y-61192500D03*
D23*
X263217339Y-61192500D03*
D24*
X265757339Y-66272500D03*
X268297339Y-55242500D03*
D25*
X268297339Y-61192500D03*
D24*
X272107339Y-63732500D03*
X273297339Y-57442500D03*
D23*
X273377339Y-61192500D03*
D22*
X273797339Y-61192500D03*
D26*
X275657339Y-63732500D03*
D27*
X276542339Y-57442500D03*
D26*
X262207339Y-66272500D03*
D27*
X265052339Y-55242500D03*
D28*
X279792339Y-84633750D03*
D29*
X279792339Y-82598750D03*
X279792339Y-79048750D03*
D30*
X279792339Y-77013750D03*
D22*
X62772337Y-87386250D03*
D23*
X63192337Y-87386250D03*
D24*
X65732337Y-92466250D03*
X68272337Y-81436250D03*
D25*
X68272337Y-87386250D03*
D24*
X72082337Y-89926250D03*
X73272337Y-83636250D03*
D23*
X73352337Y-87386250D03*
D22*
X73772337Y-87386250D03*
D26*
X75632337Y-89926250D03*
D27*
X76517337Y-83636250D03*
D26*
X62182337Y-92466250D03*
D27*
X65027337Y-81436250D03*
D22*
X81822337Y-68336250D03*
D23*
X82242337Y-68336250D03*
D24*
X84782337Y-73416250D03*
X87322337Y-62386250D03*
D25*
X87322337Y-68336250D03*
D24*
X91132337Y-70876250D03*
X92322337Y-64586250D03*
D23*
X92402337Y-68336250D03*
D22*
X92822337Y-68336250D03*
D26*
X94682337Y-70876250D03*
D27*
X95567337Y-64586250D03*
D26*
X81232337Y-73416250D03*
D27*
X84077337Y-62386250D03*
D28*
X117867337Y-101302500D03*
D29*
X117867337Y-99267500D03*
X117867337Y-95717500D03*
D30*
X117867337Y-93682500D03*
D28*
X279792339Y-103683750D03*
D29*
X279792339Y-101648750D03*
X279792339Y-98098750D03*
D30*
X279792339Y-96063750D03*
D22*
X319947339Y-87386250D03*
D23*
X320367339Y-87386250D03*
D24*
X322907339Y-92466250D03*
X325447339Y-81436250D03*
D25*
X325447339Y-87386250D03*
D24*
X329257339Y-89926250D03*
X330447339Y-83636250D03*
D23*
X330527339Y-87386250D03*
D22*
X330947339Y-87386250D03*
D26*
X332807339Y-89926250D03*
D27*
X333692339Y-83636250D03*
D26*
X319357339Y-92466250D03*
D27*
X322202339Y-81436250D03*
D22*
X281847339Y-82623750D03*
D23*
X282267339Y-82623750D03*
D24*
X284807339Y-87703750D03*
X287347339Y-76673750D03*
D25*
X287347339Y-82623750D03*
D24*
X291157339Y-85163750D03*
X292347339Y-78873750D03*
D23*
X292427339Y-82623750D03*
D22*
X292847339Y-82623750D03*
D26*
X294707339Y-85163750D03*
D27*
X295592339Y-78873750D03*
D26*
X281257339Y-87703750D03*
D27*
X284102339Y-76673750D03*
D22*
X81822337Y-106436250D03*
D23*
X82242337Y-106436250D03*
D24*
X84782337Y-111516250D03*
X87322337Y-100486250D03*
D25*
X87322337Y-106436250D03*
D24*
X91132337Y-108976250D03*
X92322337Y-102686250D03*
D23*
X92402337Y-106436250D03*
D22*
X92822337Y-106436250D03*
D26*
X94682337Y-108976250D03*
D27*
X95567337Y-102686250D03*
D26*
X81232337Y-111516250D03*
D27*
X84077337Y-100486250D03*
D28*
X98817337Y-103683750D03*
D29*
X98817337Y-101648750D03*
X98817337Y-98098750D03*
D30*
X98817337Y-96063750D03*
D28*
X136917337Y-103683750D03*
D29*
X136917337Y-101648750D03*
X136917337Y-98098750D03*
D30*
X136917337Y-96063750D03*
D22*
X175377179Y-132391887D03*
D23*
X175547204Y-132007841D03*
D24*
X181220581Y-131741775D03*
X172163050Y-124954020D03*
D25*
X177603702Y-127362713D03*
D24*
X181468640Y-124907116D03*
X176198832Y-121272652D03*
D23*
X179660200Y-122717585D03*
D22*
X179830225Y-122333539D03*
D37*
X182905759Y-121661012D03*
D38*
X177512480Y-118305439D03*
D37*
X179783462Y-134987878D03*
D38*
X170849401Y-127921232D03*
D22*
X243747339Y-63573750D03*
D23*
X244167339Y-63573750D03*
D24*
X246707339Y-68653750D03*
X249247339Y-57623750D03*
D25*
X249247339Y-63573750D03*
D24*
X253057339Y-66113750D03*
X254247339Y-59823750D03*
D23*
X254327339Y-63573750D03*
D22*
X254747339Y-63573750D03*
D26*
X256607339Y-66113750D03*
D27*
X257492339Y-59823750D03*
D26*
X243157339Y-68653750D03*
D27*
X246002339Y-57623750D03*
D22*
X158022337Y-104055000D03*
D23*
X158442337Y-104055000D03*
D24*
X160982337Y-109135000D03*
X163522337Y-98105000D03*
D25*
X163522337Y-104055000D03*
D24*
X167332337Y-106595000D03*
X168522337Y-100305000D03*
D23*
X168602337Y-104055000D03*
D22*
X169022337Y-104055000D03*
D26*
X170882337Y-106595000D03*
D27*
X171767337Y-100305000D03*
D26*
X157432337Y-109135000D03*
D27*
X160277337Y-98105000D03*
D22*
X138972337Y-82623750D03*
D23*
X139392337Y-82623750D03*
D24*
X141932337Y-87703750D03*
X144472337Y-76673750D03*
D25*
X144472337Y-82623750D03*
D24*
X148282337Y-85163750D03*
X149472337Y-78873750D03*
D23*
X149552337Y-82623750D03*
D22*
X149972337Y-82623750D03*
D26*
X151832337Y-85163750D03*
D27*
X152717337Y-78873750D03*
D26*
X138382337Y-87703750D03*
D27*
X141227337Y-76673750D03*
D22*
X158022337Y-85005000D03*
D23*
X158442337Y-85005000D03*
D24*
X160982337Y-90085000D03*
X163522337Y-79055000D03*
D25*
X163522337Y-85005000D03*
D24*
X167332337Y-87545000D03*
X168522337Y-81255000D03*
D23*
X168602337Y-85005000D03*
D22*
X169022337Y-85005000D03*
D26*
X170882337Y-87545000D03*
D27*
X171767337Y-81255000D03*
D26*
X157432337Y-90085000D03*
D27*
X160277337Y-79055000D03*
D28*
X228419676Y-112890000D03*
D29*
X228419676Y-114925000D03*
X228419676Y-118475000D03*
D30*
X228419676Y-120510000D03*
D28*
X98817337Y-65583750D03*
D29*
X98817337Y-63548750D03*
X98817337Y-59998750D03*
D30*
X98817337Y-57963750D03*
D28*
X117867337Y-82252500D03*
D29*
X117867337Y-80217500D03*
X117867337Y-76667500D03*
D30*
X117867337Y-74632500D03*
D22*
X243747339Y-101673750D03*
D23*
X244167339Y-101673750D03*
D24*
X246707339Y-106753750D03*
X249247339Y-95723750D03*
D25*
X249247339Y-101673750D03*
D24*
X253057339Y-104213750D03*
X254247339Y-97923750D03*
D23*
X254327339Y-101673750D03*
D22*
X254747339Y-101673750D03*
D26*
X256607339Y-104213750D03*
D27*
X257492339Y-97923750D03*
D26*
X243157339Y-106753750D03*
D27*
X246002339Y-95723750D03*
M02*
